<?xml version="1.0" encoding="UTF-8"?>
<svg width="128px" height="86px" viewBox="0 0 128 86" version="1.1" xmlns="http://www.w3.org/2000/svg" xmlns:xlink="http://www.w3.org/1999/xlink">
    <title>01-cloche</title>
    <g id="Page-1" stroke="none" stroke-width="1" fill="none" fill-rule="evenodd">
        <g id="icons" transform="translate(-384.000000, -404.000000)" fill="#000000" fill-rule="nonzero">
            <g id="01-cloche" transform="translate(384.000000, 404.000000)">
                <path d="M124,78 C126.209139,78 128,79.790861 128,82 C128,83.9636791 126.584999,85.596867 124.719005,85.9355546 L124,86 L4,86 C1.790861,86 0,84.209139 0,82 C0,80.0363209 1.41500128,78.403133 3.28099494,78.0644454 L4,78 L124,78 Z M4,70 C1.790861,70 0,68.209139 0,66 C0,64.0363209 1.41500128,62.403133 3.28099494,62.0644454 L4,62 L8.56706304,62.0003344 C12.2643247,36.1512563 33.6141794,15.9965937 60.0132511,14.1397226 L60,14 L60,8 L56,8 C53.790861,8 52,6.209139 52,4 C52,2.03632089 53.4150013,0.403133037 55.2809949,0.0644453553 L56,0 L72,0 C74.209139,0 76,1.790861 76,4 C76,5.96367911 74.5849987,7.59686696 72.7190051,7.93555464 L72,8 L68,8 L68,14 L67.9970752,14.1404499 C94.3913656,16.0018481 115.736121,36.1545928 119.432928,62.000269 L124,62 C126.209139,62 128,63.790861 128,66 C128,67.9636791 126.584999,69.596867 124.719005,69.9355546 L124,70 L4,70 Z M64,22 C40.5027943,22 20.9489822,38.8836751 16.8083586,61.1812303 L16.672,62 L111.32,62 L111.191641,61.1812303 C107.157188,39.4554073 88.4898317,22.8693889 65.7995061,22.0331078 L64,22 Z" id="Combined-Shape"></path>
            </g>
        </g>
    </g>
</svg>