<svg width="64" height="64" viewBox="0 0 64 64" fill="none" xmlns="http://www.w3.org/2000/svg">
<g clip-path="url(#clip0_230_24996)">
<path fill-rule="evenodd" clip-rule="evenodd" d="M31.9998 62.0005C40.2841 62.0005 47.7841 58.6426 53.213 53.2137C58.2015 48.2252 61.4414 41.488 61.9342 34.0005H2.06543C2.55826 41.488 5.7981 48.2252 10.7866 53.2137C16.2155 58.6426 23.7155 62.0005 31.9998 62.0005Z" stroke="black" stroke-width="3.6125"/>
<path d="M17.998 2C20.6647 3.6499 21.998 5.93561 21.998 8.85714C21.998 13.2394 17.998 14.9537 17.998 19.1428C17.998 21.9356 19.3314 24.2213 21.998 26" stroke="black" stroke-width="3.6125" stroke-linecap="round"/>
<path d="M29.998 2C32.6647 3.6499 33.998 5.93561 33.998 8.85714C33.998 13.2394 29.998 14.9537 29.998 19.1428C29.998 21.9356 31.3314 24.2213 33.998 26" stroke="black" stroke-width="3.6125" stroke-linecap="round"/>
<path d="M42.002 2.00024C44.6686 3.65015 46.002 5.93586 46.002 8.85738C46.002 13.2397 42.002 14.954 42.002 19.1431C42.002 21.9359 43.3353 24.2216 46.002 26.0002" stroke="black" stroke-width="3.6125" stroke-linecap="round"/>
</g>
<defs>
<clipPath id="clip0_230_24996">
<rect width="64" height="64" fill="white"/>
</clipPath>
</defs>
</svg>
