<?xml version="1.0" encoding="UTF-8"?>
<svg width="128px" height="128px" viewBox="0 0 128 128" version="1.1" xmlns="http://www.w3.org/2000/svg" xmlns:xlink="http://www.w3.org/1999/xlink">
    <title>02-soup</title>
    <g id="Page-1" stroke="none" stroke-width="1" fill="none" fill-rule="evenodd">
        <g id="icons" transform="translate(-384.000000, -768.000000)" fill="#000000" fill-rule="nonzero">
            <g id="02-soup" transform="translate(384.000000, 768.000000)">
                <path d="M128,64 L127.969545,65.9934346 C126.916343,100.417298 98.6793141,128 64,128 C28.653776,128 0,99.346224 0,64 L0,64 L128,64 Z M119.424,72 L8.568,72 L8.79442793,73.452642 C13.2868851,99.8792414 36.2937151,120 64,120 L64,120 L65.925198,119.967528 C92.7663569,119.06074 114.817591,99.2646693 119.205572,73.452642 L119.205572,73.452642 L119.424,72 Z M38.104597,0.598431045 C44.5918215,4.61216514 48,10.4547569 48,17.7142857 C48,21.9218909 46.9511874,24.6987848 44.2796149,28.9048026 L43.1037934,30.7002958 C40.7326927,34.2598175 40,35.911892 40,38.2857143 C40,42.4752929 41.9560687,45.8285535 46.2195702,48.6723119 C48.0574016,49.8981467 48.5535229,52.3817388 47.3276881,54.2195702 C46.1018533,56.0574016 43.6182612,56.5535229 41.7804298,55.3276881 C35.3772646,51.0567726 32,45.2671762 32,38.2857143 C32,34.3762426 32.9943747,31.6997423 35.453843,27.7927751 L36.6717988,25.9260604 C39.2301438,22.088543 40,20.3590786 40,17.7142857 C40,13.2877122 38.0748452,9.98744675 33.895403,7.40156896 C32.0167683,6.23923211 31.4360942,3.77403763 32.598431,1.89540297 C33.7607679,0.0167683143 36.2259624,-0.563905797 38.104597,0.598431045 Z M62.104597,0.598431045 C68.5918215,4.61216514 72,10.4547569 72,17.7142857 C72,21.9218909 70.9511874,24.6987848 68.2796149,28.9048026 L67.1037934,30.7002958 C64.7326927,34.2598175 64,35.911892 64,38.2857143 C64,42.4752929 65.9560687,45.8285535 70.2195702,48.6723119 C72.0574016,49.8981467 72.5535229,52.3817388 71.3276881,54.2195702 C70.1018533,56.0574016 67.6182612,56.5535229 65.7804298,55.3276881 C59.3772646,51.0567726 56,45.2671762 56,38.2857143 C56,34.3762426 56.9943747,31.6997423 59.453843,27.7927751 L60.6717988,25.9260604 C63.2301438,22.088543 64,20.3590786 64,17.7142857 C64,13.2877122 62.0748452,9.98744675 57.895403,7.40156896 C56.0167683,6.23923211 55.4360942,3.77403763 56.598431,1.89540297 C57.7607679,0.0167683143 60.2259624,-0.563905797 62.104597,0.598431045 Z M86.104597,0.598431045 C92.5918215,4.61216514 96,10.4547569 96,17.7142857 C96,21.9218909 94.9511874,24.6987848 92.2796149,28.9048026 L91.1037934,30.7002958 C88.7326927,34.2598175 88,35.911892 88,38.2857143 C88,42.4752929 89.9560687,45.8285535 94.2195702,48.6723119 C96.0574016,49.8981467 96.5535229,52.3817388 95.3276881,54.2195702 C94.1018533,56.0574016 91.6182612,56.5535229 89.7804298,55.3276881 C83.3772646,51.0567726 80,45.2671762 80,38.2857143 C80,34.3762426 80.9943747,31.6997423 83.453843,27.7927751 L84.6717988,25.9260604 C87.2301438,22.088543 88,20.3590786 88,17.7142857 C88,13.2877122 86.0748452,9.98744675 81.895403,7.40156896 C80.0167683,6.23923211 79.4360942,3.77403763 80.598431,1.89540297 C81.7607679,0.0167683143 84.2259624,-0.563905797 86.104597,0.598431045 Z" id="Combined-Shape"></path>
            </g>
        </g>
    </g>
</svg>