<?xml version="1.0" encoding="UTF-8"?>
<svg width="128px" height="116px" viewBox="0 0 128 116" version="1.1" xmlns="http://www.w3.org/2000/svg" xmlns:xlink="http://www.w3.org/1999/xlink">
    <title>03-noodles</title>
    <g id="Page-1" stroke="none" stroke-width="1" fill="none" fill-rule="evenodd">
        <g id="icons" transform="translate(-384.000000, -1154.000000)" fill="#000000">
            <g id="03-noodles" transform="translate(384.000000, 1154.000000)">
                <path d="M48,0 C49.9636791,0 51.596867,1.41500128 51.9355546,3.28099494 L52,4 L52,52 L128,52 L127.969545,53.9934346 C126.916343,88.4172979 98.6793141,116 64,116 C28.653776,116 0,87.346224 0,52 L0,52 L28.52,52 L9.22350095,16.7290611 C8.16322284,14.7909937 8.87481169,12.3603543 10.8127432,11.2998206 C12.5356058,10.3576068 14.647525,10.815131 15.8402393,12.2896052 L16.241864,12.8894544 L37.638,52 L44,52 L44,4 C44,1.790861 45.790861,0 48,0 Z M119.424,60 L8.568,60 L8.79442793,61.452642 C13.2868851,87.8792414 36.2937151,108 64,108 L64,108 L65.925198,107.967528 C92.7663569,107.06074 114.817591,87.2646693 119.205572,61.452642 L119.205572,61.452642 L119.424,60 Z" id="Combined-Shape" fill-rule="nonzero"></path>
                <circle id="Oval" cx="76" cy="16" r="4"></circle>
                <circle id="Oval" cx="92" cy="28" r="4"></circle>
                <circle id="Oval" cx="76" cy="40" r="4"></circle>
            </g>
        </g>
    </g>
</svg>