<svg width="64" height="64" viewBox="0 0 64 64" fill="none" xmlns="http://www.w3.org/2000/svg">
<path fill-rule="evenodd" clip-rule="evenodd" d="M31.9988 58C40.2831 58 47.7831 54.6421 53.212 49.2132C58.2006 44.2247 61.4404 37.4875 61.9332 30H2.06445C2.55728 37.4875 5.79713 44.2247 10.7856 49.2132C16.2146 54.6421 23.7146 58 31.9988 58Z" stroke="black" stroke-width="3.6125"/>
<path d="M28.0031 30.0006L8.24902 6.22217" stroke="black" stroke-width="3.6125" stroke-linecap="round"/>
<path d="M23.9981 30L3.99805 16" stroke="black" stroke-width="3.6125" stroke-linecap="round"/>
<path d="M43.9971 17.5999C45.1016 17.5999 45.9971 16.7044 45.9971 15.5999C45.9971 14.4953 45.1016 13.5999 43.9971 13.5999C42.8925 13.5999 41.9971 14.4953 41.9971 15.5999C41.9971 16.7044 42.8925 17.5999 43.9971 17.5999Z" fill="black"/>
<path d="M50.0029 25.6006C51.1075 25.6006 52.0029 24.7052 52.0029 23.6006C52.0029 22.496 51.1075 21.6006 50.0029 21.6006C48.8984 21.6006 48.0029 22.496 48.0029 23.6006C48.0029 24.7052 48.8984 25.6006 50.0029 25.6006Z" fill="black"/>
<path d="M37.999 25.6001C39.1036 25.6001 39.999 24.7047 39.999 23.6001C39.999 22.4955 39.1036 21.6001 37.999 21.6001C36.8945 21.6001 35.999 22.4955 35.999 23.6001C35.999 24.7047 36.8945 25.6001 37.999 25.6001Z" fill="black"/>
</svg>
