<?xml version="1.0" encoding="UTF-8"?>
<svg width="128px" height="128px" viewBox="0 0 128 128" version="1.1" xmlns="http://www.w3.org/2000/svg" xmlns:xlink="http://www.w3.org/1999/xlink">
    <title>04-bread</title>
    <g id="Page-1" stroke="none" stroke-width="1" fill="none" fill-rule="evenodd">
        <g id="icons" transform="translate(-384.000000, -1536.000000)" fill="#000000">
            <g id="04-bread" transform="translate(384.000000, 1536.000000)">
                <path d="M128,28 C128,36.2437242 126.306106,42.6652296 122.918319,47.2645161 L121.95238,48.473688 C120.693096,49.9277965 120,51.786991 120,53.7105885 L120,112 C120,120.836556 112.836556,128 104,128 L24,128 C15.163444,128 8,120.836556 8,112 L8,53.7112798 C8.00031636,52.1081759 7.51900588,50.5498021 6.62978395,49.2333004 L6.04789114,48.4740012 C2.01596371,43.8180224 0,36.9933553 0,28 C0,13.4611301 17.6923041,6.16002093 35.5226489,2.7276725 L39.0853572,2.09178807 L42.6205389,1.55308126 C43.2057082,1.47106218 43.7884303,1.39284262 44.368055,1.31829779 L47.8034328,0.914127407 C48.3680672,0.853782404 48.9283038,0.796862579 49.4834926,0.743243156 L52.7488494,0.460133201 L55.8618494,0.250243532 L58.791285,0.107584816 L62.7729886,0.00655311093 L65.2270114,0.00655311093 L67.8816832,0.0613736841 L72.3029001,0.25986885 L75.4946399,0.479025054 L78.8429539,0.775095376 L82.3145546,1.15446831 L85.8761546,1.62353236 C86.4754053,1.70953887 87.0770189,1.79954871 87.6803021,1.89369495 L91.3144872,2.50927409 L94.955453,3.23051557 L98.5699123,4.0638079 C114.127056,7.92674596 128,15.1257253 128,28 Z M64.0427251,7.99988591 L62.8569206,8.00611281 C55.4629065,8.08369135 48.2540593,8.67307511 41.6215502,9.70232333 L37.7143346,10.3720805 C20.4712515,13.6183347 8,19.9663112 8,28 C8,34.56557 9.2173111,39.2834184 11.4090002,42.3622751 L12.0954953,43.2369711 C14.2995661,45.7821824 15.6364807,48.9478154 15.9357621,52.2761994 L16,53.7112798 L16,112 C16,116.102687 19.0883215,119.484057 23.067031,119.946178 L24,120 L104,120 C108.102687,120 111.484057,116.911678 111.946178,112.932969 L112,112 L112,53.7105885 C112,50.3441953 113.061371,47.0764263 115.013834,44.363949 L115.904664,43.2367876 C118.527112,40.2083125 120,35.2219782 120,28 C120,20.0051137 107.585969,13.6908239 90.6868343,10.4309603 L86.8608649,9.75738319 C82.967512,9.13520145 78.8816764,8.66888101 74.6903696,8.37349819 L70.4671285,8.13565296 C68.341152,8.04577833 66.1960587,7.99988591 64.0427251,7.99988591 Z" id="Rectangle" fill-rule="nonzero"></path>
                <circle id="Oval" cx="60" cy="72" r="4"></circle>
                <circle id="Oval" cx="88" cy="52" r="4"></circle>
                <circle id="Oval" cx="36" cy="40" r="4"></circle>
                <circle id="Oval" cx="92" cy="92" r="4"></circle>
                <circle id="Oval" cx="44" cy="100" r="4"></circle>
            </g>
        </g>
    </g>
</svg>