<svg width="64" height="64" viewBox="0 0 64 64" fill="none" xmlns="http://www.w3.org/2000/svg">
<g clip-path="url(#clip0_230_24839)">
<path fill-rule="evenodd" clip-rule="evenodd" d="M31.3862 2.00342C37.1694 2.00152 47.4084 2.799 54.6487 5.90634C56.9702 6.90264 58.9783 8.12867 60.3331 9.70026C61.3737 10.9074 61.999 12.3251 61.999 14.0001C61.999 17.8936 61.2203 20.9017 59.4516 22.9413C58.5168 24.0327 58.0001 25.4218 57.999 26.86V56.0001C57.999 57.657 57.3274 59.157 56.2417 60.2427C55.1559 61.3285 53.6559 62.0001 51.999 62.0001H11.999C10.3422 62.0001 8.84217 61.3285 7.75638 60.2427C6.6706 59.157 5.99902 57.657 5.99902 56.0001L5.99902 26.8585C5.99796 25.4218 5.48127 24.0327 4.53841 22.932C2.77776 20.9017 1.99902 17.8936 1.99902 14.0001C1.99902 12.3595 2.59831 10.9653 3.59809 9.77426C4.895 8.22923 6.81814 7.01581 9.04198 6.0241C15.9795 2.93031 25.7953 2.06218 31.3862 2.00342Z" stroke="black" stroke-width="3.6125"/>
<path d="M28.399 36.8C29.7245 36.8 30.799 35.7255 30.799 34.4C30.799 33.0745 29.7245 32 28.399 32C27.0735 32 25.999 33.0745 25.999 34.4C25.999 35.7255 27.0735 36.8 28.399 36.8Z" fill="black"/>
<path d="M42.398 26.8005C43.7235 26.8005 44.798 25.726 44.798 24.4005C44.798 23.075 43.7235 22.0005 42.398 22.0005C41.0726 22.0005 39.998 23.075 39.998 24.4005C39.998 25.726 41.0726 26.8005 42.398 26.8005Z" fill="black"/>
<path d="M16.402 20.8C17.7274 20.8 18.802 19.7255 18.802 18.4C18.802 17.0745 17.7274 16 16.402 16C15.0765 16 14.002 17.0745 14.002 18.4C14.002 19.7255 15.0765 20.8 16.402 20.8Z" fill="black"/>
<path d="M44.4 46.8005C45.7255 46.8005 46.8 45.726 46.8 44.4005C46.8 43.075 45.7255 42.0005 44.4 42.0005C43.0745 42.0005 42 43.075 42 44.4005C42 45.726 43.0745 46.8005 44.4 46.8005Z" fill="black"/>
<path d="M20.4 50.8C21.7255 50.8 22.8 49.7255 22.8 48.4C22.8 47.0745 21.7255 46 20.4 46C19.0745 46 18 47.0745 18 48.4C18 49.7255 19.0745 50.8 20.4 50.8Z" fill="black"/>
</g>
<defs>
<clipPath id="clip0_230_24839">
<rect width="64" height="64" fill="white"/>
</clipPath>
</defs>
</svg>
