<?xml version="1.0" encoding="UTF-8"?>
<svg width="96px" height="128px" viewBox="0 0 96 128" version="1.1" xmlns="http://www.w3.org/2000/svg" xmlns:xlink="http://www.w3.org/1999/xlink">
    <title>05-orange</title>
    <g id="Page-1" stroke="none" stroke-width="1" fill="none" fill-rule="evenodd">
        <g id="icons" transform="translate(-1936.000000, -384.000000)" fill="#000000">
            <g id="05-orange" transform="translate(1936.000000, 384.000000)">
                <circle id="Oval" cx="60" cy="64" r="4"></circle>
                <circle id="Oval" cx="52" cy="80" r="4"></circle>
                <circle id="Oval" cx="68" cy="88" r="4"></circle>
                <path d="M17.8521184,2.27373675e-12 C22.3842552,2.27373675e-12 34.556972,5.71428571 40.1252565,11.4285714 C42.2680466,13.6275458 44.4108367,18.3651515 45.9189889,23.3619145 C46.9840496,18.5820343 48.3287777,14.9623976 50.0051322,12.4478659 C52.7123029,8.3871098 56.5901874,4.50922531 61.6197745,0.78526414 C63.3952241,-0.529298095 65.9001736,-0.155675074 67.2147359,1.61977452 C68.5292981,3.39522411 68.1556751,5.90017362 66.3802255,7.21473586 C62.0480259,10.4223437 58.8147993,13.6555703 56.6615345,16.8854675 C54.9827494,19.4036451 53.5359109,24.5683437 52.4879982,32.2069039 C76.8939687,34.470746 96,55.0041466 96,80 C96,106.509668 74.509668,128 48,128 C21.490332,128 0,106.509668 0,80 C0,59.2164952 13.2090663,41.5181331 31.6900715,34.8420413 C28.5321866,32.9705732 25.5637757,30.7710009 23.420403,28.5714286 C17.8521184,22.8571429 13.3199816,2.27373675e-12 17.8521184,2.27373675e-12 Z M48,40 C25.90861,40 8,57.90861 8,80 C8,102.09139 25.90861,120 48,120 C70.09139,120 88,102.09139 88,80 C88,57.90861 70.09139,40 48,40 Z M24.688,10.544 C25.8046144,16.2324504 27.9278511,21.734071 29.1499796,22.9882438 C31.3797203,25.2764487 35.0375759,27.6872457 38.44557,29.4390027 L39.328,29.872 L39.2668293,29.5502565 C38.1719829,24.4942664 36.1200972,19.330228 34.7509302,17.4427446 L34.3956799,17.0117562 C32.6396262,15.2096584 29.5575288,13.1719198 26.4884354,11.490585 L24.688,10.544 Z" id="Combined-Shape" fill-rule="nonzero"></path>
            </g>
        </g>
    </g>
</svg>