<svg width="64" height="64" viewBox="0 0 64 64" fill="none" xmlns="http://www.w3.org/2000/svg">
<path d="M31.999 61.9995C44.1493 61.9995 53.999 52.1498 53.999 39.9995C53.999 27.8492 44.1493 17.9995 31.999 17.9995C19.8488 17.9995 9.99902 27.8492 9.99902 39.9995C9.99902 52.1498 19.8488 61.9995 31.999 61.9995Z" stroke="black" stroke-width="3.6125"/>
<path d="M36.0035 35.9997C37.329 35.9997 38.4035 34.9252 38.4035 33.5997C38.4035 32.2742 37.329 31.1997 36.0035 31.1997C34.678 31.1997 33.6035 32.2742 33.6035 33.5997C33.6035 34.9252 34.678 35.9997 36.0035 35.9997Z" fill="black"/>
<path d="M32.0006 44.0002C33.3261 44.0002 34.4006 42.9257 34.4006 41.6002C34.4006 40.2747 33.3261 39.2002 32.0006 39.2002C30.6751 39.2002 29.6006 40.2747 29.6006 41.6002C29.6006 42.9257 30.6751 44.0002 32.0006 44.0002Z" fill="black"/>
<path d="M40.0006 48.0002C41.3261 48.0002 42.4006 46.9257 42.4006 45.6002C42.4006 44.2747 41.3261 43.2002 40.0006 43.2002C38.6751 43.2002 37.6006 44.2747 37.6006 45.6002C37.6006 46.9257 38.6751 48.0002 40.0006 48.0002Z" fill="black"/>
<path d="M32.001 17.9995C32.5636 12.7111 33.4525 9.15551 34.6676 7.33284C35.8828 5.51018 37.6605 3.7324 40.001 1.99951" stroke="black" stroke-width="3.6125" stroke-linecap="round"/>
<path d="M18.4022 2.83088L18.4213 2.3999M18.4213 2.3999C20.8405 3.04988 24.6495 5.47558 26.4524 7.30806C27.6604 8.53584 28.7734 11.7467 29.3049 14.448C29.5464 15.6749 29.6729 16.8074 29.5568 17.5999L29.5808 17.2803L29.2839 17.2282C27.0625 16.7254 23.8631 14.9523 21.8512 13.1417L21.3336 12.6479C20.1931 11.4887 19.2639 8.53844 18.7559 5.95661C18.4872 4.59094 18.3438 3.30738 18.4213 2.3999Z" stroke="black" stroke-width="3.6125" stroke-linejoin="round"/>
</svg>
