<?xml version="1.0" encoding="UTF-8"?>
<svg width="136px" height="136px" viewBox="0 0 136 136" version="1.1" xmlns="http://www.w3.org/2000/svg" xmlns:xlink="http://www.w3.org/1999/xlink">
    <title>06-watermelon</title>
    <g id="Page-1" stroke="none" stroke-width="1" fill="none" fill-rule="evenodd">
        <g id="icons" transform="translate(-1904.000000, -776.000000)" fill="#000000" fill-rule="nonzero">
            <g id="06-watermelon" transform="translate(1971.882251, 843.882251) rotate(45.000000) translate(-1971.882251, -843.882251) translate(1907.882251, 811.882251)">
                <path d="M128,1.25055521e-12 L127.969545,1.99343464 C126.916343,36.4172979 98.6793141,64 64,64 C28.653776,64 0,35.346224 0,1.25055521e-12 L0,1.25055521e-12 L128,1.25055521e-12 Z M119.424,8 L111.336134,8.00118545 C107.52702,30.7023089 87.7835563,48 64,48 C40.2163921,48 20.4728939,30.7022338 16.6638416,8.00103766 L8.568,8 L8.79442793,9.45264198 C13.2868851,35.8792414 36.2937151,56 64,56 L64,56 L65.925198,55.9675279 C92.7663569,55.0607404 114.817591,35.2646693 119.205572,9.45264198 L119.205572,9.45264198 L119.424,8 Z M103.184,8 L24.808,8 L24.8988885,8.47176803 C28.7852087,26.49413 44.8153718,40 64,40 L64,40 L65.735117,39.9630439 C84.1450018,39.177315 99.3325586,25.9479978 103.101112,8.47176803 L103.101112,8.47176803 L103.184,8 Z" id="Combined-Shape"></path>
                <path d="M64,12 C65.9636791,12 67.596867,13.4150013 67.9355546,15.2809949 L68,16 L68,24 C68,26.209139 66.209139,28 64,28 C62.0363209,28 60.403133,26.5849987 60.0644454,24.7190051 L60,24 L60,16 C60,13.790861 61.790861,12 64,12 Z" id="Path-10"></path>
                <path d="M41.3535135,13.0006486 C42.8259544,11.701436 44.9867759,11.6819051 46.4753186,12.8570147 L46.9993514,13.3535135 L52.9993514,20.1535135 C54.4609656,21.8100095 54.3029826,24.3377373 52.6464865,25.7993514 C51.1740456,27.098564 49.0132241,27.1180949 47.5246814,25.9429853 L47.0006486,25.4464865 L41.0006486,18.6464865 C39.5390344,16.9899905 39.6970174,14.4622627 41.3535135,13.0006486 Z" id="Path-10" transform="translate(47.000000, 19.400000) scale(-1, 1) translate(-47.000000, -19.400000) "></path>
                <path d="M75.3535135,13.0006486 C76.8259544,11.701436 78.9867759,11.6819051 80.4753186,12.8570147 L80.9993514,13.3535135 L86.9993514,20.1535135 C88.4609656,21.8100095 88.3029826,24.3377373 86.6464865,25.7993514 C85.1740456,27.098564 83.0132241,27.1180949 81.5246814,25.9429853 L81.0006486,25.4464865 L75.0006486,18.6464865 C73.5390344,16.9899905 73.6970174,14.4622627 75.3535135,13.0006486 Z" id="Path-10"></path>
            </g>
        </g>
    </g>
</svg>