<svg width="64" height="64" viewBox="0 0 64 64" fill="none" xmlns="http://www.w3.org/2000/svg">
<g clip-path="url(#clip0_230_24856)">
<path fill-rule="evenodd" clip-rule="evenodd" d="M16.2938 48.2693C22.1516 54.1272 29.8293 57.0561 37.507 57.0561C44.5618 57.0561 51.6166 54.5831 57.2596 49.6372L14.9259 7.30356C9.97996 12.9465 7.50697 20.0013 7.50697 27.0561C7.50697 34.7338 10.4359 42.4115 16.2938 48.2693Z" stroke="black" stroke-width="3.6125"/>
<path fill-rule="evenodd" clip-rule="evenodd" d="M21.948 42.6121C26.2438 46.9078 31.8741 49.0557 37.5044 49.0557C42.5098 49.0557 47.5153 47.3581 51.5831 43.9629L20.5972 12.977C17.202 17.0448 15.5044 22.0502 15.5044 27.0557C15.5044 32.686 17.6522 38.3163 21.948 42.6121Z" stroke="black" stroke-width="3.6125"/>
<path d="M31.8486 32.7129L29.0195 35.542" stroke="black" stroke-width="3.6125" stroke-linecap="round"/>
<path d="M26.9004 27.7632L22.3738 28.0461" stroke="black" stroke-width="3.6125" stroke-linecap="round"/>
<path d="M36.7988 37.6626L36.5159 42.1892" stroke="black" stroke-width="3.6125" stroke-linecap="round"/>
</g>
<defs>
<clipPath id="clip0_230_24856">
<rect width="64" height="64" fill="white"/>
</clipPath>
</defs>
</svg>
