<?xml version="1.0" encoding="UTF-8"?>
<svg width="110px" height="124px" viewBox="0 0 110 124" version="1.1" xmlns="http://www.w3.org/2000/svg" xmlns:xlink="http://www.w3.org/1999/xlink">
    <title>07-handbag</title>
    <g id="Page-1" stroke="none" stroke-width="1" fill="none" fill-rule="evenodd">
        <g id="icons" transform="translate(-777.000000, -386.000000)" fill="#000000" fill-rule="nonzero">
            <g id="07-handbag" transform="translate(777.000000, 386.000000)">
                <path d="M63,0 C73.6038672,0 82.2803094,8.25228749 82.9574586,18.6849945 L83,20 L83,28 L88.2778739,28 C96.5992921,28 103.53155,34.3785983 104.222606,42.6712723 L109.555939,106.671272 C110.289775,115.477305 103.745967,123.210896 94.9399349,123.944732 C94.497983,123.981561 94.054691,124 93.6112072,124 L16.3887928,124 C7.55223677,124 0.388792772,116.836556 0.388792772,108 C0.388792772,107.556516 0.407231317,107.113224 0.44406064,106.671272 L5.77739397,42.6712723 C6.46845014,34.3785983 13.4007079,28 21.7221261,28 L27,28 L27,20 C27,9.3961328 35.2522875,0.719690624 45.6849945,0.0425414375 L47,0 L63,0 Z M101.248118,103.304336 C98.0603147,105.986436 94.1113858,107.607358 89.9562453,107.937249 L88.372583,108 L21.627417,108 C16.8985817,108 12.3424138,106.325288 8.75185177,103.304311 L8.41642671,107.335636 C8.39801204,107.556612 8.38879277,107.778258 8.38879277,108 C8.38879277,112.102687 11.4771143,115.484057 15.4558238,115.946178 L16.3887928,116 L93.6112072,116 C93.8329491,116 94.0545951,115.990781 94.2755711,115.972366 C98.3640861,115.631656 101.477305,112.273195 101.607416,108.269852 L101.583573,107.335636 L101.248118,103.304336 Z M9.61379277,92.957 L13.1421356,96.4852814 C15.1112676,98.4544133 17.6942857,99.6685208 20.4413644,99.94128 L21.627417,100 L88.372583,100 C91.1573561,100 93.8423294,99.032034 95.9776773,97.2824259 L96.8578644,96.4852814 L100.384793,92.958 L97.9717928,64 L66.3168535,64.0009157 C64.6692493,68.6612069 60.2245331,72 55,72 C49.7754669,72 45.3307507,68.6612069 43.6831465,64.0009157 L12.0267928,64 L9.61379277,92.957 Z M55,56 C52.790861,56 51,57.790861 51,60 C51,62.209139 52.790861,64 55,64 C57.209139,64 59,62.209139 59,60 C59,57.790861 57.209139,56 55,56 Z M89.2246035,36.0555987 L88.2778739,36 L21.7221261,36 C17.8814716,36 14.6326487,38.7175093 13.8837883,42.396794 L13.74976,43.3356362 L12.6927928,56 L43.6827945,56.0000801 C45.3301176,51.3392688 49.7750948,48 55,48 C60.2249052,48 64.6698824,51.3392688 66.3172055,56.0000801 L97.3047928,56 L96.25024,43.3356362 C95.931291,39.5082482 92.9533685,36.4963244 89.2246035,36.0555987 Z M63,8 L47,8 C40.7624311,8 35.6364106,12.7591047 35.0549326,18.8443199 L35,20 L35,28 L75,28 L75,20 C75,13.7624311 70.2408953,8.63641057 64.1556801,8.05493262 L63,8 Z" id="Combined-Shape"></path>
            </g>
        </g>
    </g>
</svg>