<svg width="64" height="64" viewBox="0 0 64 64" fill="none" xmlns="http://www.w3.org/2000/svg">
<path d="M17.1855 60V30.8284C17.1855 29.0174 16.4661 27.2806 15.1855 26C13.905 24.7194 13.1855 22.9826 13.1855 21.1716V4" stroke="black" stroke-width="3.6125" stroke-linecap="round"/>
<path d="M24.1812 60V30.8284C24.1812 29.0174 24.9006 27.2806 26.1812 26C27.4617 24.7194 28.1812 22.9826 28.1812 21.1716V4" stroke="black" stroke-width="3.6125" stroke-linecap="round"/>
<path d="M20.7026 20.0005L20.6826 4.00049" stroke="black" stroke-width="3.6125" stroke-linecap="round"/>
<path fill-rule="evenodd" clip-rule="evenodd" d="M39.1841 8.00024V56.0002C39.1841 58.2094 40.9749 60.0002 43.1841 60.0002C45.3932 60.0002 47.1841 58.2094 47.1841 56.0002V37.4775C47.1841 36.4964 47.3044 35.5189 47.5424 34.5671L50.4565 22.9107C50.9342 20.9998 50.9342 19.0007 50.4565 17.0898L48.1542 7.88081C47.5841 5.60018 45.5349 4.00024 43.1841 4.00024C40.9749 4.00024 39.1841 5.7911 39.1841 8.00024Z" stroke="black" stroke-width="3.6125"/>
</svg>
