<?xml version="1.0" encoding="UTF-8"?>
<svg width="120px" height="78px" viewBox="0 0 120 78" version="1.1" xmlns="http://www.w3.org/2000/svg" xmlns:xlink="http://www.w3.org/1999/xlink">
    <title>08-hanger</title>
    <g id="Page-1" stroke="none" stroke-width="1" fill="none" fill-rule="evenodd">
        <g id="icons" transform="translate(-772.000000, -796.000000)" fill="#000000" fill-rule="nonzero">
            <g id="08-hanger" transform="translate(772.000000, 796.000000)">
                <path d="M60,0 C66.1501992,0 71.1359207,4.98572152 71.1359207,11.1359207 C71.1359207,12.8949222 70.7193424,14.6224054 69.9283022,16.1793446 L69.2654685,17.3128997 L66.0153965,22.1880078 C64.9202797,23.830683 64.2507767,25.7128597 64.0580289,27.6656289 L64,28.8444102 L64,32.992 C68.0383244,34.176551 71.8583081,35.3617611 75.4599282,36.5501523 L80.6985828,38.3354404 C82.3902081,38.9315419 84.0272397,39.528754 85.6096746,40.1273919 L90.1931865,41.9278985 C109.34529,49.7513619 119.27007,57.8690732 119.961204,66.9736793 L120,68 C120,71.6670101 115.294056,74.0828591 106.453394,75.6196579 L103.52483,76.0761763 C103.014051,76.1475373 102.491985,76.2165717 101.958716,76.2833339 L98.6253207,76.6570734 L95.0270349,76.9788821 L91.167856,77.251364 L87.0517815,77.4771232 L82.6828088,77.6587638 L75.6639103,77.8541986 L70.6801813,77.9369354 L60,78 L49.3198187,77.9369354 L41.9350646,77.7988898 L37.3171912,77.6587638 L30.8583192,77.3699212 L26.8701927,77.1211261 L23.1409607,76.8243063 C22.5412186,76.7706896 21.9524304,76.7149634 21.3746793,76.6570734 L18.0412841,76.2833339 C17.5080145,76.2165717 16.9859486,76.1475373 16.4751697,76.0761763 L13.5466057,75.6196579 C4.70594354,74.0828591 0,71.6670101 0,68 C0,57.007589 13.2431385,47.4670844 39.66808,38.2047028 L44.7772159,36.470979 C45.6544792,36.1824727 46.5446117,35.8941664 47.4476114,35.6060242 L53.0200015,33.8788542 L56,32.992 L56,28.8444102 C56,25.4599819 56.8586812,22.1404607 58.4832912,19.1921874 L59.3589941,17.7504063 L62.6094023,12.8747941 C62.9527051,12.3600088 63.1359207,11.7549688 63.1359207,11.1359207 C63.1359207,9.40399952 61.7319212,8 60,8 C58.2660564,8 56.4541854,9.56770772 56.0729541,11.3318971 L56,12 C56,14.209139 54.209139,16 52,16 C49.790861,16 48,14.209139 48,12 C48,5.50695099 53.6878675,0 60,0 Z M60,40.16 L58.1870025,40.6896975 C56.2114368,41.2701273 54.294314,41.8502588 52.4356134,42.429691 L47.0347569,44.1654893 C23.5194124,51.9635356 10.6476797,59.5611144 8.36803544,65.9722176 L8.264,66.312 L8.8875455,66.5094663 L9.76397492,66.7398108 C10.7980578,66.9930555 12.0248196,67.2363826 13.4301336,67.4678844 L16.4746453,67.9145558 L19.9701819,68.3263018 C20.5889615,68.3918273 21.2254874,68.4557563 21.8792364,68.5180181 C25.2351447,68.8376284 28.9982738,69.1088298 33.054647,69.3283827 L39.3448926,69.6185707 L45.9895218,69.828856 L52.9030518,69.956809 L60,70 L67.0969482,69.956809 L74.0104782,69.828856 L80.6551074,69.6185707 L86.945353,69.3283827 C91.0017262,69.1088298 94.7648553,68.8376284 98.1207636,68.5180181 L101.832395,68.1250064 C102.415159,68.0563585 102.979653,67.9861848 103.525355,67.9145558 L106.569866,67.4678844 C107.506742,67.3135499 108.364262,67.1539597 109.138239,66.989679 L110.691471,66.6242652 L111.728,66.312 L111.631965,65.9722176 C109.35232,59.5611144 96.4805876,51.9635356 72.9652431,44.1654893 L67.5643866,42.429691 L61.8129975,40.6896975 L60,40.16 Z" id="Path-16"></path>
            </g>
        </g>
    </g>
</svg>