<svg width="64" height="64" viewBox="0 0 64 64" fill="none" xmlns="http://www.w3.org/2000/svg">
<path d="M48.3529 5.72739C49.0471 6.42165 49.1243 7.49935 48.5843 8.27882L48.3529 8.55581L36.2107 20.6979C35.4346 21.4741 34.95 22.4873 34.8273 23.5673L34.7965 24.1122L34.7957 25.2336L31.1597 21.6061C31.5013 20.4523 32.077 19.3742 32.8576 18.4426L33.3823 17.8695L45.5244 5.72739C46.3055 4.94634 47.5718 4.94634 48.3529 5.72739Z" fill="black"/>
<path d="M10.1696 49.5669L24.2478 35.4887L26.3711 33.3613" stroke="black" stroke-width="3.6125" stroke-linecap="round"/>
<path d="M56.4099 16.1017C57.1894 15.5617 58.2671 15.6388 58.9614 16.3331C59.7424 17.1141 59.7424 18.3805 58.9614 19.1615L46.8192 31.3037L46.2462 31.8284C45.3142 32.6092 44.2357 33.1851 43.0815 33.5266L39.521 29.9527C39.8695 29.9108 40.222 29.8894 40.5766 29.8894L41.1214 29.8586C42.2015 29.736 43.2147 29.2514 43.9908 28.4752L56.1329 16.3331L56.4099 16.1017Z" fill="black"/>
<path d="M15.1196 54.5166L31.1978 38.4385" stroke="black" stroke-width="3.6125" stroke-linecap="round"/>
<path d="M40.9434 23.7717L52.2429 12.4438" stroke="black" stroke-width="3.6125" stroke-linecap="round"/>
<path fill-rule="evenodd" clip-rule="evenodd" d="M15.5599 8.86065L54.4507 47.7515C56.0128 49.3136 56.0128 51.8463 54.4507 53.4084C52.8887 54.9705 50.356 54.9705 48.7939 53.4084L33.4619 38.0764C32.8428 37.4573 32.1578 36.9078 31.4191 36.4377L19.2239 28.6771C17.7421 27.7341 16.4854 26.4774 15.5424 24.9957L9.22209 15.0637C7.96734 13.092 8.2504 10.5133 9.90302 8.86065C11.4651 7.29856 13.9978 7.29856 15.5599 8.86065Z" stroke="black" stroke-width="3.6125"/>
</svg>
