<?xml version="1.0" encoding="UTF-8"?>
<svg width="128px" height="53px" viewBox="0 0 128 53" version="1.1" xmlns="http://www.w3.org/2000/svg" xmlns:xlink="http://www.w3.org/1999/xlink">
    <title>09-goggles</title>
    <g id="Page-1" stroke="none" stroke-width="1" fill="none" fill-rule="evenodd">
        <g id="icons" transform="translate(-768.000000, -1192.000000)" fill="#000000" fill-rule="nonzero">
            <g id="09-goggles" transform="translate(768.000000, 1192.000000)">
                <path d="M94,0 C104.815886,0 114.089255,6.60429722 118.00744,16.0002233 L124,16 C126.209139,16 128,17.790861 128,20 C128,21.9636791 126.584999,23.596867 124.719005,23.9355546 L124,24 L119.924248,24.0003613 C119.974443,24.6603266 120,25.3271788 120,26 C120,40.3594035 108.359403,52 94,52 C79.6405965,52 68,40.3594035 68,26 C68,25.2714564 68.0299649,24.5499115 68.0887296,23.8365305 C66.5648588,22.5643112 65.2095526,22 64,22 C62.9808347,22 61.8581888,22.4006438 60.6180021,23.2868431 C60.738348,24.3083538 60.8,25.3469771 60.8,26.4 C60.8,40.9803174 48.9803174,52.8 34.4,52.8 C19.8196826,52.8 8,40.9803174 8,26.4 C8,25.5910826 8.03638147,24.7906626 8.10759738,24.0002869 L4,24 C1.790861,24 0,22.209139 0,20 C0,18.0363209 1.41500128,16.403133 3.28099494,16.0644454 L4,16 L10.1272503,16.0004322 C14.1640396,6.59085295 23.5123317,9.23705556e-14 34.4,9.23705556e-14 C45.0306975,9.23705556e-14 54.1938261,6.28340977 58.378094,15.3389376 C60.1927663,14.4572906 62.0685301,14 64,14 C66.1225859,14 68.1778963,14.5522643 70.1585607,15.6122821 C74.1665562,6.42357593 83.3331248,0 94,0 Z M34.4,8 C24.2379606,8 16,16.2379606 16,26.4 C16,36.5620394 24.2379606,44.8 34.4,44.8 C44.5620394,44.8 52.8,36.5620394 52.8,26.4 C52.8,16.2379606 44.5620394,8 34.4,8 Z M94,8 C84.0588745,8 76,16.0588745 76,26 C76,35.9411255 84.0588745,44 94,44 C103.941125,44 112,35.9411255 112,26 C112,16.0588745 103.941125,8 94,8 Z" id="Combined-Shape"></path>
            </g>
        </g>
    </g>
</svg>