<svg width="64" height="64" viewBox="0 0 64 64" fill="none" xmlns="http://www.w3.org/2000/svg">
<path fill-rule="evenodd" clip-rule="evenodd" d="M20.9515 3.86351C22.2111 3.10745 23.7466 2.8113 25.2868 3.13856C35.0689 5.21635 42.943 9.19433 48.8769 15.1282C54.8108 21.0621 58.7887 28.9361 60.8666 38.7184C61.1938 40.2585 60.8977 41.794 60.1416 43.0535C59.3851 44.3138 58.1683 45.2978 56.6591 45.7329L6.37891 60.0986L18.2709 7.35057C18.7072 5.83685 19.6913 4.61999 20.9515 3.86351Z" stroke="black" stroke-width="3.6125" stroke-linejoin="round"/>
<path d="M18 9.19971C28.207 11.3673 36.5038 14.7267 42.6912 20.914C48.8785 27.1014 52.6324 35.7927 54.8 45.9997" stroke="black" stroke-width="3.6125" stroke-linecap="round" stroke-linejoin="round"/>
<path d="M21.6007 30.3999C22.9262 30.3999 24.0007 29.3253 24.0007 27.9999C24.0007 26.6744 22.9262 25.5999 21.6007 25.5999C20.2752 25.5999 19.2007 26.6744 19.2007 27.9999C19.2007 29.3253 20.2752 30.3999 21.6007 30.3999Z" fill="black"/>
<path d="M41.6017 42.3996C42.9271 42.3996 44.0017 41.3251 44.0017 39.9996C44.0017 38.6741 42.9271 37.5996 41.6017 37.5996C40.2762 37.5996 39.2017 38.6741 39.2017 39.9996C39.2017 41.3251 40.2762 42.3996 41.6017 42.3996Z" fill="black"/>
<path d="M28.6002 40.3999C29.9257 40.3999 31.0002 39.3253 31.0002 37.9999C31.0002 36.6744 29.9257 35.5999 28.6002 35.5999C27.2747 35.5999 26.2002 36.6744 26.2002 37.9999C26.2002 39.3253 27.2747 40.3999 28.6002 40.3999Z" fill="black"/>
<path d="M17.6002 48.3994C18.9257 48.3994 20.0002 47.3248 20.0002 45.9994C20.0002 44.6739 18.9257 43.5994 17.6002 43.5994C16.2747 43.5994 15.2002 44.6739 15.2002 45.9994C15.2002 47.3248 16.2747 48.3994 17.6002 48.3994Z" fill="black"/>
<path d="M35.6007 30.3999C36.9262 30.3999 38.0007 29.3253 38.0007 27.9999C38.0007 26.6744 36.9262 25.5999 35.6007 25.5999C34.2752 25.5999 33.2007 26.6744 33.2007 27.9999C33.2007 29.3253 34.2752 30.3999 35.6007 30.3999Z" fill="black"/>
</svg>
