<?xml version="1.0" encoding="UTF-8"?>
<svg width="128px" height="128px" viewBox="0 0 128 128" version="1.1" xmlns="http://www.w3.org/2000/svg" xmlns:xlink="http://www.w3.org/1999/xlink">
    <title>10-button</title>
    <g id="Page-1" stroke="none" stroke-width="1" fill="none" fill-rule="evenodd">
        <g id="icons" transform="translate(-768.000000, -1536.000000)" fill="#000000" fill-rule="nonzero">
            <g id="10-button" transform="translate(768.000000, 1536.000000)">
                <path d="M64,0 C99.346224,0 128,28.653776 128,64 C128,99.346224 99.346224,128 64,128 C28.653776,128 0,99.346224 0,64 C0,28.653776 28.653776,0 64,0 Z M64,8 C33.072054,8 8,33.072054 8,64 C8,94.927946 33.072054,120 64,120 C94.927946,120 120,94.927946 120,64 C120,33.072054 94.927946,8 64,8 Z M64,16 C90.509668,16 112,37.490332 112,64 C112,90.509668 90.509668,112 64,112 C37.490332,112 16,90.509668 16,64 C16,37.490332 37.490332,16 64,16 Z M64,24 C41.90861,24 24,41.90861 24,64 C24,86.09139 41.90861,104 64,104 C86.09139,104 104,86.09139 104,64 C104,41.90861 86.09139,24 64,24 Z M51,66 C57.0751322,66 62,70.9248678 62,77 C62,83.0751322 57.0751322,88 51,88 C44.9248678,88 40,83.0751322 40,77 C40,70.9248678 44.9248678,66 51,66 Z M77,66 C83.0751322,66 88,70.9248678 88,77 C88,83.0751322 83.0751322,88 77,88 C70.9248678,88 66,83.0751322 66,77 C66,70.9248678 70.9248678,66 77,66 Z M51,74 C49.3431458,74 48,75.3431458 48,77 C48,78.6568542 49.3431458,80 51,80 C52.6568542,80 54,78.6568542 54,77 C54,75.3431458 52.6568542,74 51,74 Z M77,74 C75.3431458,74 74,75.3431458 74,77 C74,78.6568542 75.3431458,80 77,80 C78.6568542,80 80,78.6568542 80,77 C80,75.3431458 78.6568542,74 77,74 Z M51,40 C57.0751322,40 62,44.9248678 62,51 C62,57.0751322 57.0751322,62 51,62 C44.9248678,62 40,57.0751322 40,51 C40,44.9248678 44.9248678,40 51,40 Z M77,40 C83.0751322,40 88,44.9248678 88,51 C88,57.0751322 83.0751322,62 77,62 C70.9248678,62 66,57.0751322 66,51 C66,44.9248678 70.9248678,40 77,40 Z M51,48 C49.3431458,48 48,49.3431458 48,51 C48,52.6568542 49.3431458,54 51,54 C52.6568542,54 54,52.6568542 54,51 C54,49.3431458 52.6568542,48 51,48 Z M77,48 C75.3431458,48 74,49.3431458 74,51 C74,52.6568542 75.3431458,54 77,54 C78.6568542,54 80,52.6568542 80,51 C80,49.3431458 78.6568542,48 77,48 Z" id="Combined-Shape"></path>
            </g>
        </g>
    </g>
</svg>