<svg width="64" height="64" viewBox="0 0 64 64" fill="none" xmlns="http://www.w3.org/2000/svg">
<path fill-rule="evenodd" clip-rule="evenodd" d="M20.9511 3.86424C22.2106 3.10818 23.7461 2.81203 25.2863 3.13929C35.0684 5.21709 42.9425 9.19506 48.8764 15.1289C54.8103 21.0628 58.7883 28.9369 60.8661 38.7191C61.1933 40.2592 60.8972 41.7947 60.1411 43.0542C59.3846 44.3145 58.1678 45.2986 56.6586 45.7336L6.37842 60.0994L18.2704 7.35131C18.7067 5.83758 19.6908 4.62072 20.9511 3.86424Z" stroke="black" stroke-width="3.6125" stroke-linejoin="round"/>
<path d="M18.0005 9.20068C28.2075 11.3683 36.5024 14.7282 42.6897 20.9155C48.877 27.1028 52.6329 35.7937 54.8005 46.0007" stroke="black" stroke-width="3.6125" stroke-linecap="round" stroke-linejoin="round"/>
<path d="M27.2006 32.0003C30.2934 32.0003 32.8006 29.4931 32.8006 26.4003C32.8006 23.3075 30.2934 20.8003 27.2006 20.8003C24.1078 20.8003 21.6006 23.3075 21.6006 26.4003C21.6006 29.4931 24.1078 32.0003 27.2006 32.0003Z" stroke="black" stroke-width="3.6125"/>
<path d="M40.8065 41.2005C42.7948 41.2005 44.4065 39.5887 44.4065 37.6005C44.4065 35.6123 42.7948 34.0005 40.8065 34.0005C38.8183 34.0005 37.2065 35.6123 37.2065 37.6005C37.2065 39.5887 38.8183 41.2005 40.8065 41.2005Z" stroke="black" stroke-width="3.6125"/>
<path d="M20.0008 47.2003C21.7681 47.2003 23.2008 45.7676 23.2008 44.0003C23.2008 42.233 21.7681 40.8003 20.0008 40.8003C18.2335 40.8003 16.8008 42.233 16.8008 44.0003C16.8008 45.7676 18.2335 47.2003 20.0008 47.2003Z" stroke="black" stroke-width="3.6125"/>
</svg>
