<?xml version="1.0" encoding="UTF-8"?>
<svg width="128px" height="124px" viewBox="0 0 128 124" version="1.1" xmlns="http://www.w3.org/2000/svg" xmlns:xlink="http://www.w3.org/1999/xlink">
    <title>11-sewingmachine</title>
    <g id="Page-1" stroke="none" stroke-width="1" fill="none" fill-rule="evenodd">
        <g id="icons" transform="translate(-1920.000000, -1154.000000)" fill="#000000" fill-rule="nonzero">
            <g id="11-sewingmachine" transform="translate(1920.000000, 1154.000000)">
                <path d="M84,0 C85.9636791,0 87.596867,1.41500128 87.9355546,3.28099494 L88,4 L88,20 L96,20 L96,12 C96,9.790861 97.790861,8 100,8 C101.963679,8 103.596867,9.41500128 103.935555,11.2809949 L104,12 L104,20 L120,20 L120,92 L128,92 L128,124 L0,124 L0,92 L68,92 L68,52 L48,52 L48,68 L32,68 L32,76 C32,78.209139 30.209139,80 28,80 C26.0363209,80 24.403133,78.5849987 24.0644454,76.7190051 L24,76 L24,68 L8,68 L8,20 L80,20 L80,4 C80,1.790861 81.790861,0 84,0 Z M120,100 L8,100 L8,116 L120,116 L120,100 Z M112,28 L16,28 L16,60 L40,60 L40,44 L76,44 L76,92 L112,92 L112,28 Z M94,44 C100.627417,44 106,49.372583 106,56 C106,62.627417 100.627417,68 94,68 C87.372583,68 82,62.627417 82,56 C82,49.372583 87.372583,44 94,44 Z M94,52 C91.790861,52 90,53.790861 90,56 C90,58.209139 91.790861,60 94,60 C96.209139,60 98,58.209139 98,56 C98,53.790861 96.209139,52 94,52 Z" id="Combined-Shape"></path>
            </g>
        </g>
    </g>
</svg>