<?xml version="1.0" encoding="UTF-8"?>
<svg width="104px" height="88px" viewBox="0 0 104 88" version="1.1" xmlns="http://www.w3.org/2000/svg" xmlns:xlink="http://www.w3.org/1999/xlink">
    <title>12-scissors</title>
    <g id="Page-1" stroke="none" stroke-width="1" fill="none" fill-rule="evenodd">
        <g id="icons" transform="translate(-1932.000000, -1556.000000)" fill="#000000" fill-rule="nonzero">
            <g id="12-scissors" transform="translate(1932.000000, 1556.000000)">
                <path d="M86.2938494,0.723072318 C87.902558,1.84916834 88.4290677,3.9449543 87.6364543,5.6678605 L87.2769277,6.29384938 L36.0541494,79.4692469 C32.5994662,84.4045086 27.1226349,87.4973253 21.1673946,87.9439405 L19.669511,88 L16,88 C7.163444,88 4.54747351e-13,80.836556 4.54747351e-13,72 C4.54747351e-13,63.5651056 6.52702232,56.654679 14.8059012,56.0438859 L16,56 L28,56 C30.209139,56 32,57.790861 32,60 C32,61.9636791 30.5849987,63.596867 28.7190051,63.9355546 L28,64 L16,64 C11.581722,64 8,67.581722 8,72 C8,76.1026867 11.0883215,79.4840573 15.067031,79.9461781 L16,80 L19.669511,80 C23.1501915,80 26.4362708,78.4904441 28.7006567,75.9019623 L29.5002941,74.8815481 L80.7230723,1.70615062 C81.9899303,-0.103646563 84.4840522,-0.543785712 86.2938494,0.723072318 Z M88.0003434,56 L89.1944422,56.0438859 C97.4733211,56.654679 104.000343,63.5651056 104.000343,72 C104.000343,80.836556 96.8368994,88 88.0003434,88 L88.0003434,88 L84.3308324,88 L82.8329489,87.9439405 C76.8777086,87.4973253 71.4008772,84.4045086 67.946194,79.4692469 L67.946194,79.4692469 L56.7227651,63.435777 L56.3632385,62.8097882 C55.5706252,61.086882 56.0971348,58.991096 57.7058434,57.865 C59.5156406,56.5981419 62.0097625,57.0382811 63.2766205,58.8480783 L63.2766205,58.8480783 L74.5000494,74.8815481 L75.2996868,75.9019623 C77.5640727,78.4904441 80.8501519,80 84.3308324,80 L84.3308324,80 L88.0003434,80 L88.9333125,79.9461781 C92.9120219,79.4840573 96.0003434,76.1026867 96.0003434,72 C96.0003434,67.581722 92.4186214,64 88.0003434,64 L88.0003434,64 L76.0003434,64 L75.2813384,63.9355546 C73.4153447,63.596867 72.0003434,61.9636791 72.0003434,60 C72.0003434,57.790861 73.7912044,56 76.0003434,56 L76.0003434,56 L88.0003434,56 Z M17.7061506,0.723072318 C19.5159478,-0.543785712 22.0100697,-0.103646563 23.2769277,1.70615062 L23.2769277,1.70615062 L47.4462586,36.2337662 L47.8057852,36.859755 C48.5983985,38.5826612 48.0718889,40.6784472 46.4631803,41.8045432 C44.6533831,43.0714012 42.1592612,42.6312621 40.8924032,40.8214649 L40.8924032,40.8214649 L16.7230723,6.29384938 L16.3635457,5.6678605 C15.5709323,3.9449543 16.097442,1.84916834 17.7061506,0.723072318 Z" id="Combined-Shape"></path>
            </g>
        </g>
    </g>
</svg>