<svg width="64" height="64" viewBox="0 0 64 64" fill="none" xmlns="http://www.w3.org/2000/svg">
<path fill-rule="evenodd" clip-rule="evenodd" d="M48.6394 18.0002C50.1996 18.0002 51.6297 18.5982 52.702 19.5849C53.7744 20.5717 54.4891 21.9471 54.6186 23.502L57.2853 55.502C57.4229 57.1531 56.8782 58.7037 55.8863 59.8759C54.9098 61.03 53.4998 61.8173 51.8807 61.9727L12.6948 62.0002C11.038 62.0002 9.53798 61.3287 8.45219 60.2429C7.38315 59.1738 6.71565 57.7033 6.69531 56.0768L9.38223 23.502C9.5118 21.9471 10.2265 20.5717 11.2988 19.5849C12.3712 18.5982 13.8012 18.0002 15.3615 18.0002H48.6394Z" stroke="black" stroke-width="3.6125"/>
<path d="M19.999 16.0005V12.0005C19.999 7.58221 23.5807 4.00049 27.999 4.00049H35.999C40.4173 4.00049 43.999 7.58221 43.999 12.0005V16.0005" stroke="black" stroke-width="3.6125"/>
<path d="M7.99902 50.0002L9.65588 51.6571C11.1562 53.1574 13.191 54.0002 15.3127 54.0002H48.6853C50.8071 54.0002 52.8419 53.1574 54.3422 51.6571L55.999 50.0002" stroke="black" stroke-width="3.6125" stroke-linecap="square"/>
<path d="M7.99902 32.0002H27.999" stroke="black" stroke-width="3.6125"/>
<path d="M36.001 32H56.001" stroke="black" stroke-width="3.6125"/>
<path d="M32 36C34.2091 36 36 34.2091 36 32C36 29.7909 34.2091 28 32 28C29.7909 28 28 29.7909 28 32C28 34.2091 29.7909 36 32 36Z" stroke="black" stroke-width="3.6125"/>
</svg>
