<?xml version="1.0" encoding="UTF-8"?>
<svg width="122px" height="139px" viewBox="0 0 122 139" version="1.1" xmlns="http://www.w3.org/2000/svg" xmlns:xlink="http://www.w3.org/1999/xlink">
    <title>13-pricetag</title>
    <g id="Page-1" stroke="none" stroke-width="1" fill="none" fill-rule="evenodd">
        <g id="icons" transform="translate(-2314.000000, -755.000000)" fill="#000000" fill-rule="nonzero">
            <g id="13-pricetag" transform="translate(2374.676915, 824.827550) rotate(30.000000) translate(-2374.676915, -824.827550) translate(2338.676915, 765.827550)">
                <path d="M40.5269055,2.10692119 L41.3149107,2.72436508 L69.3149107,27.613254 C70.7788309,28.9145164 71.7058923,30.6991288 71.940891,32.6214767 L72,33.5925285 L72,110 C72,114.102687 68.9116785,117.484057 64.932969,117.946178 L64,118 L8,118 C3.89731329,118 0.515942714,114.911678 0.0538218506,110.932969 L0,110 L0,33.5925285 C0,31.6338692 0.717929912,29.7553429 1.99858596,28.3025643 L2.68508929,27.613254 L30.6850893,2.72436508 C33.4635868,0.254589525 37.5332189,0.0487748963 40.5269055,2.10692119 Z M36,8.70363963 L8,33.5925285 L8,110 L64,110 L64,33.5925285 L36,8.70363963 Z M36,30 C42.627417,30 48,35.372583 48,42 C48,48.627417 42.627417,54 36,54 C29.372583,54 24,48.627417 24,42 C24,35.372583 29.372583,30 36,30 Z M36,38 C33.790861,38 32,39.790861 32,42 C32,44.209139 33.790861,46 36,46 C38.209139,46 40,44.209139 40,42 C40,39.790861 38.209139,38 36,38 Z" id="Combined-Shape"></path>
            </g>
        </g>
    </g>
</svg>