<?xml version="1.0" encoding="UTF-8"?>
<svg width="98px" height="120px" viewBox="0 0 98 120" version="1.1" xmlns="http://www.w3.org/2000/svg" xmlns:xlink="http://www.w3.org/1999/xlink">
    <title>14-watch</title>
    <g id="Page-1" stroke="none" stroke-width="1" fill="none" fill-rule="evenodd">
        <g id="icons" transform="translate(-2324.000000, -1156.000000)" fill="#000000" fill-rule="nonzero">
            <g id="14-watch" transform="translate(2324.000000, 1156.000000)">
                <path d="M67.7114477,97.0708178 C60.8685217,101.456823 52.7312563,104 44,104 C35.2687437,104 27.1314783,101.456823 20.2885523,97.0708178 L22.5835289,108.556462 L22.7560224,109.243023 C23.2674581,110.814379 24.7017518,111.909561 26.351183,111.994662 L26.5584312,112 L61.2076825,112.006844 L61.9147396,111.972345 C63.5558813,111.77901 64.9110844,110.587352 65.318265,108.985379 L65.364177,108.783038 L67.7114477,97.0708178 Z M44,40 C45.9636791,40 47.596867,41.4150013 47.9355546,43.2809949 L48,44 L48,58.344 L54.8284271,65.1715729 C56.2169579,66.5601037 56.3712391,68.7154989 55.2912707,70.274444 L54.8284271,70.8284271 C53.4398963,72.2169579 51.2845011,72.3712391 49.725556,71.2912707 L49.1715729,70.8284271 L40,61.6568542 L40,44 C40,41.790861 41.790861,40 44,40 Z M87.996,60.473 L87.995,60.572 L87.995,60.609 L87.9949576,60.6714226 L87.9949576,60.6714226 L87.9915354,60.8718044 L87.9915354,60.8718044 C87.9883577,61.0326593 87.9843429,61.1936397 87.9794604,61.3544708 C87.9771959,61.432306 87.9746444,61.5099704 87.9718918,61.5875837 C87.967398,61.7104718 87.9625079,61.8334748 87.9571105,61.9563861 C87.9377819,62.4020663 87.9116641,62.8458283 87.8790183,63.2877745 C88.9184972,62.5663876 89.6,61.3627806 89.6,60 C89.6,58.637544 88.9188217,57.4341856 87.8784512,56.711911 L87.8846441,56.7892992 C87.9438982,57.6109474 87.9805908,58.4388463 87.9941053,59.2723795 L88,60 L87.998,60.238 L87.996,60.473 Z M0.002,59.563 L0.002,59.697 L0.003,59.526 L0.002,59.54 L0.0039670253,59.4044353 L0.00513694175,59.3223181 L0.00513694175,59.3223181 L0.00846461891,59.1281956 L0.00846461891,59.1281956 C0.0116511041,58.9669542 0.0156688306,58.8059138 0.020554989,58.6450227 C0.0233092323,58.5509879 0.0264619004,58.4566414 0.0299111415,58.3623706 C0.0339807877,58.2550283 0.0382969217,58.1480686 0.0429965959,58.0411783 C0.0710118631,57.3976359 0.113045761,56.7574461 0.168623576,56.121138 C0.178744725,56.0117249 0.188787412,55.9017508 0.199237129,55.7918638 C0.214024764,55.6295645 0.230274113,55.4678313 0.247396896,55.3063588 C0.254366447,55.2474971 0.260766181,55.1883986 0.267283753,55.1293265 C0.279307481,55.0133037 0.292549081,54.8972988 0.306240902,54.7814319 C0.317072915,54.6968968 0.327267675,54.6128539 0.337701086,54.5288667 C0.738509761,51.2898454 1.49242539,48.1594496 2.55900219,45.1777598 L2.63774686,44.9615846 L2.63774686,44.9615846 C2.67921693,44.8454233 2.72170529,44.7301112 2.76466164,44.6150272 C2.80674223,44.5040801 2.8487283,44.3929091 2.89116265,44.2819226 C2.90777618,44.2368845 2.92515374,44.1916869 2.94260366,44.1465253 L2.99694088,44.0080228 L3.10852276,43.7248742 L3.10852276,43.7248742 C3.19845038,43.4979166 3.2907021,43.2718688 3.38477057,43.0467694 C3.40465773,42.9998951 3.42463401,42.9522992 3.44469401,42.90474 C3.49115287,42.7940107 3.53805557,42.6841426 3.58539134,42.5745053 C3.61638604,42.5031175 3.647669,42.431149 3.67914459,42.3592672 C3.72112724,42.2631321 3.76333061,42.1677397 3.80586237,42.0725261 C3.96080691,41.7256 4.12058138,41.3799082 4.28484089,41.036361 C4.29714773,41.011008 4.30913332,40.9860136 4.3211418,40.9610323 C4.69821916,40.1758034 5.09917679,39.4014207 5.52311952,38.6392588 C5.54703302,38.5973664 5.57050679,38.5553367 5.59404742,38.5133495 C6.1274956,37.5606014 6.69748826,36.6272196 7.30249698,35.7149541 C7.32285112,35.6852479 7.34305719,35.6548567 7.36330001,35.6244921 C8.08126942,34.5467415 8.84846087,33.4991453 9.66296579,32.48427 C9.73463108,32.3950892 9.80672166,32.3059545 9.87915234,32.2171081 C9.94973458,32.1304722 10.0206457,32.0441766 10.0919027,31.9581256 C10.1432633,31.8961138 10.1949575,31.8340222 10.2468191,31.7720755 L10.362199,31.6348516 L10.362199,31.6348516 L10.394,31.596 L14.7914631,9.64660638 C15.8183581,4.51213136 20.0320309,0.694524042 25.12529,0.0852290453 L25.4258906,0.0531028975 L26.5584312,0 L61.4415688,0 C67.0595951,0 71.9105732,3.89460649 73.1445479,9.34628556 L73.2082513,9.64518002 L77.6046866,31.5956411 C78.0019607,32.0651751 78.3895717,32.5431469 78.7672127,33.0292494 C78.8623796,33.151439 78.9570245,33.2745659 79.0509868,33.398147 C79.0917395,33.4521386 79.1328036,33.5064206 79.1737446,33.5608006 C79.656061,34.2008522 80.1196698,34.8527072 80.5646863,35.5158687 C80.6146865,35.5913355 80.6650194,35.6668564 80.7151246,35.7425412 C81.313902,36.6458825 81.8778618,37.5701594 82.4065414,38.5132959 C82.4378561,38.5702528 82.4696368,38.6272342 82.5012944,38.6842934 C82.5707273,38.8083834 82.6390623,38.9329998 82.7067843,39.0579361 C82.7299882,39.1017485 82.7534612,39.145217 82.776863,39.1887294 C82.9398556,39.4908723 83.0991257,39.7956304 83.254771,40.1021953 C83.3107295,40.2131066 83.3667675,40.3246128 83.422344,40.4363888 C83.7070098,41.0085484 83.9785674,41.586328 84.2373956,42.1698885 L84.3377765,42.397622 L84.3377765,42.397622 C84.3880957,42.5131795 84.43792,42.6286194 84.4872481,42.7442787 C84.529437,42.8425865 84.5712576,42.9415904 84.6127253,43.0407785 C84.6473685,43.124436 84.6818867,43.2077775 84.7161484,43.2912296 C84.7665087,43.4129083 84.8161479,43.5353126 84.8652508,43.6579895 C84.8939894,43.7309954 84.9228254,43.8036499 84.951468,43.8763855 C84.9986257,43.9947459 85.0449634,44.1138676 85.0907959,44.2332398 L85.1747549,44.4554307 L85.1747549,44.4554307 C85.6159299,45.6216592 86.0084756,46.8120536 86.3504271,48.0236681 C92.6282553,48.410422 97.6,53.6246044 97.6,60 C97.6,66.2375689 92.8408953,71.3635894 86.7556801,71.9450674 L86.3538205,71.9643018 C86.0805565,72.9336019 85.774914,73.8893292 85.4381346,74.8302421 C85.4204821,74.8772998 85.4034711,74.9245987 85.3863794,74.9718655 C85.3384915,75.1063944 85.289286,75.2403279 85.2394496,75.373954 C85.2188551,75.4273405 85.1986096,75.4813343 85.1782584,75.5352849 C85.1278268,75.6706335 85.0763996,75.8048619 85.0243356,75.9387724 C85.0098828,75.9745211 84.9958262,76.0105565 84.9817223,76.0465722 L84.968,76.078 L84.926,76.185 L84.908,76.231 L84.8957008,76.2655581 C84.8667784,76.3383823 84.8376226,76.4110542 84.8082788,76.4836299 L84.846,76.386 L84.7837229,76.5432142 C84.7167196,76.7083355 84.6487142,76.8730281 84.5797109,77.0372838 C84.5337056,77.1474135 84.4873076,77.2565418 84.4404826,77.3654431 C84.3973656,77.4653011 84.353803,77.5656388 84.3098662,77.6658079 C84.2784401,77.7377132 84.2468853,77.8090905 84.2151465,77.8803678 C84.0781237,78.1880854 83.9375102,78.4944612 83.7933772,78.7991667 C83.7584261,78.8727205 83.7235591,78.9458682 83.6884964,79.0189042 C83.3072751,79.813752 82.90192,80.5969283 82.4730599,81.3676047 C82.4591482,81.3915115 82.4457821,81.4154731 82.4323942,81.439421 C81.2395664,83.5746145 79.8656037,85.61325 78.3219814,87.5344719 C78.2797697,87.5868933 78.237484,87.6392897 78.1950807,87.6915868 C78.1158348,87.7893913 78.0364432,87.8864385 77.9566153,87.9831779 C77.8934267,88.0597367 77.8297381,88.1364041 77.7657947,88.2128511 L77.64511,88.3564864 L77.64511,88.3564864 L77.601,88.408 L73.2085369,110.353394 C72.2806727,114.992714 68.734375,118.595508 64.0628519,119.686198 L63.7497664,119.755173 L62.6166122,119.938031 L61.4415688,120 L26.5584312,120 C21.4521951,120 16.9317265,116.772435 15.1841813,111.794246 L15.0826736,111.493465 L14.7915674,110.353915 L10.3953134,88.4043589 C10.0976704,88.0525778 9.80545147,87.6960605 9.51878572,87.3349359 C9.32100843,87.0860303 9.1262062,86.8351835 8.93425761,86.5824396 L8.81651083,86.4262512 L8.81651083,86.4262512 C8.32422417,85.7724596 7.8516074,85.106612 7.39837585,84.4290023 L7.29806352,84.277368 L7.29806352,84.277368 C7.21444454,84.1522188 7.13197409,84.0264139 7.05016777,83.9002149 C7.01853708,83.850356 6.9865815,83.8008363 6.95472277,83.7512484 L6.93328262,83.7189287 C6.46578472,82.9899295 6.0203568,82.2479389 5.59748349,81.4938866 C5.55472354,81.4165439 5.51168241,81.3392626 5.46886787,81.2618385 C5.41467721,81.1648971 5.36136209,81.0675928 5.30842044,80.9700933 L5.18093662,80.7326135 L5.18093662,80.7326135 C4.99352128,80.3833147 4.81128255,80.0313118 4.63387011,79.6769263 C4.48738741,79.3837738 4.34388346,79.0890334 4.20359678,78.7924737 C4.05249369,78.4731749 3.905686,78.1526997 3.76275971,77.8304617 C3.72404957,77.743446 3.68537034,77.6555145 3.64697106,77.567433 C3.60533917,77.4715168 3.5642027,77.3761716 3.52340457,77.2806767 C3.47962138,77.1787948 3.43618133,77.0760959 3.39312098,76.9731986 C3.34798392,76.8645377 3.30317973,76.7561826 3.2588091,76.6476412 C3.22278223,76.5605164 3.18722893,76.4727887 3.15195093,76.3849209 C3.11136,76.2826225 3.07091202,76.1807034 3.03084485,76.0786249 C2.98954832,75.9748313 2.94899071,75.8703933 2.90882122,75.7657629 C2.86884367,75.6599887 2.82870877,75.5541548 2.7889815,75.4481553 C1.52150701,72.0702066 0.658137616,68.4951763 0.256815998,64.7816247 L0.22668544,64.4873686 L0.22668544,64.4873686 C0.213988537,64.3686605 0.20242546,64.2497031 0.191337034,64.1306079 C0.181602838,64.0198994 0.17170171,63.9092946 0.162213181,63.798604 C0.152424024,63.6902841 0.143533529,63.5815981 0.135038751,63.472801 C0.128212062,63.3797474 0.121227437,63.2867537 0.114534023,63.193702 C0.0384783682,62.1389757 0,61.0739814 0,60 L0.002,59.697 L0.001,59.761 L0.002,59.563 Z M15.7100496,37.7329743 L15.655,37.802 L15.65,37.809 L15.607,37.864 L15.4891862,38.0168314 L15.4891862,38.0168314 L15.5334663,37.9587038 L15.3657056,38.1766163 L15.3657056,38.1766163 L15.246,38.333 L15.3339749,38.2193072 L15.1638282,38.4447185 L15.1638282,38.4447185 L15.112,38.513 L15.065,38.576 L15.0552231,38.589174 L15.0552231,38.589174 L14.985,38.684 L14.9954127,38.671501 C13.0471831,41.3164585 11.4520727,44.2375247 10.2796311,47.3651499 L10.0348884,48.0384916 C9.79724392,48.7133026 9.57914062,49.3973254 9.38125788,50.0898807 L9.35142546,50.192797 L9.35142546,50.192797 L9.349,50.199 L9.352,50.192 L9.22574229,50.6514583 C9.1753802,50.8392612 9.12649898,51.0276702 9.07911192,51.2166718 L8.94144646,51.7854416 C8.8581464,52.1423487 8.78015578,52.5012965 8.7075624,52.8621974 C8.64527004,53.1716792 8.58706597,53.4824231 8.53291514,53.7942632 C8.48198798,54.0871824 8.4346667,54.3810964 8.39092603,54.6761778 L8.376,54.772 L8.375,54.781 L8.355,54.923 L8.352,54.944 L8.349,54.967 L8.32708065,55.1274315 L8.32708065,55.1274315 L8.327,55.129 L8.322,55.164 L8.318,55.193 L8.315,55.217 L8.29303908,55.3861255 L8.29303908,55.3861255 L8.283,55.465 L8.27750283,55.5081799 L8.27750283,55.5081799 L8.261,55.637 L8.255,55.689 L8.257,55.678 L8.255,55.693 L8.24727215,55.7581855 L8.243,55.791 L8.224,55.956 L8.224,55.962 L8.22,55.989 L8.22,55.993 L8.21571264,56.0363758 L8.21571264,56.0363758 L8.206,56.121 L8.18982049,56.2817804 L8.18982049,56.2817804 L8.189,56.286 L8.18627102,56.315203 L8.167,56.508 L8.16,56.581 L8.15590382,56.627343 L8.15590382,56.627343 L8.148,56.711 L8.144,56.758 L8.141,56.789 L8.142,56.786 L8.137,56.838 L8.137,56.843 L8.129,56.93 L8.12819991,56.9402557 L8.124,56.986 L8.118,57.066 L8.11475104,57.105935 L8.11475104,57.105935 L8.114,57.106 L8.112,57.137 L8.108,57.182 L8.107,57.196 L8.096,57.346 L8.096,57.349 L8.092,57.398 L8.092,57.403 L8.09063877,57.4254996 L8.08990432,57.4373178 L8.08990432,57.4373178 L8.087,57.465 L8.08,57.582 L8.078,57.613 L8.077,57.622 L8.076,57.642 L8.072,57.701 L8.06489486,57.8204303 L8.06489486,57.8204303 L8.06806662,57.7693112 L8.059,57.922 L8.05380771,58.0161269 L8.05380771,58.0161269 L8.052,58.041 L8.054,58.017 L8.044,58.201 L8.043,58.215 L8.04168297,58.2522242 L8.04168297,58.2522242 L8.04,58.278 L8.034,58.42 L8.033,58.44 L8.031,58.503 L8.031,58.505 L8.03,58.505 L8.029,58.536 L8.025,58.645 L8.019,58.8 L8.01930738,58.8106451 L8.01930738,58.8106451 L8.02355836,58.6853514 C8.01876644,58.8188447 8.01470137,58.9525232 8.01136698,59.0863831 C8.00380286,59.3904571 8,59.6949268 8,60 L8.0028486,60.4571505 L8.0028486,60.4571505 L8.01138021,60.9133552 L8.01693711,61.1140411 L8.01693711,61.1140411 L8.017,61.152 L8.019,61.211 L8.02,61.231 L8.02359121,61.3145321 L8.02359121,61.3145321 L8.023,61.319 L8.025,61.354 L8.025,61.369 L8.028,61.441 L8.031,61.509 L8.034,61.579 L8.035,61.604 L8.037,61.647 L8.043,61.771 L8.052,61.956 L8.05363981,61.9807821 L8.05363981,61.9807821 L8.053,61.983 L8.06,62.098 L8.07100102,62.2781417 L8.07100102,62.2781417 L8.072,62.298 L8.076,62.357 L8.078,62.389 L8.079,62.4 L8.086,62.51 L8.088,62.544 L8.094,62.623 L8.098,62.677 L8.1064856,62.7896676 L8.1064856,62.7896676 L8.107,62.802 L8.10875297,62.8176782 L8.10875297,62.8176782 L8.112,62.862 L8.12,62.962 L8.124,63.013 L8.12834027,63.0599988 L8.129,63.069 L8.13119002,63.0950643 L8.13119002,63.0950643 L8.136,63.155 L8.14,63.193 L8.144,63.245 L8.148,63.287 L8.152,63.333 L8.152,63.334 L8.165,63.472 L8.17,63.526 L8.17877124,63.6089168 L8.181,63.635 L8.182,63.648 L8.18341553,63.6566008 L8.198,63.798 L8.208,63.896 L8.211,63.925 L8.212,63.93 L8.228,64.077 L8.234,64.13 L8.244,64.215 L8.24743808,64.2420503 L8.24760693,64.2446656 L8.248,64.251 L8.255,64.309 L8.26,64.348 L8.27654978,64.4830653 L8.27654978,64.4830653 L8.277,64.487 L8.283,64.534 L8.293,64.616 L8.312,64.763 L8.31766182,64.8033808 L8.31766182,64.8033808 L8.328,64.881 L8.346,65.016 L8.34872715,65.0308325 L8.352,65.055 L8.43605182,65.6197458 C8.46674248,65.8155313 8.49901111,66.0107934 8.53284429,66.2055186 C8.57832769,66.4672555 8.6265909,66.7280033 8.67768483,66.9879421 L8.79002979,67.5360776 L8.89950421,68.0338112 C8.91189267,68.0882115 8.9244061,68.1425734 8.93704429,68.1968966 C9.05522409,68.7032134 9.18390451,69.2057898 9.32303345,69.7040066 C9.52540478,70.4286926 9.74988248,71.1441546 9.99569383,71.84962 C11.1636767,75.201668 12.8133123,78.3280193 14.8617047,81.1457778 L15.0300601,81.3754577 L15.0300601,81.3754577 L15.164,81.555 L15.117,81.493 L15.163264,81.5557816 L15.163264,81.5557816 L15.243,81.661 L15.2001823,81.6037524 L15.3661439,81.8229015 L15.3661439,81.8229015 L15.489,81.983 L15.3334012,81.7810258 C15.436522,81.9164452 15.5406474,82.0512014 15.6457723,82.1852843 L15.5337348,82.0407404 L15.710337,82.2666402 L15.710337,82.2666402 L15.823,82.409 L15.709,82.266 L15.8229048,82.4093854 L15.8229048,82.4093854 L15.914,82.524 L15.888693,82.4910931 L16.0514942,82.6928265 L16.0514942,82.6928265 L16.167,82.834 L16.05,82.692 L16.1669495,82.8345332 L16.1669495,82.8345332 L16.178,82.848 L16.291,82.985 L16.3,82.995 L16.3335422,83.0357746 L16.3335422,83.0357746 L16.386956,83.0993903 L16.386956,83.0993903 L16.522,83.26 L16.594,83.345 L16.7138274,83.4843784 L16.7138274,83.4843784 L16.622,83.377 L16.8870551,83.6838426 C23.4860774,91.2321023 33.1862376,96 44,96 C55.3184824,96 65.4169844,90.7766433 72.0164813,82.6089549 C72.2488117,82.3214175 72.4768056,82.030231 72.7003636,81.735495 C75.9284942,77.4795694 78.2317086,72.4835271 79.3106308,67.0467441 C79.3488846,66.8542113 79.3854627,66.6614837 79.4204831,66.4683268 L79.5173921,65.9090218 L79.5173921,65.9090218 L79.6056523,65.346854 L79.6478173,65.0554825 L79.6478173,65.0554825 L79.671,64.881 L79.692,64.723 L79.706,64.616 L79.72,64.507 L79.723,64.483 L79.739,64.348 L79.744,64.309 L79.7515522,64.2518181 L79.7515522,64.2518181 L79.752,64.244 L79.752,64.242 L79.755,64.215 L79.765,64.13 L79.771,64.077 L79.783,63.964 L79.787882,63.9306617 L79.787882,63.9306617 L79.788,63.925 L79.789,63.912 L79.7914423,63.8964601 L79.7914423,63.8964601 L79.801,63.798 L79.816,63.656 L79.8172943,63.6482259 L79.818,63.635 L79.8213885,63.6086578 L79.829,63.526 L79.834,63.472 L79.847162,63.339494 L79.847162,63.339494 L79.847,63.334 L79.851,63.287 L79.855,63.245 L79.859,63.193 L79.8686896,63.0950728 L79.8686896,63.0950728 L79.870956,63.069757 L79.870956,63.069757 L79.871,63.059 L79.875,63.013 L79.879,62.962 L79.887,62.862 L79.891,62.817 L79.8925004,62.8028671 L79.8925004,62.8028671 L79.8933815,62.78999 L79.901,62.677 L79.905,62.623 L79.909,62.575 L79.9113614,62.5446381 L79.9113614,62.5446381 L79.9121006,62.5354326 L79.912,62.534 L79.914,62.51 L79.921,62.389 L79.923,62.357 L79.9492079,61.9288787 C79.9599059,61.7262453 79.9689283,61.5231677 79.9762614,61.3196594 L79.976,61.314 L79.979,61.231 L79.9829314,61.1192753 L79.9829314,61.1192753 L79.984,61.045 L79.9955375,60.5721247 C79.9985102,60.3816617 80,60.1909491 80,60 L79.997118,59.540177 L79.997118,59.540177 L79.9884864,59.081311 L79.9829038,58.8807436 L79.9829038,58.8807436 L79.98,58.81 L79.98,58.8 L79.976,58.685 L79.979,58.786 L79.9595629,58.2784866 C79.9504933,58.0858425 79.9399095,57.8935946 79.9278232,57.7017545 L79.923,57.634 L79.922,57.622 L79.9200342,57.5825359 L79.9200342,57.5825359 L79.911,57.465 L79.9119587,57.4639244 L79.909,57.437 L79.908,57.425 L79.907,57.403 L79.907,57.398 L79.903,57.349 L79.899,57.297 L79.8923687,57.1968356 L79.8923687,57.1968356 L79.891,57.182 L79.887,57.137 L79.8853969,57.1063777 L79.8853969,57.1063777 L79.875,56.986 L79.871,56.94 L79.8635316,56.8435646 L79.8635316,56.8435646 L79.855,56.758 L79.851,56.711 L79.843,56.627 L79.842,56.615 L79.8397876,56.5812893 L79.8397876,56.5812893 L79.838,56.571 L79.832,56.508 L79.813,56.315 L79.81,56.286 L79.796,56.153 L79.7789588,55.9892652 L79.7789588,55.9892652 L79.756,55.791 L79.752,55.758 L79.7492888,55.7289893 L79.7492888,55.7289893 L79.745,55.693 L79.744,55.689 L79.7431622,55.6786208 L79.727,55.548 L79.696,55.306 L79.69,55.258 L79.6874836,55.2363399 L79.6874836,55.2363399 L79.684,55.217 L79.681,55.193 L79.677,55.164 L79.672,55.129 L79.672,55.127 L79.65,54.967 L79.647689,54.9444395 L79.647689,54.9444395 L79.641,54.905 L79.636,54.869 L79.623,54.781 L79.622,54.772 L79.608,54.676 L79.605,54.654 L79.6055465,54.6531225 L79.604,54.649 L79.596,54.592 L79.586,54.528 L79.566,54.396 L79.5640101,54.3811865 L79.5640101,54.3811865 L79.5454225,54.2633329 L79.54,54.234 L79.526,54.147 L79.4658963,53.7872373 C79.4383506,53.6288915 79.4097702,53.4709009 79.3801625,53.3132726 C79.321682,53.0015681 79.2590887,52.6908833 79.1924643,52.3814011 C77.9890585,46.7966803 75.4900082,41.6934162 72.0254175,37.4021093 C72.0227476,37.3982625 72.0197872,37.3945992 72.0168261,37.3909364 L72.02,37.396 L71.7085256,37.0151053 C65.1050802,29.0634207 55.1438527,24 44,24 C33.0914623,24 23.3161323,28.8518387 16.7142632,36.5152629 C16.6620926,36.57566 16.6105686,36.6358502 16.559256,36.6961911 L16.523,36.738 L16.3864422,36.9009349 L16.3864422,36.9009349 L16.222,37.098 L16.2152465,37.1068209 L16.2152465,37.1068209 L16.1673879,37.1653481 L16.1673879,37.1653481 L16.051,37.307 L16.0022174,37.3679227 L15.979,37.396 L15.974,37.402 L15.83,37.582 L15.8885161,37.5085191 L15.8231364,37.5909828 L15.8231364,37.5909828 L15.7100496,37.7329743 L15.7100496,37.7329743 Z M61.4415688,8 L26.5584312,8 C24.7198044,8 23.1276473,9.25142397 22.6808852,11.0177202 L22.6360042,11.2160567 L20.292534,22.9266304 C27.1346347,18.5421906 35.2704371,16 44,16 C52.7308329,16 60.8677326,18.5429303 67.7104523,22.9285442 L65.3638915,11.2155355 C64.9899521,9.34583867 63.3482929,8 61.4415688,8 Z" id="Combined-Shape"></path>
            </g>
        </g>
    </g>
</svg>