<svg width="64" height="64" viewBox="0 0 64 64" fill="none" xmlns="http://www.w3.org/2000/svg">
<g clip-path="url(#clip0_230_24906)">
<path d="M32 61.9995C48.5685 61.9995 62 48.568 62 31.9995C62 15.431 48.5685 1.99951 32 1.99951C15.4315 1.99951 2 15.431 2 31.9995C2 48.568 15.4315 61.9995 32 61.9995Z" stroke="black" stroke-width="3.6125"/>
<path d="M31.9985 53.999C44.1488 53.999 53.9985 44.1493 53.9985 31.999C53.9985 19.8488 44.1488 9.99902 31.9985 9.99902C19.8483 9.99902 9.99854 19.8488 9.99854 31.999C9.99854 44.1493 19.8483 53.999 31.9985 53.999Z" stroke="black" stroke-width="3.6125"/>
<path d="M25.5024 29.4995C27.7116 29.4995 29.5024 27.7086 29.5024 25.4995C29.5024 23.2904 27.7116 21.4995 25.5024 21.4995C23.2933 21.4995 21.5024 23.2904 21.5024 25.4995C21.5024 27.7086 23.2933 29.4995 25.5024 29.4995Z" stroke="black" stroke-width="3.6125"/>
<path d="M38.501 29.4995C40.7101 29.4995 42.501 27.7086 42.501 25.4995C42.501 23.2904 40.7101 21.4995 38.501 21.4995C36.2918 21.4995 34.501 23.2904 34.501 25.4995C34.501 27.7086 36.2918 29.4995 38.501 29.4995Z" stroke="black" stroke-width="3.6125"/>
<path d="M25.5024 42.4993C27.7116 42.4993 29.5024 40.7084 29.5024 38.4993C29.5024 36.2901 27.7116 34.4993 25.5024 34.4993C23.2933 34.4993 21.5024 36.2901 21.5024 38.4993C21.5024 40.7084 23.2933 42.4993 25.5024 42.4993Z" stroke="black" stroke-width="3.6125"/>
<path d="M38.501 42.499C40.7101 42.499 42.501 40.7082 42.501 38.499C42.501 36.2899 40.7101 34.499 38.501 34.499C36.2918 34.499 34.501 36.2899 34.501 38.499C34.501 40.7082 36.2918 42.499 38.501 42.499Z" stroke="black" stroke-width="3.6125"/>
</g>
<defs>
<clipPath id="clip0_230_24906">
<rect width="64" height="64" fill="white"/>
</clipPath>
</defs>
</svg>
