<?xml version="1.0" encoding="UTF-8"?>
<svg width="128px" height="108px" viewBox="0 0 128 108" version="1.1" xmlns="http://www.w3.org/2000/svg" xmlns:xlink="http://www.w3.org/1999/xlink">
    <title>15-movie</title>
    <g id="Page-1" stroke="none" stroke-width="1" fill="none" fill-rule="evenodd">
        <g id="icons" transform="translate(-1152.000000, -392.000000)" fill="#000000" fill-rule="nonzero">
            <g id="15-movie" transform="translate(1152.000000, 392.000000)">
                <path d="M116,0 C122.237569,0 127.363589,4.75910467 127.945067,10.8443199 L128,12 L128,100 C128,104.418278 124.418278,108 120,108 L8,108 C3.581722,108 0,104.418278 0,100 L0,12 C0,5.76243106 4.75910467,0.636410575 10.8443199,0.0549326245 L12,0 L116,0 Z M120,28 L8,28 L8,100 L120,100 L120,28 Z M64,36 C79.463973,36 92,48.536027 92,64 C92,79.463973 79.463973,92 64,92 C48.536027,92 36,79.463973 36,64 C36,48.536027 48.536027,36 64,36 Z M64,44 C52.954305,44 44,52.954305 44,64 C44,75.045695 52.954305,84 64,84 C75.045695,84 84,75.045695 84,64 C84,52.954305 75.045695,44 64,44 Z M59.2,53.2 C59.4596443,53.2 59.7122846,53.2842134 59.92,53.44 L72.72,63.04 C73.2501934,63.437645 73.357645,64.1898066 72.96,64.72 C72.8917749,64.8109668 72.8109668,64.8917749 72.72,64.96 L59.92,74.56 C59.3898066,74.957645 58.637645,74.8501934 58.24,74.32 C58.0842134,74.1122846 58,73.8596443 58,73.6 L58,54.4 C58,53.7372583 58.5372583,53.2 59.2,53.2 Z M14.7,8 L12,8 C10.0363209,8 8.40313304,9.41500128 8.06444536,11.2809949 L8,12 L8,20 L10.333,20 L14.7,8 Z M30.374,8 L23.213,8 L18.845,20 L26.006,20 L30.374,8 Z M46.048,8 L38.887,8 L34.519,20 L41.68,20 L46.048,8 Z M61.722,8 L54.561,8 L50.193,20 L57.354,20 L61.722,8 Z M77.395,8 L70.235,8 L65.867,20 L73.028,20 L77.395,8 Z M93.069,8 L85.909,8 L81.541,20 L88.702,20 L93.069,8 Z M108.743,8 L101.583,8 L97.215,20 L104.376,20 L108.743,8 Z M117.191918,8.18059213 L112.889,20 L120,20 L120,12 C120,10.2059716 118.818933,8.68779607 117.191918,8.18059213 Z" id="Combined-Shape"></path>
            </g>
        </g>
    </g>
</svg>