<svg width="64" height="64" viewBox="0 0 64 64" fill="none" xmlns="http://www.w3.org/2000/svg">
<g clip-path="url(#clip0_230_24914)">
<path d="M61.998 47.9995H1.99805V59.9995H61.998V47.9995Z" stroke="black" stroke-width="3.6125"/>
<path fill-rule="evenodd" clip-rule="evenodd" d="M58.0024 11.9995V47.9995H36.0024V23.9995H22.0024V31.9995H6.00244V11.9995H58.0024Z" stroke="black" stroke-width="3.6125"/>
<path d="M46.999 31.9995C49.2082 31.9995 50.999 30.2086 50.999 27.9995C50.999 25.7904 49.2082 23.9995 46.999 23.9995C44.7899 23.9995 42.999 25.7904 42.999 27.9995C42.999 30.2086 44.7899 31.9995 46.999 31.9995Z" stroke="black" stroke-width="3.6125"/>
<path d="M13.9971 32C14.9789 32 15.7955 32.7075 15.9648 33.6405L15.9971 34V38C15.9971 39.1046 15.1016 40 13.9971 40C13.0152 40 12.1986 39.2925 12.0293 38.3595L11.9971 38V34C11.9971 32.8954 12.8925 32 13.9971 32Z" fill="black"/>
<path d="M41.999 -0.000488281C42.9809 -0.000488281 43.7975 0.707012 43.9668 1.64001L43.999 1.99951V11.9995C43.999 13.1041 43.1036 13.9995 41.999 13.9995C41.0172 13.9995 40.2006 13.292 40.0312 12.359L39.999 11.9995V1.99951C39.999 0.894942 40.8945 -0.000488281 41.999 -0.000488281Z" fill="black"/>
<path d="M49.998 3.99951C50.9799 3.99951 51.7965 4.70701 51.9658 5.64001L51.998 5.99951V11.9995C51.998 13.1041 51.1026 13.9995 49.998 13.9995C49.0162 13.9995 48.1996 13.292 48.0303 12.359L47.998 11.9995V5.99951C47.998 4.89494 48.8935 3.99951 49.998 3.99951Z" fill="black"/>
</g>
<defs>
<clipPath id="clip0_230_24914">
<rect width="64" height="64" fill="white"/>
</clipPath>
</defs>
</svg>
