<?xml version="1.0" encoding="UTF-8"?>
<svg width="128px" height="104px" viewBox="0 0 128 104" version="1.1" xmlns="http://www.w3.org/2000/svg" xmlns:xlink="http://www.w3.org/1999/xlink">
    <title>16-video</title>
    <g id="Page-1" stroke="none" stroke-width="1" fill="none" fill-rule="evenodd">
        <g id="icons" transform="translate(-1152.000000, -784.000000)" fill="#000000" fill-rule="nonzero">
            <g id="16-video" transform="translate(1152.000000, 784.000000)">
                <path d="M96,96 L96,104 L32,104 L32,96 L96,96 Z M120,0 C124.418278,0 128,3.581722 128,8 L128,80 C128,84.418278 124.418278,88 120,88 L8,88 C3.581722,88 0,84.418278 0,80 L0,8 C0,3.581722 3.581722,0 8,0 L120,0 Z M120,8 L8,8 L8,80 L120,80 L120,8 Z M53.2,29.0422205 C53.43691,29.0422205 53.6685192,29.1123461 53.8656402,29.2437602 L74.5023095,43.0015396 C75.0537439,43.3691626 75.2027525,44.1142058 74.8351296,44.6656402 C74.7472478,44.797463 74.6341322,44.9105785 74.5023095,44.9984604 L53.8656402,58.7562398 C53.3142058,59.1238628 52.5691626,58.9748542 52.2015396,58.4234197 C52.0701256,58.2262987 52,57.9946895 52,57.7577795 L52,30.2422205 C52,29.5794788 52.5372583,29.0422205 53.2,29.0422205 Z" id="Combined-Shape"></path>
            </g>
        </g>
    </g>
</svg>