<?xml version="1.0" encoding="UTF-8"?>
<svg width="101px" height="130px" viewBox="0 0 101 130" version="1.1" xmlns="http://www.w3.org/2000/svg" xmlns:xlink="http://www.w3.org/1999/xlink">
    <title>17-mic</title>
    <g id="Page-1" stroke="none" stroke-width="1" fill="none" fill-rule="evenodd">
        <g id="icons" transform="translate(-1170.000000, -1152.000000)" fill="#000000" fill-rule="nonzero">
            <g id="17-mic" transform="translate(1220.052559, 1216.693575) rotate(30.000000) translate(-1220.052559, -1216.693575) translate(1198.052559, 1154.693575)">
                <path d="M22,-1.36424205e-12 C34.1502645,-1.36424205e-12 44,12.536027 44,28 C44,35.49386 41.6869045,42.3001261 37.9198355,47.3253704 L36.3498907,110.004373 C36.1552528,117.789888 29.7879478,124 22,124 C14.2120522,124 7.8447472,117.789888 7.65010932,110.004373 L6.08630442,47.3335577 C2.31560902,42.30752 0,35.4979306 0,28 C0,12.536027 9.8497355,-1.36424205e-12 22,-1.36424205e-12 Z M29.8,52 L14.205,52 L15.6476105,109.804435 C15.7337725,113.250916 18.5524422,116 22,116 C25.1602613,116 27.7920819,113.690006 28.2751464,110.650048 L28.352399,109.804057 L29.8,52 Z M22,60 C24.209139,60 26,61.790861 26,64 L26,72 C26,74.209139 24.209139,76 22,76 C19.790861,76 18,74.209139 18,72 L18,64 C18,61.790861 19.790861,60 22,60 Z M35.711623,31.9994271 L8.28842876,31.9997758 C8.7916144,35.4406656 9.93619968,38.604085 11.5879993,41.2271569 L12.485591,42.5326067 L13.587,44 L30.414,44 L31.5186959,42.5268902 C33.652738,39.6800927 35.1222441,36.0300981 35.711623,31.9994271 Z M22,8 C15.6242014,8 9.63739985,14.6395278 8.28430111,23.9991593 L35.7156989,23.9991593 C34.3626001,14.6395278 28.3757986,8 22,8 Z" id="Combined-Shape"></path>
            </g>
        </g>
    </g>
</svg>