<svg width="64" height="64" viewBox="0 0 64 64" fill="none" xmlns="http://www.w3.org/2000/svg">
<g clip-path="url(#clip0_230_25043)">
<path d="M20.5982 2.94884C20.0398 2.53005 19.3035 2.43267 18.6554 2.69189L15.7426 3.85702C12.6624 5.08911 9.83227 6.87185 7.39082 9.11799L3.14058 13.0282C2.8661 13.2807 2.67329 13.5991 2.57343 13.9444C2.48686 14.2437 2.47014 14.5632 2.53061 14.8775L7.09783 24.5297L13.0958 23.0097L9.09695 58.0978L8.7465 62.0001H13.0958L51.4383 61.9642H55.3598L54.8799 57.5628L51.0802 23.0097L59.1001 23.6637L61.4357 15.0219C61.533 14.6618 61.5261 14.2897 61.4262 13.9444C61.3263 13.5991 61.1335 13.2807 60.8591 13.0282L56.6088 9.11799C54.1674 6.87185 51.3373 5.08911 48.257 3.85702L43.4014 2.94884L31.9998 11.5001L20.5982 2.94884Z" stroke="black" stroke-width="3.61"/>
</g>
<defs>
<clipPath id="clip0_230_25043">
<rect width="64" height="64" fill="white"/>
</clipPath>
</defs>
</svg>
