<?xml version="1.0" encoding="UTF-8"?>
<svg width="128px" height="128px" viewBox="0 0 128 128" version="1.1" xmlns="http://www.w3.org/2000/svg" xmlns:xlink="http://www.w3.org/1999/xlink">
    <title>18-tv</title>
    <g id="Page-1" stroke="none" stroke-width="1" fill="none" fill-rule="evenodd">
        <g id="icons" transform="translate(-1152.000000, -1536.000000)" fill="#000000" fill-rule="nonzero">
            <g id="18-tv" transform="translate(1152.000000, 1536.000000)">
                <path d="M89.9425717,0.504099607 C91.811412,1.54234419 92.5233076,3.85647263 91.5949503,5.75490546 L91.4966291,5.94330044 L72.575,40 L120,40.0007287 C124.418278,40.0007287 128,43.5824507 128,48.0007287 L128,120.000729 C128,124.419007 124.418278,128.000729 120,128.000729 L8,128.000729 C3.581722,128.000729 0,124.419007 0,120.000729 L0,48.0007287 C0,43.5824507 3.581722,40.0007287 8,40.0007287 L55.424,40 L36.5033709,5.94330044 C35.4305182,4.01216551 36.1262933,1.57695235 38.0574283,0.504099607 C39.7739927,-0.449547272 41.8888411,-0.00575973945 43.091114,1.46093091 L43.4966291,2.05815699 L63.4966291,38.058157 C63.8366542,38.6702022 63.999024,39.3328811 64.0007154,39.9867745 C64.0009434,39.4146177 64.1252863,38.8357346 64.3841587,38.2899313 L64.5033709,38.058157 L84.5033709,2.05815699 L84.908886,1.46093091 C86.1111589,-0.00575973945 88.2260073,-0.449547272 89.9425717,0.504099607 Z M120,48.0007287 L8,48.0007287 L8,120.000729 L120,120.000729 L120,48.0007287 Z M80,56.0007287 C84.418278,56.0007287 88,59.5824507 88,64.0007287 L88,104.000729 C88,108.419007 84.418278,112.000729 80,112.000729 L24,112.000729 C19.581722,112.000729 16,108.419007 16,104.000729 L16,64.0007287 C16,59.5824507 19.581722,56.0007287 24,56.0007287 L80,56.0007287 Z M80,64.0007287 L24,64.0007287 L24,104.000729 L80,104.000729 L80,64.0007287 Z M108,96.0007287 C110.209139,96.0007287 112,97.7915897 112,100.000729 C112,102.209868 110.209139,104.000729 108,104.000729 L100,104.000729 C97.790861,104.000729 96,102.209868 96,100.000729 C96,97.7915897 97.790861,96.0007287 100,96.0007287 L108,96.0007287 Z M108,80.0007287 C110.209139,80.0007287 112,81.7915897 112,84.0007287 C112,86.2098677 110.209139,88.0007287 108,88.0007287 L100,88.0007287 C97.790861,88.0007287 96,86.2098677 96,84.0007287 C96,81.7915897 97.790861,80.0007287 100,80.0007287 L108,80.0007287 Z M108,64.0007287 C110.209139,64.0007287 112,65.7915897 112,68.0007287 C112,70.2098677 110.209139,72.0007287 108,72.0007287 L100,72.0007287 C97.790861,72.0007287 96,70.2098677 96,68.0007287 C96,65.7915897 97.790861,64.0007287 100,64.0007287 L108,64.0007287 Z" id="Combined-Shape"></path>
            </g>
        </g>
    </g>
</svg>