<?xml version="1.0" encoding="UTF-8"?>
<svg width="128px" height="112px" viewBox="0 0 128 112" version="1.1" xmlns="http://www.w3.org/2000/svg" xmlns:xlink="http://www.w3.org/1999/xlink">
    <title>19-film</title>
    <g id="Page-1" stroke="none" stroke-width="1" fill="none" fill-rule="evenodd">
        <g id="icons" transform="translate(-2304.000000, -392.000000)" fill="#000000" fill-rule="nonzero">
            <g id="19-film" transform="translate(2304.000000, 392.000000)">
                <path d="M56,0 C86.927946,0 112,25.072054 112,56 C112,86.927946 86.927946,112 56,112 C25.072054,112 0,86.927946 0,56 C0,25.072054 25.072054,0 56,0 Z M128,104 L128,112 L80,112 L94,104 L128,104 Z M56,8 C29.490332,8 8,29.490332 8,56 C8,82.509668 29.490332,104 56,104 C82.509668,104 104,82.509668 104,56 C104,29.490332 82.509668,8 56,8 Z M56,80 C57.9636791,80 59.596867,81.4150013 59.9355546,83.2809949 L60,84 L60,92 C60,94.209139 58.209139,96 56,96 C54.0363209,96 52.403133,94.5849987 52.0644454,92.7190051 L52,92 L52,84 C52,81.790861 53.790861,80 56,80 Z M56,40 C64.836556,40 72,47.163444 72,56 C72,64.836556 64.836556,72 56,72 C47.163444,72 40,64.836556 40,56 C40,47.163444 47.163444,40 56,40 Z M56,48 C51.581722,48 48,51.581722 48,56 C48,60.418278 51.581722,64 56,64 C60.418278,64 64,60.418278 64,56 C64,51.581722 60.418278,48 56,48 Z M92,52 C94.209139,52 96,53.790861 96,56 C96,57.9636791 94.5849987,59.596867 92.7190051,59.9355546 L92,60 L84,60 C81.790861,60 80,58.209139 80,56 C80,54.0363209 81.4150013,52.403133 83.2809949,52.0644454 L84,52 L92,52 Z M28,52 C30.209139,52 32,53.790861 32,56 C32,57.9636791 30.5849987,59.596867 28.7190051,59.9355546 L28,60 L20,60 C17.790861,60 16,58.209139 16,56 C16,54.0363209 17.4150013,52.403133 19.2809949,52.0644454 L20,52 L28,52 Z M56,16 C57.9636791,16 59.596867,17.4150013 59.9355546,19.2809949 L60,20 L60,28 C60,30.209139 58.209139,32 56,32 C54.0363209,32 52.403133,30.5849987 52.0644454,28.7190051 L52,28 L52,20 C52,17.790861 53.790861,16 56,16 Z" id="Combined-Shape"></path>
            </g>
        </g>
    </g>
</svg>