<svg width="64" height="64" viewBox="0 0 64 64" fill="none" xmlns="http://www.w3.org/2000/svg">
<path d="M58.0005 16H6.00049C3.79135 16 2.00049 17.7909 2.00049 20V52C2.00049 54.2091 3.79135 56 6.00049 56H58.0005C60.2096 56 62.0005 54.2091 62.0005 52V20C62.0005 17.7909 60.2096 16 58.0005 16Z" stroke="black" stroke-width="3.6125"/>
<path d="M32 48C38.6274 48 44 42.6274 44 36C44 29.3726 38.6274 24 32 24C25.3726 24 20 29.3726 20 36C20 42.6274 25.3726 48 32 48Z" stroke="black" stroke-width="3.6125"/>
<path fill-rule="evenodd" clip-rule="evenodd" d="M29.96 30.7201L36.36 35.5201C36.6251 35.7189 36.6788 36.095 36.48 36.3601C36.4459 36.4056 36.4055 36.446 36.36 36.4801L29.96 41.2801C29.6949 41.4789 29.3188 41.4252 29.12 41.1601C29.0421 41.0562 29 40.9299 29 40.8001V31.2001C29 30.8687 29.2686 30.6001 29.6 30.6001C29.7298 30.6001 29.8561 30.6422 29.96 30.7201Z" fill="black"/>
<path d="M58 4C61.1188 4 63.6818 6.37955 63.9725 9.42216L64 10V30H60V10C60 9.01816 59.2925 8.20156 58.3595 8.03222L58 8H6C5.01816 8 4.20157 8.7075 4.03222 9.6405L4 10V30H0V10C0 6.88121 2.37955 4.31821 5.42216 4.02747L6 4H58Z" fill="black"/>
<path d="M10.6416 4.80465C11.5642 5.14045 12.0896 6.08458 11.9296 7.01923L11.8369 7.36807L8.75876 15.8253C8.38097 16.8633 7.23329 17.3984 6.19533 17.0206C5.2727 16.6848 4.74733 15.7407 4.90731 14.8061L4.99999 14.4572L8.07817 5.99999C8.45595 4.96203 9.60364 4.42686 10.6416 4.80465Z" fill="black"/>
<path d="M18.479 4.80465C19.4016 5.14045 19.927 6.08458 19.767 7.01923L19.6743 7.36807L16.5962 15.8253C16.2184 16.8633 15.0707 17.3984 14.0327 17.0206C13.1101 16.6848 12.5847 15.7407 12.7447 14.8061L12.8374 14.4572L15.9156 5.99999C16.2934 4.96203 17.441 4.42686 18.479 4.80465Z" fill="black"/>
<path d="M26.3154 4.80465C27.238 5.14045 27.7634 6.08458 27.6034 7.01923L27.5108 7.36807L24.4326 15.8253C24.0548 16.8633 22.9071 17.3984 21.8692 17.0206C20.9465 16.6848 20.4212 15.7407 20.5811 14.8061L20.6738 14.4572L23.752 5.99999C24.1298 4.96203 25.2775 4.42686 26.3154 4.80465Z" fill="black"/>
<path d="M34.1523 4.80465C35.075 5.14045 35.6003 6.08458 35.4404 7.01923L35.3477 7.36807L32.2695 15.8253C31.8917 16.8633 30.744 17.3984 29.7061 17.0206C28.7834 16.6848 28.2581 15.7407 28.418 14.8061L28.5107 14.4572L31.5889 5.99999C31.9667 4.96203 33.1144 4.42686 34.1523 4.80465Z" fill="black"/>
<path d="M41.9897 4.80465C42.9124 5.14045 43.4377 6.08458 43.2778 7.01923L43.1851 7.36807L40.1069 15.8253C39.7291 16.8633 38.5814 17.3984 37.5435 17.0206C36.6208 16.6848 36.0955 15.7407 36.2555 14.8061L36.3481 14.4572L39.4263 5.99999C39.8041 4.96203 40.9518 4.42686 41.9897 4.80465Z" fill="black"/>
<path d="M49.8267 4.80465C50.7493 5.14045 51.2746 6.08458 51.1147 7.01923L51.022 7.36807L47.9438 15.8253C47.566 16.8633 46.4183 17.3984 45.3804 17.0206C44.4578 16.6848 43.9324 15.7407 44.0924 14.8061L44.185 14.4572L47.2632 5.99999C47.641 4.96203 48.7887 4.42686 49.8267 4.80465Z" fill="black"/>
<path d="M57.6636 4.80465C58.5862 5.14045 59.1116 6.08458 58.9516 7.01923L58.8589 7.36807L55.7807 15.8253C55.4029 16.8633 54.2553 17.3984 53.2173 17.0206C52.2947 16.6848 51.7693 15.7407 51.9293 14.8061L52.022 14.4572L55.1001 5.99999C55.4779 4.96203 56.6256 4.42686 57.6636 4.80465Z" fill="black"/>
</svg>
