<?xml version="1.0" encoding="UTF-8"?>
<svg width="104px" height="124px" viewBox="0 0 104 124" version="1.1" xmlns="http://www.w3.org/2000/svg" xmlns:xlink="http://www.w3.org/1999/xlink">
    <title>20-lightbulb</title>
    <g id="Page-1" stroke="none" stroke-width="1" fill="none" fill-rule="evenodd">
        <g id="icons" transform="translate(-1548.000000, -386.000000)" fill="#000000" fill-rule="nonzero">
            <g id="20-lightbulb" transform="translate(1548.000000, 386.000000)">
                <path d="M56,116 C58.209139,116 60,117.790861 60,120 C60,121.963679 58.5849987,123.596867 56.7190051,123.935555 L56,124 L48,124 C45.790861,124 44,122.209139 44,120 C44,118.036321 45.4150013,116.403133 47.2809949,116.064445 L48,116 L56,116 Z M64,104 C66.209139,104 68,105.790861 68,108 C68,109.963679 66.5849987,111.596867 64.7190051,111.935555 L64,112 L40,112 C37.790861,112 36,110.209139 36,108 C36,106.036321 37.4150013,104.403133 39.2809949,104.064445 L40,104 L64,104 Z M65.3305948,22.1978702 L65.7888544,22.4222912 L66.4751459,22.765437 C74.6680591,26.8618936 80.8981009,34.0451922 83.7947332,42.7350889 C86.6568586,51.3214651 85.4680861,60.7333027 80.5819199,68.3308978 L80.311737,68.743497 L75.7658027,75.5623984 C73.4012536,79.1092221 72.0986309,83.2536132 72.0053838,87.5085794 L72,88 L71.9450674,89.1556801 C71.3731219,95.1411377 66.4044139,99.8436074 60.3058544,99.9961782 L60,100 L44,100 C37.4745433,100 32.1656072,94.7914556 32.0037999,88.3049748 L32,88 L31.9389018,86.3456941 C31.6668932,82.668592 30.4914765,79.1086248 28.5094624,75.9855362 L28.2341973,75.5623984 L23.688263,68.743497 C18.5764811,61.0758242 17.2911028,51.477581 20.2052668,42.7350889 C23.0482577,34.2061162 29.1023417,27.1284584 37.0717204,22.9961836 L37.5248541,22.765437 L38.2111456,22.4222912 C46.7391452,18.1582915 56.7505461,18.0834845 65.3305948,22.1978702 Z M42.1920698,29.3810167 L41.7888544,29.5777088 L41.1025629,29.9208545 C34.8073843,33.0684438 30.0204149,38.5878659 27.7947332,45.2649111 C25.7076282,51.5262261 26.5628232,58.3871009 30.1045715,63.9378101 L30.3446653,64.3058954 L34.8905996,71.1247969 C38.2221863,76.122177 40,81.9938966 40,88 C40,90.1421954 41.6839685,91.8910789 43.8003597,91.9951047 L44,92 L60,92 C62.209139,92 64,90.209139 64,88 C64,82.1815873 65.6684365,76.4892907 68.801623,71.5958402 L69.1094004,71.1247969 L73.6553347,64.3058954 C77.3977152,58.6923247 78.3387519,51.6653665 76.2052668,45.2649111 C74.0290447,38.7362447 69.404105,33.3143231 63.3148697,30.1341943 L62.8974371,29.9208545 L62.2111456,29.5777088 C55.9169983,26.4306351 48.5316824,26.3650711 42.1920698,29.3810167 Z M17.265921,82.2765431 C18.3996516,83.8798804 18.1872294,86.0303241 16.8591934,87.3841934 L16.3093357,87.8519305 L12.3093357,90.6803577 C10.7059984,91.8140883 8.55555477,91.6016661 7.2016855,90.27363 L6.73394832,89.7237724 C5.60021766,88.1204351 5.81263993,85.9699915 7.14067594,84.6161222 L7.69053357,84.148385 L11.6905336,81.3199579 C13.494288,80.0445109 15.990474,80.4727887 17.265921,82.2765431 Z M86.734079,82.2765431 C88.009526,80.4727887 90.505712,80.0445109 92.3094664,81.3199579 L92.3094664,81.3199579 L96.3094664,84.148385 L96.8593241,84.6161222 C98.1873601,85.9699915 98.3997823,88.1204351 97.2660517,89.7237724 L97.2660517,89.7237724 L96.7983145,90.27363 C95.4444452,91.6016661 93.2940016,91.8140883 91.6906643,90.6803577 L91.6906643,90.6803577 L87.6906643,87.8519305 L87.1408066,87.3841934 C85.8127706,86.0303241 85.6003484,83.8798804 86.734079,82.2765431 Z M53.7888544,36.4222912 C55.5452224,37.3004752 56.3731822,39.2964747 55.8416159,41.1169359 L55.5777088,41.7888544 L50.472,52 L66.472136,52 L55.5777088,73.7888544 C54.5897518,75.7647684 52.1870596,76.5656658 50.2111456,75.5777088 C48.4547776,74.6995248 47.6268178,72.7035253 48.1583841,70.8830641 L48.4222912,70.2111456 L53.52,60 L37.527864,60 L48.4222912,38.2111456 C49.4102482,36.2352316 51.8129404,35.4343342 53.7888544,36.4222912 Z M100,50 C102.209139,50 104,51.790861 104,54 C104,55.9636791 102.584999,57.596867 100.719005,57.9355546 L100,58 L96,58 C93.790861,58 92,56.209139 92,54 C92,52.0363209 93.4150013,50.403133 95.2809949,50.0644454 L96,50 L100,50 Z M8,50 C10.209139,50 12,51.790861 12,54 C12,55.9636791 10.5849987,57.596867 8.71900506,57.9355546 L8,58 L4,58 C1.790861,58 1.0965861e-16,56.209139 2.4492936e-16,54 C3.65170027e-16,52.0363209 1.41500128,50.403133 3.28099494,50.0644454 L4,50 L8,50 Z M97.265921,18.2765431 C98.3996516,19.8798804 98.1872294,22.0303241 96.8591934,23.3841934 L96.3093357,23.8519305 L92.3093357,26.6803577 C90.7059984,27.8140883 88.5555548,27.6016661 87.2016855,26.27363 L86.7339483,25.7237724 C85.6002177,24.1204351 85.8126399,21.9699915 87.1406759,20.6161222 L87.6905336,20.148385 L91.6905336,17.3199579 C93.494288,16.0445109 95.990474,16.4727887 97.265921,18.2765431 Z M6.73407903,18.2765431 C8.00952602,16.4727887 10.505712,16.0445109 12.3094664,17.3199579 L12.3094664,17.3199579 L16.3094664,20.148385 L16.8593241,20.6161222 C18.1873601,21.9699915 18.3997823,24.1204351 17.2660517,25.7237724 L17.2660517,25.7237724 L16.7983145,26.27363 C15.4444452,27.6016661 13.2940016,27.8140883 11.6906643,26.6803577 L11.6906643,26.6803577 L7.69066428,23.8519305 L7.14080665,23.3841934 C5.81277063,22.0303241 5.60034837,19.8798804 6.73407903,18.2765431 Z M52,0 C53.9636791,0 55.596867,1.41500128 55.9355546,3.28099494 L56,4 L56,8 C56,10.209139 54.209139,12 52,12 C50.0363209,12 48.403133,10.5849987 48.0644454,8.71900506 L48,8 L48,4 C48,1.790861 49.790861,0 52,0 Z" id="Combined-Shape"></path>
            </g>
        </g>
    </g>
</svg>