<svg width="64" height="64" viewBox="0 0 64 64" fill="none" xmlns="http://www.w3.org/2000/svg">
<path d="M58.0024 7.99951H6.00244C3.7933 7.99951 2.00244 9.79037 2.00244 11.9995V43.9995C2.00244 46.2086 3.7933 47.9995 6.00244 47.9995H58.0024C60.2116 47.9995 62.0024 46.2086 62.0024 43.9995V11.9995C62.0024 9.79037 60.2116 7.99951 58.0024 7.99951Z" stroke="black" stroke-width="3.6125"/>
<path fill-rule="evenodd" clip-rule="evenodd" d="M26.9382 20.6213L37.2565 27.5002C37.5322 27.684 37.6067 28.0565 37.4229 28.3322C37.379 28.3981 37.3224 28.4547 37.2565 28.4986L26.9382 35.3775C26.6625 35.5613 26.29 35.4868 26.1061 35.2111C26.0404 35.1125 26.0054 34.9967 26.0054 34.8783V21.1205C26.0054 20.7891 26.274 20.5205 26.6054 20.5205C26.7238 20.5205 26.8396 20.5556 26.9382 20.6213Z" fill="black"/>
<path d="M46.0044 53.9993H18.0044C16.8998 53.9993 16.0044 54.8947 16.0044 55.9993C16.0044 57.1038 16.8998 57.9993 18.0044 57.9993H46.0044C47.109 57.9993 48.0044 57.1038 48.0044 55.9993C48.0044 54.8947 47.109 53.9993 46.0044 53.9993Z" fill="black"/>
</svg>
