<svg width="64" height="64" viewBox="0 0 64 64" fill="none" xmlns="http://www.w3.org/2000/svg">
<path fill-rule="evenodd" clip-rule="evenodd" d="M46.4998 6.88525L47.0547 7.24274C48.831 8.51396 49.8743 10.564 50.2059 12.8772C50.606 15.6685 49.9827 18.8527 48.294 21.7776C46.5328 24.828 43.9481 27.0151 41.2038 28.0128L24.5059 55.331C23.7735 56.5293 22.6301 57.3264 21.3657 57.6483C20.1014 57.9702 18.7161 57.8169 17.4998 57.1147C16.2835 56.4125 15.4581 55.2894 15.1047 54.0335C14.7513 52.7776 14.8699 51.3889 15.5415 50.1555L30.8517 22.0403C30.342 19.1638 30.9434 15.8297 32.7056 12.7776C34.3942 9.85274 36.8402 7.72082 39.4576 6.67167C41.8436 5.71527 44.3844 5.66392 46.4998 6.88525Z" stroke="black" stroke-width="3.6125"/>
<path d="M33.2331 33.8658C33.7854 32.9093 33.4577 31.6861 32.5011 31.1338C31.5445 30.5815 30.3213 30.9093 29.769 31.8658L27.769 35.3299C27.2168 36.2865 27.5445 37.5097 28.5011 38.062C29.4577 38.6143 30.6809 38.2865 31.2331 37.3299L33.2331 33.8658Z" fill="black"/>
<path d="M48.4292 19.5457L34.5728 11.5457L32.5728 15.0098L46.4292 23.0098L48.4292 19.5457Z" fill="black"/>
<path d="M41.696 27.2058L31.3037 21.2058L29.3037 24.6699L39.696 30.6699L41.696 27.2058Z" fill="black"/>
</svg>
