<?xml version="1.0" encoding="UTF-8"?>
<svg width="64px" height="128px" viewBox="0 0 64 128" version="1.1" xmlns="http://www.w3.org/2000/svg" xmlns:xlink="http://www.w3.org/1999/xlink">
    <title>21-testtube</title>
    <g id="Page-1" stroke="none" stroke-width="1" fill="none" fill-rule="evenodd">
        <g id="icons" transform="translate(-1568.000000, -768.000000)" fill="#000000">
            <g id="21-testtube" transform="translate(1568.000000, 768.000000)">
                <path d="M28,36 L28,61.372583 C28,66.1464798 26.2932192,70.7444029 23.2175826,74.3505289 L22.1421356,75.5147186 L14.8284271,82.8284271 C11.1474769,86.5093773 9.08359096,91.1950818 8.63678935,96.00276 L55.3632064,96.0027642 C54.9587842,91.6510516 53.2294632,87.399277 50.1752617,83.9021126 L49.1715729,82.8284271 L41.8578644,75.5147186 C38.4822096,72.1390638 36.4378633,67.6809649 36.0627506,62.9562453 L36,61.372583 L36,36 L44,36 L44,61.372583 C44,64.1573561 44.967966,66.8423294 46.7175741,68.9776773 L47.5147186,69.8578644 L54.8284271,77.1715729 C66.3310812,88.6742269 66.3316385,107.323588 54.8297076,118.827147 C48.7332691,124.924231 41.0444992,128 32,128 C22.9555008,128 15.2667309,124.924231 9.17024216,118.827096 C-1.93502197,107.72026 -2.31744251,89.9518929 8.02267323,78.3864102 L9.17157288,77.1715729 L16.4852814,69.8578644 C18.4544133,67.8887324 19.6685208,65.3057143 19.94128,62.5586356 L20,61.372583 L20,36 L28,36 Z M54.6028115,104.003871 L9.39717235,104.003871 C10.3718861,107.359915 12.1819749,110.524746 14.8274465,113.170592 C19.3980515,117.741682 25.0433687,120 32,120 C38.9566313,120 44.6019485,117.741682 49.1725033,113.170642 C51.8179907,110.524781 53.6280904,107.359939 54.6028115,104.003871 Z" id="Combined-Shape" fill-rule="nonzero"></path>
                <circle id="Oval" cx="24" cy="88" r="4"></circle>
                <circle id="Oval" cx="36" cy="80" r="4"></circle>
                <circle id="Oval" cx="40" cy="4" r="4"></circle>
                <circle id="Oval" cx="20" cy="12" r="4"></circle>
                <circle id="Oval" cx="32" cy="20" r="4"></circle>
            </g>
        </g>
    </g>
</svg>