<?xml version="1.0" encoding="UTF-8"?>
<svg width="91px" height="128px" viewBox="0 0 91 128" version="1.1" xmlns="http://www.w3.org/2000/svg" xmlns:xlink="http://www.w3.org/1999/xlink">
    <title>22-labtest</title>
    <g id="Page-1" stroke="none" stroke-width="1" fill="none" fill-rule="evenodd">
        <g id="icons" transform="translate(-1552.000000, -1152.000000)" fill="#000000">
            <g id="22-labtest" transform="translate(1552.000000, 1152.000000)">
                <path d="M69.0531385,47.1497035 C71.2622775,47.1497035 73.0531385,48.9405645 73.0531385,51.1497035 C73.0531385,53.1133827 71.6381373,54.7465705 69.7721436,55.0852582 L69.0531385,55.1497035 L65.053,55.1497035 L65.0531385,73.9337035 L88.0896053,108.493301 C89.1847221,110.135976 89.8542252,112.018153 90.0469729,113.970922 L90.0469729,113.970922 L90.1050018,115.149704 C90.1050018,121.777121 84.7324188,127.149704 78.1050018,127.149704 L78.1050018,127.149704 L12.0012753,127.149704 C9.63217546,127.149704 7.31608314,126.448447 5.34487293,125.134307 C-0.169471336,121.458078 -1.65955776,114.007645 2.01667175,108.493301 L2.01667175,108.493301 L25.0531385,73.9257035 L25.053,55.1497035 L21.0531385,55.1497035 C18.8439995,55.1497035 17.0531385,53.3588425 17.0531385,51.1497035 C17.0531385,49.1860244 18.4681398,47.5528366 20.3341335,47.2141489 L21.0531385,47.1497035 L69.0531385,47.1497035 Z M74.912,103.149704 L15.194,103.149704 L8.67307411,112.930903 C7.48719362,114.709723 7.91410687,117.092942 9.60879278,118.355453 L9.7824745,118.477905 C10.4395446,118.915951 11.2115753,119.149704 12.0012753,119.149704 L12.0012753,119.149704 L78.1050018,119.149704 C80.3141408,119.149704 82.1050018,117.358843 82.1050018,115.149704 C82.1050018,114.360004 81.8712497,113.587973 81.433203,112.930903 L81.433203,112.930903 L74.912,103.149704 Z M57.0531385,55.1497035 L33.0531385,55.1497035 L33.0531385,76.3608061 L20.527,95.1497035 L69.579,95.1497035 L57.0531385,76.3608061 L57.0531385,55.1497035 Z" id="Combined-Shape" fill-rule="nonzero"></path>
                <path d="M13.0531385,-9.9475983e-14 L25.907516,4.28479248 C37.3410959,8.09598578 45.0531385,18.7958734 45.0531385,30.8479248 L45.0531385,30.8479248 L45.0531385,35.1497035 L45.0531385,35.1497035 L45.0830117,35.1501936 C45.6139403,23.6334614 53.1773085,13.55861 64.1987611,9.88479248 L77.0531385,5.6 L77.0531385,17.8514823 C77.0531385,29.9035337 69.3410959,40.6034213 57.907516,44.4146146 L49.0531385,47.366 L49.0531385,65.1497035 C49.0531385,68.463412 47.2622775,71.1497035 45.0531385,71.1497035 C43.0894594,71.1497035 41.4562716,69.0272016 41.1175839,66.2282111 L41.0531385,65.1497035 L41.0531385,41.766 L32.1987611,38.8146146 C20.8951082,35.0467303 13.2288928,24.5458234 13.0561203,12.6618157 L13.0531385,12.2514823 L13.0531385,-9.9475983e-14 Z M69.0531385,16.6937035 L66.7285832,17.4742589 L65.3925449,17.9728544 C57.9666754,21.0487182 53.0531385,28.3175727 53.0531385,36.4479248 L53.0531385,37.5977035 L55.3776939,36.8251482 C63.5445367,34.1028673 69.0531385,26.4600904 69.0531385,17.8514823 L69.0531385,16.6937035 Z M21.0531385,11.0937035 L21.0531385,12.2514823 C21.0531385,20.8600904 26.5617404,28.5028673 34.7285832,31.2251482 L34.7285832,31.2251482 L37.0531385,31.9977035 L37.0531385,30.8479248 C37.0531385,22.7175727 32.1396017,15.4487182 24.7137322,12.3728544 L24.7137322,12.3728544 L23.3776939,11.8742589 L21.0531385,11.0937035 Z" id="Combined-Shape" fill-rule="nonzero"></path>
                <circle id="Oval" cx="36.8" cy="88" r="4"></circle>
                <circle id="Oval" cx="49.6" cy="81.5497035" r="4"></circle>
            </g>
        </g>
    </g>
</svg>