<svg width="64" height="64" viewBox="0 0 64 64" fill="none" xmlns="http://www.w3.org/2000/svg">
<g clip-path="url(#clip0_230_24931)">
<path d="M58.0034 22H6.00342C3.79428 22 2.00342 23.7909 2.00342 26V58C2.00342 60.2091 3.79428 62 6.00342 62H58.0034C60.2125 62 62.0034 60.2091 62.0034 58V26C62.0034 23.7909 60.2125 22 58.0034 22Z" stroke="black" stroke-width="3.6125"/>
<path d="M38.0078 30H14.0078C11.7987 30 10.0078 31.7909 10.0078 34V50C10.0078 52.2091 11.7987 54 14.0078 54H38.0078C40.217 54 42.0078 52.2091 42.0078 50V34C42.0078 31.7909 40.217 30 38.0078 30Z" stroke="black" stroke-width="3.6125"/>
<path d="M54.0049 32H50.0049C48.9003 32 48.0049 32.8954 48.0049 34C48.0049 35.1046 48.9003 36 50.0049 36H54.0049C55.1095 36 56.0049 35.1046 56.0049 34C56.0049 32.8954 55.1095 32 54.0049 32Z" fill="black"/>
<path d="M54.0049 40H50.0049C48.9003 40 48.0049 40.8954 48.0049 42C48.0049 43.1046 48.9003 44 50.0049 44H54.0049C55.1095 44 56.0049 43.1046 56.0049 42C56.0049 40.8954 55.1095 40 54.0049 40Z" fill="black"/>
<path d="M54.0049 48H50.0049C48.9003 48 48.0049 48.8954 48.0049 50C48.0049 51.1046 48.9003 52 50.0049 52H54.0049C55.1095 52 56.0049 51.1046 56.0049 50C56.0049 48.8954 55.1095 48 54.0049 48Z" fill="black"/>
<path d="M20.0029 2L30.0029 20" stroke="black" stroke-width="3.6125" stroke-linecap="round"/>
<path d="M44.0083 2.00049L34.0083 20.0005" stroke="black" stroke-width="3.6125" stroke-linecap="round"/>
</g>
<defs>
<clipPath id="clip0_230_24931">
<rect width="64" height="64" fill="white"/>
</clipPath>
</defs>
</svg>
