<?xml version="1.0" encoding="UTF-8"?>
<svg width="119px" height="120px" viewBox="0 0 119 120" version="1.1" xmlns="http://www.w3.org/2000/svg" xmlns:xlink="http://www.w3.org/1999/xlink">
    <title>23-sparkle</title>
    <g id="Page-1" stroke="none" stroke-width="1" fill="none" fill-rule="evenodd">
        <g id="icons" transform="translate(-1539.000000, -1543.000000)" fill="#000000">
            <g id="23-sparkle" transform="translate(1539.000000, 1543.000000)">
                <path d="M107.225397,52.3137085 C101.003175,64.7581529 97.8920634,74.0914863 97.8920634,80.3137085 C97.8920634,86.5359307 101.003175,95.8692641 107.225397,108.313708 C94.7809523,102.091486 85.447619,98.9803752 79.2253967,98.9803752 C73.0031745,98.9803752 63.6698412,102.091486 51.2253967,108.313708 C57.447619,95.8692641 60.5587301,86.5359307 60.5587301,80.3137085 C60.5587301,74.0914863 57.447619,64.7581529 51.2253967,52.3137085 C63.6698412,58.5359307 73.0031745,61.6470418 79.2253967,61.6470418 C85.447619,61.6470418 94.7809523,58.5359307 107.225397,52.3137085 Z M92.256,67.272 L90.9488952,67.6827597 C86.520058,68.9880901 82.6287925,69.6470418 79.2253967,69.6470418 C75.822001,69.6470418 71.9307355,68.9880901 67.5018983,67.6827597 L66.184,67.272 L66.5944479,68.5902101 C67.7133025,72.3863562 68.3572667,75.7875517 68.5184227,78.8250958 L68.5587301,80.3137085 C68.5587301,83.7171043 67.8997783,87.6083697 66.5944479,92.0372069 L66.184,93.344 L67.5018983,92.9446573 C71.2980445,91.8258027 74.69924,91.1818385 77.7367841,91.0206825 L79.2253967,90.9803752 C82.6287925,90.9803752 86.520058,91.6393269 90.9488952,92.9446573 L92.256,93.344 L91.8563456,92.0372069 C90.7374909,88.2410607 90.0935267,84.8398653 89.9323707,81.8023212 L89.8920634,80.3137085 C89.8920634,76.9103127 90.5510152,73.0190473 91.8563456,68.5902101 L92.256,67.272 Z" id="Rectangle" fill-rule="nonzero" transform="translate(79.225397, 80.313708) rotate(45.000000) translate(-79.225397, -80.313708) "></path>
                <path d="M51.2253967,9 C46.7809523,17.8888889 44.5587301,24.5555556 44.5587301,29 C44.5587301,33.4444444 46.7809523,40.1111111 51.2253967,49 C42.3365079,44.5555556 35.6698412,42.3333333 31.2253967,42.3333333 C26.7809523,42.3333333 20.1142856,44.5555556 11.2253967,49 C15.6698412,40.1111111 17.8920634,33.4444444 17.8920634,29 C17.8920634,24.5555556 15.6698412,17.8888889 11.2253967,9 C20.1142856,13.4444444 26.7809523,15.6666667 31.2253967,15.6666667 C35.6698412,15.6666667 42.3365079,13.4444444 51.2253967,9 Z M37.28,22.936 C35.0757317,23.424887 33.0719852,23.6666667 31.2253967,23.6666667 C29.8404554,23.6666667 28.3671126,23.5306656 26.7980744,23.2605087 L25.16,22.936 C25.5304873,24.6051165 25.7563357,26.1406353 25.8467981,27.5853214 L25.8920634,29 C25.8920634,30.3849414 25.7560623,31.8582841 25.4859054,33.4273223 L25.16,35.056 C26.8305132,34.6949094 28.366032,34.469061 29.8107181,34.3785987 L31.2253967,34.3333333 C32.6103381,34.3333333 34.0836808,34.4693344 35.6527191,34.7394913 L37.28,35.056 C36.9203061,33.3948835 36.6944578,31.8593647 36.6039954,30.4146786 L36.5587301,29 C36.5587301,27.6150586 36.6947311,26.1417159 36.9648881,24.5726777 L37.28,22.936 Z" id="Rectangle" fill-rule="nonzero" transform="translate(31.225397, 29.000000) rotate(45.000000) translate(-31.225397, -29.000000) "></path>
                <path d="M97,24.7157288 C100.555556,26.4935065 103.222222,27.3823954 105,27.3823954 C106.777778,27.3823954 109.444444,26.4935065 113,24.7157288 C111.222222,28.2712843 110.333333,30.937951 110.333333,32.7157288 C110.333333,34.4935065 111.222222,37.1601732 113,40.7157288 C109.444444,38.937951 106.777778,38.0490621 105,38.0490621 C103.222222,38.0490621 100.555556,38.937951 97,40.7157288 C98.7777778,37.1601732 99.6666667,34.4935065 99.6666667,32.7157288 C99.6666667,30.937951 98.7777778,28.2712843 97,24.7157288 Z" id="Rectangle" transform="translate(105.000000, 32.715729) rotate(45.000000) translate(-105.000000, -32.715729) "></path>
                <path d="M5,82.372583 C10.3333333,85.0392497 14.3333333,86.372583 17,86.372583 C19.6666667,86.372583 23.6666667,85.0392497 29,82.372583 C26.3333333,87.7059163 25,91.7059163 25,94.372583 C25,97.0392497 26.3333333,101.03925 29,106.372583 C23.6666667,103.705916 19.6666667,102.372583 17,102.372583 C14.3333333,102.372583 10.3333333,103.705916 5,106.372583 C7.66666667,101.03925 9,97.0392497 9,94.372583 C9,91.7059163 7.66666667,87.7059163 5,82.372583 Z" id="Rectangle" transform="translate(17.000000, 94.372583) rotate(45.000000) translate(-17.000000, -94.372583) "></path>
            </g>
        </g>
    </g>
</svg>