<svg width="64" height="64" viewBox="0 0 64 64" fill="none" xmlns="http://www.w3.org/2000/svg">
<path d="M17.2039 42.3995C23.3895 42.3995 28.4039 37.3851 28.4039 31.1995C28.4039 25.0139 23.3895 19.9995 17.2039 19.9995C11.0183 19.9995 6.00391 25.0139 6.00391 31.1995C6.00391 37.3851 11.0183 42.3995 17.2039 42.3995Z" stroke="black" stroke-width="3.6125"/>
<path d="M47 41.9995C53.0751 41.9995 58 37.0746 58 30.9995C58 24.9244 53.0751 19.9995 47 19.9995C40.9249 19.9995 36 24.9244 36 30.9995C36 37.0746 40.9249 41.9995 47 41.9995Z" stroke="black" stroke-width="3.6125"/>
<path d="M27.998 28.9995C29.3314 27.6662 30.6647 26.9995 31.998 26.9995C33.3314 26.9995 34.6647 27.6662 35.998 28.9995" stroke="black" stroke-width="3.6125"/>
<path d="M1.99854 27.9995H5.99854" stroke="black" stroke-width="3.6125" stroke-linecap="round"/>
<path d="M57.9995 27.9985H61.9995" stroke="black" stroke-width="3.6125" stroke-linecap="round"/>
</svg>
