<?xml version="1.0" encoding="UTF-8"?>
<svg width="111px" height="127px" viewBox="0 0 111 127" version="1.1" xmlns="http://www.w3.org/2000/svg" xmlns:xlink="http://www.w3.org/1999/xlink">
    <title>24-gmo</title>
    <g id="Page-1" stroke="none" stroke-width="1" fill="none" fill-rule="evenodd">
        <g id="icons" transform="translate(-2313.000000, -1537.000000)" fill="#000000" fill-rule="nonzero">
            <g id="24-gmo" transform="translate(2313.400000, 1537.400000)">
                <path d="M109.229473,31.6905989 L55,0.381197846 L0.770526581,31.6905989 L0.770526581,94.3094011 L55,125.618802 L109.229473,94.3094011 L109.229473,31.6905989 Z M55,9.616 L101.224,36.312 L101.224,89.68 L55,116.376 L8.768,89.68 L8.768,36.312 L55,9.616 Z" id="Polygon"></path>
                <path d="M86.6,36.7743872 L76.4026985,67.3662919 C73.3753836,76.4482365 65.9179417,83.3540599 56.6305636,85.6759044 L38.6499718,90.1703872 L34.3597603,94.8906912 C32.8737326,96.5253216 30.3439393,96.645788 28.7093088,95.1597603 C27.256304,93.8388468 26.9996757,91.6932296 28.0042703,90.0846801 L28.4402397,89.5093088 L32.4409718,85.1073872 L32.4417589,72.9311002 C32.4417589,60.3044706 40.8927561,49.2399992 53.0744715,45.9177132 L86.6,36.7743872 Z M74.2817589,48.424 L55.1794107,53.6358238 L53.8281698,54.0558309 C45.8594935,56.8438913 40.4417589,64.3867644 40.4417589,72.9311002 L40.4439718,76.3033872 L52.4402397,63.1093088 C53.9262674,61.4746784 56.4560607,61.354212 58.0906912,62.8402397 C59.543696,64.1611532 59.8003243,66.3067704 58.7957297,67.9153199 L58.3597603,68.4906912 L48.3529718,79.4973872 L54.6902786,77.9147644 C61.3241201,76.2563041 66.6508643,71.3235731 68.8132321,64.8364698 L74.2817589,48.424 Z" id="Combined-Shape"></path>
            </g>
        </g>
    </g>
</svg>