<?xml version="1.0" encoding="UTF-8"?>
<svg width="80px" height="112px" viewBox="0 0 80 112" version="1.1" xmlns="http://www.w3.org/2000/svg" xmlns:xlink="http://www.w3.org/1999/xlink">
    <title>25-acoustic</title>
    <g id="Page-1" stroke="none" stroke-width="1" fill="none" fill-rule="evenodd">
        <g id="icons" transform="translate(-408.000000, -1928.000000)" fill="#000000">
            <g id="25-acoustic" transform="translate(408.000000, 1928.000000)">
                <path d="M80,0 L80,112 L0,112 L0,0 L80,0 Z M72,8 L8,8 L8,104 L72,104 L72,8 Z" id="Rectangle" fill-rule="nonzero"></path>
                <path d="M40,48 C53.254834,48 64,58.745166 64,72 C64,85.254834 53.254834,96 40,96 C26.745166,96 16,85.254834 16,72 C16,58.745166 26.745166,48 40,48 Z M40,56 C31.163444,56 24,63.163444 24,72 C24,80.836556 31.163444,88 40,88 C48.836556,88 56,80.836556 56,72 C56,63.163444 48.836556,56 40,56 Z" id="Oval" fill-rule="nonzero"></path>
                <circle id="Oval" cx="40" cy="24" r="8"></circle>
            </g>
        </g>
    </g>
</svg>