<svg width="64" height="64" viewBox="0 0 64 64" fill="none" xmlns="http://www.w3.org/2000/svg">
<path d="M25.9966 55H37.9966" stroke="black" stroke-width="3.6125" stroke-linecap="round"/>
<path d="M29.9961 61.0002H33.9961" stroke="black" stroke-width="3.6125" stroke-linecap="round"/>
<path fill-rule="evenodd" clip-rule="evenodd" d="M23.9947 45.0004C23.9947 42.3922 23.2227 39.8423 21.7759 37.6722L19.5029 34.2627C17.2894 30.9424 16.7328 26.7861 17.9947 23.0004C19.2753 19.1587 22.0295 15.983 25.6516 14.172L25.9947 14.0004C29.7718 12.1118 34.2176 12.1118 37.9947 14.0004L38.3379 14.172C41.9599 15.983 44.7141 19.1587 45.9947 23.0004C47.2566 26.7861 46.7 30.9424 44.4865 34.2627L42.2135 37.6722C40.7667 39.8423 39.9947 42.3922 39.9947 45.0004C39.9947 47.2095 38.2039 49.0004 35.9947 49.0004H27.9947C25.7856 49.0004 23.9947 47.2095 23.9947 45.0004Z" stroke="black" stroke-width="3.6125"/>
<path d="M31.9961 21L27.9961 29H35.9961L31.9961 37" stroke="black" stroke-width="3.6125" stroke-linecap="round"/>
<path d="M31.9961 3V5" stroke="black" stroke-width="3.6125" stroke-linecap="round"/>
<path d="M50.9971 12.7076L52.9971 11.2934" stroke="black" stroke-width="3.6125" stroke-linecap="round"/>
<path d="M10.9962 44.7069L12.9962 43.2926" stroke="black" stroke-width="3.6125" stroke-linecap="round"/>
<path d="M12.9955 12.7076L10.9955 11.2934" stroke="black" stroke-width="3.6125" stroke-linecap="round"/>
<path d="M52.996 44.7071L50.996 43.2929" stroke="black" stroke-width="3.6125" stroke-linecap="round"/>
<path d="M53.9976 28.0002H55.9976" stroke="black" stroke-width="3.6125" stroke-linecap="round"/>
<path d="M7.99658 28H9.99658" stroke="black" stroke-width="3.6125" stroke-linecap="round"/>
</svg>
