<svg width="64" height="64" viewBox="0 0 64 64" fill="none" xmlns="http://www.w3.org/2000/svg">
<path d="M28.0008 18V30.6863C28.0008 32.808 27.158 34.8428 25.6577 36.3431L22.0008 40C17.0305 44.9703 17.0303 53.0287 22.0003 57.9994C24.667 60.6665 28.0006 62 32.0008 62C36.0011 62 39.3347 60.6665 42.0014 57.9994C46.9714 53.0287 46.9712 44.9703 42.0009 40L38.344 36.3431C36.8437 34.8428 36.0008 32.808 36.0008 30.6863V18M20.0008 50H44.0009" stroke="black" stroke-width="3.6125" stroke-linecap="round" stroke-linejoin="round"/>
<path d="M28.0001 46.4001C29.3256 46.4001 30.4001 45.3256 30.4001 44.0001C30.4001 42.6746 29.3256 41.6001 28.0001 41.6001C26.6746 41.6001 25.6001 42.6746 25.6001 44.0001C25.6001 45.3256 26.6746 46.4001 28.0001 46.4001Z" fill="black"/>
<path d="M34.003 42.4001C35.3285 42.4001 36.403 41.3256 36.403 40.0001C36.403 38.6746 35.3285 37.6001 34.003 37.6001C32.6775 37.6001 31.603 38.6746 31.603 40.0001C31.603 41.3256 32.6775 42.4001 34.003 42.4001Z" fill="black"/>
<path d="M36.4015 6.4001C37.7269 6.4001 38.8015 5.32558 38.8015 4.0001C38.8015 2.67461 37.7269 1.6001 36.4015 1.6001C35.076 1.6001 34.0015 2.67461 34.0015 4.0001C34.0015 5.32558 35.076 6.4001 36.4015 6.4001Z" fill="black"/>
<path d="M26.4005 10.4001C27.726 10.4001 28.8005 9.32558 28.8005 8.0001C28.8005 6.67461 27.726 5.6001 26.4005 5.6001C25.075 5.6001 24.0005 6.67461 24.0005 8.0001C24.0005 9.32558 25.075 10.4001 26.4005 10.4001Z" fill="black"/>
<path d="M32.3985 14.4006C33.724 14.4006 34.7985 13.3261 34.7985 12.0006C34.7985 10.6751 33.724 9.60059 32.3985 9.60059C31.0731 9.60059 29.9985 10.6751 29.9985 12.0006C29.9985 13.3261 31.0731 14.4006 32.3985 14.4006Z" fill="black"/>
</svg>
