<?xml version="1.0" encoding="UTF-8"?>
<svg width="128px" height="128px" viewBox="0 0 128 128" version="1.1" xmlns="http://www.w3.org/2000/svg" xmlns:xlink="http://www.w3.org/1999/xlink">
    <title>26-target</title>
    <g id="Page-1" stroke="none" stroke-width="1" fill="none" fill-rule="evenodd">
        <g id="icons" transform="translate(-768.000000, -1920.000000)" fill="#000000" fill-rule="nonzero">
            <g id="26-target" transform="translate(768.000000, 1920.000000)">
                <path d="M64,0 C66.209139,-4.05812251e-16 68,1.790861 68,4 L68.0008989,16.1643693 C91.3197008,18.0885696 109.911991,36.6811659 111.835713,60.0001033 L124,60 C126.209139,60 128,61.790861 128,64 C128,66.209139 126.209139,68 124,68 L111.835631,68.0008989 C109.911458,91.3193668 91.3193668,109.911458 68.0008989,111.835631 L68,124 C68,126.209139 66.209139,128 64,128 C61.790861,128 60,126.209139 60,124 L60.0001033,111.835713 C36.6811659,109.911991 18.0885696,91.3197008 16.1643693,68.0008989 L4,68 C1.790861,68 0,66.209139 0,64 C0,61.790861 1.790861,60 4,60 L16.1642866,60.0001033 C18.0880368,36.6808319 36.6808319,18.0880368 60.0001033,16.1642866 L60,4 C60,1.790861 61.790861,4.05812251e-16 64,0 Z M64,24 C41.90861,24 24,41.90861 24,64 C24,86.09139 41.90861,104 64,104 C86.09139,104 104,86.09139 104,64 C104,41.90861 86.09139,24 64,24 Z M64,40 C77.254834,40 88,50.745166 88,64 C88,77.254834 77.254834,88 64,88 C50.745166,88 40,77.254834 40,64 C40,50.745166 50.745166,40 64,40 Z M64,48 C55.163444,48 48,55.163444 48,64 C48,72.836556 55.163444,80 64,80 C72.836556,80 80,72.836556 80,64 C80,55.163444 72.836556,48 64,48 Z" id="Combined-Shape"></path>
            </g>
        </g>
    </g>
</svg>