<?xml version="1.0" encoding="UTF-8"?>
<svg width="104px" height="119px" viewBox="0 0 104 119" version="1.1" xmlns="http://www.w3.org/2000/svg" xmlns:xlink="http://www.w3.org/1999/xlink">
    <title>27-house</title>
    <g id="Page-1" stroke="none" stroke-width="1" fill="none" fill-rule="evenodd">
        <g id="icons" transform="translate(-1164.000000, -1925.000000)" stroke="#000000" stroke-width="8">
            <g id="27-house" transform="translate(1168.000000, 1928.000000)">
                <path d="M52.6656543,3.3497005 L92.6656543,32.0676492 C94.7588291,33.5704414 96,35.9894649 96,38.5662391 L96,104 C96,108.418278 92.418278,112 88,112 L72,112 C67.581722,112 64,108.418278 64,104 L64,76.9230769 C64,72.5047989 60.418278,68.9230769 56,68.9230769 L40,68.9230769 C35.581722,68.9230769 32,72.5047989 32,76.9230769 L32,104 C32,108.418278 28.418278,112 24,112 L8,112 C3.581722,112 5.41083001e-16,108.418278 0,104 L0,38.5662391 C5.5257851e-15,35.9894649 1.24117088,33.5704414 3.33434574,32.0676492 L43.3343457,3.3497005 C46.1226788,1.34782032 49.8773212,1.34782032 52.6656543,3.3497005 Z" id="Rectangle"></path>
            </g>
        </g>
    </g>
</svg>