<svg width="64" height="64" viewBox="0 0 64 64" fill="none" xmlns="http://www.w3.org/2000/svg">
<path d="M44.0002 23.7874C45.1048 23.7874 46.0002 24.6828 46.0002 25.7874C46.0002 26.7692 45.2927 27.5858 44.3597 27.7551L44.0002 27.7874H41.9976L41.9998 35.8676C42.0001 36.7229 42.2533 37.5591 42.7277 38.2708L53.5184 54.4591C54.066 55.2805 54.4007 56.2216 54.4971 57.1979L54.5261 57.7873C54.5261 61.101 51.8398 63.7873 48.5261 63.7873H15.4743C14.2897 63.7873 13.1317 63.4367 12.1461 62.7796C9.3889 60.9415 8.64385 57.2163 10.482 54.4591L21.2722 38.2678C21.7469 37.5555 22.0001 36.7186 21.9998 35.8626L21.9976 27.7874H20.0002C18.8956 27.7874 18.0002 26.8919 18.0002 25.7874C18.0002 24.8055 18.7077 23.9889 19.6407 23.8196L20.0002 23.7874H44.0002ZM46.9296 51.7873H17.0696L13.8102 56.6779C13.2655 57.4949 13.4013 58.5668 14.0836 59.2252L14.3649 59.4514C14.6934 59.6705 15.0794 59.7873 15.4743 59.7873H48.5261C49.6307 59.7873 50.5261 58.8919 50.5261 57.7873C50.5261 57.3925 50.4093 57.0065 50.1902 56.6779L46.9296 51.7873ZM38.0002 27.7874H26.0002V37.0797C26.0002 37.936 25.7466 38.773 25.2715 39.4853L19.7336 47.7873H44.2616L38.728 39.4849C38.2534 38.7728 38.0002 37.9363 38.0002 37.0806V27.7874Z" fill="black"/>
<path d="M16 3.21941C16 1.73996 17.4494 0.695292 18.8529 1.16313L22.4272 2.35455C28.144 4.26015 32 9.61009 32 15.6361V17.787L32.016 17.7882L32.0217 17.6542C32.3388 11.9514 36.1046 6.9773 41.5728 5.15455L45.1471 3.96313C46.5506 3.49529 48 4.53996 48 6.0194V9.1379C48 15.1639 44.144 20.5139 38.4272 22.4195L34 23.8922V32.787C34 34.4439 33.1046 35.787 32 35.787C31.0182 35.787 30.2016 34.7258 30.0322 33.3263L30 32.787V21.0922L25.5728 19.6195C20.1046 17.7967 16.3388 12.8226 16.0217 7.11984L16 6.3379V3.21941ZM44 8.55901L42.8377 8.94929L42.1697 9.19858C38.4568 10.7365 36 14.3709 36 18.4361V19.011L37.1623 18.6247C41.2457 17.2636 44 13.4422 44 9.1379V8.55901ZM20 5.75901V6.3379C20 10.6422 22.7543 14.4636 26.8377 15.8247L28 16.211V15.6361C28 11.5709 25.5432 7.93652 21.8303 6.39858L21.1623 6.14929L20 5.75901Z" fill="black"/>
<path d="M27.8736 45.8376C29.1991 45.8376 30.2736 44.7631 30.2736 43.4376C30.2736 42.1121 29.1991 41.0376 27.8736 41.0376C26.5481 41.0376 25.4736 42.1121 25.4736 43.4376C25.4736 44.7631 26.5481 45.8376 27.8736 45.8376Z" fill="black"/>
<path d="M34.2735 42.6125C35.599 42.6125 36.6735 41.538 36.6735 40.2125C36.6735 38.887 35.599 37.8125 34.2735 37.8125C32.9481 37.8125 31.8735 38.887 31.8735 40.2125C31.8735 41.538 32.9481 42.6125 34.2735 42.6125Z" fill="black"/>
</svg>
