<?xml version="1.0" encoding="UTF-8"?>
<svg width="112px" height="112px" viewBox="0 0 112 112" version="1.1" xmlns="http://www.w3.org/2000/svg" xmlns:xlink="http://www.w3.org/1999/xlink">
    <title>28-dashboard</title>
    <g id="Page-1" stroke="none" stroke-width="1" fill="none" fill-rule="evenodd">
        <g id="icons" transform="translate(-1544.000000, -1928.000000)" fill="#000000" fill-rule="nonzero">
            <g id="28-dashboard" transform="translate(1544.000000, 1928.000000)">
                <path d="M96,72 C104.836556,72 112,79.163444 112,88 L112,96 C112,104.836556 104.836556,112 96,112 L76,112 C67.163444,112 60,104.836556 60,96 L60,88 C60,79.163444 67.163444,72 76,72 L96,72 Z M36,48 C44.836556,48 52,55.163444 52,64 L52,96 C52,104.836556 44.836556,112 36,112 L16,112 C7.163444,112 0,104.836556 0,96 L0,64 C0,55.163444 7.163444,48 16,48 L36,48 Z M96,80 L76,80 C71.8973133,80 68.5159427,83.0883215 68.0538219,87.067031 L68,88 L68,96 C68,100.102687 71.0883215,103.484057 75.067031,103.946178 L76,104 L96,104 C100.102687,104 103.484057,100.911678 103.946178,96.932969 L104,96 L104,88 C104,83.8973133 100.911678,80.5159427 96.932969,80.0538219 L96,80 Z M36,56 L16,56 C11.8973133,56 8.51594271,59.0883215 8.05382185,63.067031 L8,64 L8,96 C8,100.102687 11.0883215,103.484057 15.067031,103.946178 L16,104 L36,104 C40.1026867,104 43.4840573,100.911678 43.9461781,96.932969 L44,96 L44,64 C44,59.8973133 40.9116785,56.5159427 36.932969,56.0538219 L36,56 Z M96,0 C104.836556,0 112,7.163444 112,16 L112,48 C112,56.836556 104.836556,64 96,64 L76,64 C67.163444,64 60,56.836556 60,48 L60,16 C60,7.163444 67.163444,0 76,0 L96,0 Z M96,8 L76,8 C71.8973133,8 68.5159427,11.0883215 68.0538219,15.067031 L68,16 L68,48 C68,52.1026867 71.0883215,55.4840573 75.067031,55.9461781 L76,56 L96,56 C100.102687,56 103.484057,52.9116785 103.946178,48.932969 L104,48 L104,16 C104,11.8973133 100.911678,8.51594271 96.932969,8.05382185 L96,8 Z M36,0 C44.836556,0 52,7.163444 52,16 L52,24 C52,32.836556 44.836556,40 36,40 L16,40 C7.163444,40 0,32.836556 0,24 L0,16 C0,7.163444 7.163444,0 16,0 L36,0 Z M36,8 L16,8 C11.8973133,8 8.51594271,11.0883215 8.05382185,15.067031 L8,16 L8,24 C8,28.1026867 11.0883215,31.4840573 15.067031,31.9461781 L16,32 L36,32 C40.1026867,32 43.4840573,28.9116785 43.9461781,24.932969 L44,24 L44,16 C44,11.8973133 40.9116785,8.51594271 36.932969,8.05382185 L36,8 Z" id="Combined-Shape"></path>
            </g>
        </g>
    </g>
</svg>