<svg width="64" height="64" viewBox="0 0 64 64" fill="none" xmlns="http://www.w3.org/2000/svg">
<path fill-rule="evenodd" clip-rule="evenodd" d="M55.1364 43.6574C50.937 45.3883 48.0042 47.1349 46.2968 48.8424C44.5892 50.55 42.8424 53.4831 41.1108 57.682C39.38 53.4826 37.6333 50.5498 35.9259 48.8424C34.2183 47.1348 31.2851 45.388 27.0863 43.6564C31.2856 41.9256 34.2184 40.1789 35.9259 38.4715C37.6335 36.7639 39.3803 33.8307 41.1119 29.6319C42.8427 33.8312 44.5893 36.764 46.2968 38.4715C48.0044 40.1791 50.9375 41.9259 55.1364 43.6574Z" stroke="black" stroke-width="3.6125"/>
<path fill-rule="evenodd" clip-rule="evenodd" d="M25.6942 18.0002C23.2471 19.1055 21.4959 20.2173 20.4136 21.2996C19.3312 22.382 18.2193 24.1335 17.1134 26.5803C16.008 24.1332 14.8962 22.3819 13.8139 21.2996C12.7315 20.2172 10.9801 19.1053 8.5333 17.9994C10.9804 16.8941 12.7316 15.7823 13.8139 14.7C14.8964 13.6176 16.0082 11.8661 17.1142 9.41933C18.2195 11.8664 19.3313 13.6177 20.4136 14.7C21.496 15.7824 23.2475 16.8943 25.6942 18.0002Z" stroke="black" stroke-width="3.6125"/>
<path fill-rule="evenodd" clip-rule="evenodd" d="M53.999 14.2007C54.6276 16.0863 55.2561 17.3434 55.8846 17.9719C56.5132 18.6005 57.7703 19.229 59.6559 19.8575C57.7703 20.4861 56.5132 21.1146 55.8846 21.7431C55.2561 22.3717 54.6276 23.6288 53.999 25.5144C53.3705 23.6288 52.7419 22.3717 52.1134 21.7432C51.4849 21.1146 50.2278 20.4861 48.3422 19.8575C50.2278 19.229 51.4849 18.6005 52.1134 17.9719C52.7419 17.3434 53.3705 16.0863 53.999 14.2007Z" fill="black"/>
<path fill-rule="evenodd" clip-rule="evenodd" d="M10.0024 42.2012C10.9453 45.0296 11.8881 46.9152 12.8309 47.858C13.7737 48.8008 15.6593 49.7436 18.4877 50.6864C15.6593 51.6293 13.7737 52.5721 12.8309 53.5149C11.8881 54.4577 10.9453 56.3433 10.0024 59.1717C9.05963 56.3433 8.11682 54.4577 7.17401 53.5149C6.23121 52.5721 4.34559 51.6293 1.51716 50.6864C4.34559 49.7436 6.23121 48.8008 7.17401 47.858C8.11682 46.9152 9.05963 45.0296 10.0024 42.2012Z" fill="black"/>
</svg>
