<?xml version="1.0" encoding="UTF-8"?>
<svg width="96px" height="124px" viewBox="0 0 96 124" version="1.1" xmlns="http://www.w3.org/2000/svg" xmlns:xlink="http://www.w3.org/1999/xlink">
    <title>29-lock</title>
    <g id="Page-1" stroke="none" stroke-width="1" fill="none" fill-rule="evenodd">
        <g id="icons" transform="translate(-1936.000000, -1922.000000)" fill="#000000" fill-rule="nonzero">
            <g id="29-lock" transform="translate(1936.000000, 1922.000000)">
                <path d="M48,0 C62.9485072,0 75.1610116,11.7142208 75.9585691,26.4637184 L76,28 L76.0008768,36.3319809 C87.3512987,38.2366545 96,48.108321 96,60 L96,100 C96,113.254834 85.254834,124 72,124 L24,124 C10.745166,124 0,113.254834 0,100 L0,60 C0,48.1079722 8.64920863,38.2360754 20.000122,36.3318133 L20,28 C20,12.536027 32.536027,0 48,0 Z M72,44 L24,44 C15.5651056,44 8.65467903,50.5270223 8.04388589,58.8059012 L8,60 L8,100 C8,108.434894 14.5270223,115.345321 22.8059012,115.956114 L24,116 L72,116 C80.4348944,116 87.345321,109.472978 87.9561141,101.194099 L88,100 L88,60 C88,51.5651056 81.4729777,44.654679 73.1940988,44.0438859 L72,44 Z M48,68 C50.209139,68 52,69.790861 52,72 L52,88 C52,90.209139 50.209139,92 48,92 C45.790861,92 44,90.209139 44,88 L44,72 C44,69.790861 45.790861,68 48,68 Z M48,8 C37.3961328,8 28.7196906,16.2522875 28.0425414,26.6849945 L28,28 L28,36 L68,36 L68,28 C68,16.954305 59.045695,8 48,8 Z" id="Combined-Shape"></path>
            </g>
        </g>
    </g>
</svg>