<?xml version="1.0" encoding="UTF-8"?>
<svg width="128px" height="120px" viewBox="0 0 128 120" version="1.1" xmlns="http://www.w3.org/2000/svg" xmlns:xlink="http://www.w3.org/1999/xlink">
    <title>30-map</title>
    <g id="Page-1" stroke="none" stroke-width="1" fill="none" fill-rule="evenodd">
        <g id="icons" transform="translate(-2304.000000, -1924.000000)" fill="#000000" fill-rule="nonzero">
            <g id="30-map" transform="translate(2304.000000, 1924.000000)">
                <path d="M40.5592259,1.08460848 C42.6251468,-0.361536159 45.3748532,-0.361536159 47.4407741,1.08460848 L47.4407741,1.08460848 L83.992,26.6786889 L118.559226,2.48460848 C121.027131,0.7570748 124.343373,1.14565333 126.353644,3.27017223 L126.353644,3.27017223 L126.915392,3.95922593 C127.621342,4.96772715 128,6.16896738 128,7.4 L128,7.4 L128,86.5173778 C128,88.4752605 127.044734,90.3099972 125.440774,91.4327693 L125.440774,91.4327693 L87.4407741,118.032769 C85.3748532,119.478914 82.6251468,119.478914 80.5592259,118.032769 L80.5592259,118.032769 L44,92.4306889 L9.44077407,116.632769 C6.97286881,118.360303 3.65662721,117.971724 1.64635632,115.847206 L1.64635632,115.847206 L1.08460848,115.158152 C0.378657623,114.149651 0,112.94841 0,111.717378 L0,111.717378 L0,32.6 C0,30.6421172 0.955265868,28.8073805 2.55922593,27.6846085 L2.55922593,27.6846085 Z M48,11.237 L48,85.476 L80,107.878 L80,33.641 L48,11.237 Z M120,11.2306889 L88,33.64 L88,107.877 L120,85.4706889 L120,11.2306889 Z M40,11.224 L8,33.6306889 L8,107.870689 L40,85.475 L40,11.224 Z" id="Combined-Shape"></path>
            </g>
        </g>
    </g>
</svg>