<svg width="64" height="64" viewBox="0 0 64 64" fill="none" xmlns="http://www.w3.org/2000/svg">
<path d="M32 2.1333C33.0309 2.1333 33.8666 2.96904 33.8666 3.99997L33.8671 9.67667C44.7492 10.5746 53.4256 19.2512 54.3233 30.1333L60 30.1333C61.0309 30.1333 61.8666 30.969 61.8666 32C61.8666 33.0309 61.0309 33.8666 60 33.8666L54.3233 33.8671C53.4253 44.749 44.749 53.4253 33.8671 54.3233L33.8666 60C33.8666 61.0309 33.0309 61.8666 32 61.8666C30.969 61.8666 30.1333 61.0309 30.1333 60L30.1333 54.3233C19.2512 53.4256 10.5746 44.7492 9.67667 33.8671L3.99997 33.8666C2.96904 33.8666 2.1333 33.0309 2.1333 32C2.1333 30.969 2.96904 30.1333 3.99997 30.1333L9.67663 30.1333C10.5744 19.251 19.251 10.5744 30.1333 9.67663L30.1333 3.99997C30.1333 2.96904 30.969 2.1333 32 2.1333ZM32 13.3333C21.6907 13.3333 13.3333 21.6907 13.3333 32C13.3333 42.3093 21.6907 50.6666 32 50.6666C42.3093 50.6666 50.6666 42.3093 50.6666 32C50.6666 21.6907 42.3093 13.3333 32 13.3333ZM32 20.8C38.1856 20.8 43.2 25.8144 43.2 32C43.2 38.1856 38.1856 43.2 32 43.2C25.8144 43.2 20.8 38.1856 20.8 32C20.8 25.8144 25.8144 20.8 32 20.8ZM32 24.5333C27.8762 24.5333 24.5333 27.8762 24.5333 32C24.5333 36.1237 27.8762 39.4666 32 39.4666C36.1237 39.4666 39.4666 36.1237 39.4666 32C39.4666 27.8762 36.1237 24.5333 32 24.5333Z" fill="black"/>
</svg>
