<svg width="64" height="64" viewBox="0 0 64 64" fill="none" xmlns="http://www.w3.org/2000/svg">
<path d="M51.8095 39.9237C56.1857 39.9237 59.7333 43.4714 59.7333 47.8476V51.8095C59.7333 56.1857 56.1857 59.7333 51.8095 59.7333H41.9047C37.5285 59.7333 33.9809 56.1857 33.9809 51.8095V47.8476C33.9809 43.4714 37.5285 39.9237 41.9047 39.9237H51.8095ZM22.0952 28.038C26.4714 28.038 30.019 31.5856 30.019 35.9618V51.8095C30.019 56.1857 26.4714 59.7333 22.0952 59.7333H12.1904C7.81421 59.7333 4.2666 56.1857 4.2666 51.8095V35.9618C4.2666 31.5856 7.81421 28.038 12.1904 28.038H22.0952ZM51.8095 43.8856H41.9047C39.8729 43.8856 38.1983 45.4151 37.9694 47.3855L37.9428 47.8476V51.8095C37.9428 53.8413 39.4722 55.5158 41.4427 55.7447L41.9047 55.7714H51.8095C53.8413 55.7714 55.5158 54.2419 55.7447 52.2715L55.7714 51.8095V47.8476C55.7714 45.8157 54.2419 44.1412 52.2715 43.9123L51.8095 43.8856ZM22.0952 31.9999H12.1904C10.1586 31.9999 8.48402 33.5294 8.25516 35.4998L8.22851 35.9618V51.8095C8.22851 53.8413 9.75796 55.5158 11.7284 55.7447L12.1904 55.7714H22.0952C24.127 55.7714 25.8016 54.2419 26.0304 52.2715L26.0571 51.8095V35.9618C26.0571 33.93 24.5276 32.2554 22.5572 32.0266L22.0952 31.9999ZM51.8095 4.2666C56.1857 4.2666 59.7333 7.81421 59.7333 12.1904V28.038C59.7333 32.4142 56.1857 35.9618 51.8095 35.9618H41.9047C37.5285 35.9618 33.9809 32.4142 33.9809 28.038V12.1904C33.9809 7.81421 37.5285 4.2666 41.9047 4.2666H51.8095ZM51.8095 8.22851H41.9047C39.8729 8.22851 38.1983 9.75796 37.9694 11.7284L37.9428 12.1904V28.038C37.9428 30.0698 39.4722 31.7444 41.4427 31.9733L41.9047 31.9999H51.8095C53.8413 31.9999 55.5158 30.4705 55.7447 28.5001L55.7714 28.038V12.1904C55.7714 10.1586 54.2419 8.48402 52.2715 8.25516L51.8095 8.22851ZM22.0952 4.2666C26.4714 4.2666 30.019 7.81421 30.019 12.1904V16.1523C30.019 20.5285 26.4714 24.0761 22.0952 24.0761H12.1904C7.81421 24.0761 4.2666 20.5285 4.2666 16.1523V12.1904C4.2666 7.81421 7.81421 4.2666 12.1904 4.2666H22.0952ZM22.0952 8.22851H12.1904C10.1586 8.22851 8.48402 9.75796 8.25516 11.7284L8.22851 12.1904V16.1523C8.22851 18.1841 9.75796 19.8587 11.7284 20.0876L12.1904 20.1142H22.0952C24.127 20.1142 25.8016 18.5848 26.0304 16.6144L26.0571 16.1523V12.1904C26.0571 10.1586 24.5276 8.48402 22.5572 8.25516L22.0952 8.22851Z" fill="black"/>
</svg>
