<?xml version="1.0" encoding="UTF-8"?>
<svg width="17px" height="17px" viewBox="0 0 17 17" version="1.1" xmlns="http://www.w3.org/2000/svg" xmlns:xlink="http://www.w3.org/1999/xlink">
    <title>31-tee</title>
    <g id="1" stroke="none" stroke-width="1" fill="none" fill-rule="evenodd">
        <g id="icons" transform="translate(-48.000000, -288.000000)" fill="#000000" fill-rule="nonzero">
            <g id="31-tee" transform="translate(48.123688, 288.121102)">
                <path d="M11.0476516,0.0570184103 L11.9596451,0.378898489 C12.894367,0.708800325 13.7524324,1.22492947 14.4819105,1.89604934 L15.4296504,2.76797005 C15.7041255,3.02048707 15.8152667,3.40476527 15.7179573,3.76481009 L15.0254821,6.32696834 C14.9534341,6.59354608 14.6789236,6.75124357 14.4123459,6.67919553 L14.3491842,6.65750488 L13.2096451,6.17889849 L14.0933334,14.2149384 C14.183886,15.0384016 13.5897446,15.7793579 12.7662814,15.8699106 C12.7118331,15.875898 12.6570977,15.8788985 12.6023213,15.8788985 L3.15030233,15.8788985 C2.3218752,15.8788985 1.65030233,15.2073256 1.65030233,14.3788985 C1.65030233,14.324122 1.65330279,14.2693867 1.65929022,14.2149384 L2.54297846,6.17889849 L1.40343942,6.65750488 C1.1488411,6.76443618 0.855763427,6.6447284 0.748832129,6.39013007 L0.727141485,6.32696834 L0.0346662804,3.76481009 C-0.0626431284,3.40476527 0.0484981158,3.02048707 0.322973143,2.76797005 L1.27071305,1.89604934 C2.00019116,1.22492947 2.85825659,0.708800325 3.79297846,0.378898489 L4.70497202,0.0570184103 C5.02026384,-0.0542610571 5.37030958,-0.000603168883 5.63779213,0.200008744 L6.54297846,0.878898489 C7.33310192,1.47149108 8.41952167,1.47149108 9.20964513,0.878898489 L10.1148315,0.200008744 C10.382314,-0.000603168883 10.7323597,-0.0542610571 11.0476516,0.0570184103 Z M10.7148315,1.00000874 L9.80964513,1.67889849 C8.71852226,2.49724064 7.23771265,2.53620931 6.10947676,1.79580451 L5.94297846,1.67889849 L5.03779213,1.00000874 L4.12579858,1.32188882 C3.41954066,1.57115632 2.76396286,1.94354489 2.18910675,2.4209844 L1.94776958,2.63198035 L1.00002967,3.50390106 L1.54331179,5.51389849 L2.15574598,5.25691638 C2.82361434,4.97641167 3.54432337,5.47556347 3.54326469,6.1760185 L3.53698653,6.28820522 L2.65329829,14.3242451 C2.65130248,14.3423945 2.65030233,14.3606397 2.65030233,14.3788985 C2.65030233,14.6243584 2.82717749,14.8285069 3.06042669,14.8708428 L3.15030233,14.8788985 L12.6023213,14.8788985 C12.6205801,14.8788985 12.6388252,14.8778983 12.6569746,14.8759025 C12.9009637,14.8490721 13.0845553,14.650942 13.1011419,14.4144628 L13.0993253,14.3242451 L12.2156371,6.28820522 C12.1364571,5.56816246 12.8198137,5.01898329 13.4910985,5.21902099 L13.5968776,5.25691638 L14.2083118,5.51389849 L14.7525939,3.50390106 L13.804854,2.63198035 C13.2536743,2.12489505 12.6174813,1.72027926 11.9263165,1.43620309 L11.626825,1.32188882 L10.7148315,1.00000874 Z" id="Path-40"></path>
            </g>
        </g>
    </g>
</svg>