<svg width="64" height="64" viewBox="0 0 64 64" fill="none" xmlns="http://www.w3.org/2000/svg">
<path fill-rule="evenodd" clip-rule="evenodd" d="M33.759 6.06021L53.1263 19.9649C54.1398 20.6925 54.7408 21.8637 54.7408 23.1114V54.7931C54.7408 56.9324 53.0066 58.6666 50.8673 58.6666H43.1204C40.9811 58.6666 39.2469 56.9324 39.2469 54.7931V41.683C39.2469 39.5438 37.5127 37.8096 35.3735 37.8096H27.6266C25.4873 37.8096 23.7531 39.5438 23.7531 41.683V54.7931C23.7531 56.9324 22.0189 58.6666 19.8796 58.6666H12.1327C9.99348 58.6666 8.25928 56.9324 8.25928 54.7931V23.1114C8.25928 21.8637 8.86023 20.6925 9.87371 19.9649L29.241 6.06021C30.5911 5.09093 32.409 5.09093 33.759 6.06021Z" stroke="black" stroke-width="3.61"/>
</svg>
