<?xml version="1.0" encoding="UTF-8"?>
<svg width="16px" height="16px" viewBox="0 0 16 16" version="1.1" xmlns="http://www.w3.org/2000/svg" xmlns:xlink="http://www.w3.org/1999/xlink">
    <title>32-tee-alt</title>
    <g id="1" stroke="none" stroke-width="1" fill="none" fill-rule="evenodd">
        <g id="icons" transform="translate(-96.000000, -288.000000)" stroke="#000000">
            <g id="32-tee-alt" transform="translate(96.000000, 288.000000)">
                <path d="M4.66389854,0.672957064 C4.82591463,0.608150629 5.00999655,0.632497409 5.14959388,0.73719541 L5.14959388,0.73719541 L8,2.875 L10.8504061,0.73719541 L12.0643047,0.964238345 C12.8343612,1.27226096 13.5418855,1.71794613 14.1522492,2.27948076 L14.1522492,2.27948076 L15.2148104,3.25703707 C15.2834291,3.32016632 15.3316312,3.39976573 15.3565967,3.48608561 C15.3815622,3.5724055 15.3832912,3.66544588 15.3589638,3.75545708 L15.3589638,3.75545708 L14.7750593,5.91590392 L12.7701035,5.75241264 L13.7200175,14.3906933 C13.7502018,14.665181 13.6662703,14.9259176 13.5061708,15.1255783 C13.3508158,15.3193222 13.1237403,15.4555565 12.8596172,15.4910403 L12.8596172,15.4910403 L3.27399053,15.5 C2.99784816,15.5 2.74784816,15.3880712 2.56688375,15.2071068 C2.39127439,15.0314974 2.28067532,14.7908778 2.27428346,14.5244448 L2.27428346,14.5244448 L3.25558495,5.51034445 L1.77450375,6.13239855 L0.632698005,3.71936499 C0.617581181,3.64078904 0.621761877,3.56091232 0.643403316,3.48608561 C0.668368823,3.39976573 0.716570857,3.32016632 0.785189613,3.25703707 L0.785189613,3.25703707 L1.84775082,2.27948076 C2.45811454,1.71794613 3.1656388,1.27226096 3.93569534,0.964238345 L3.93569534,0.964238345 Z" id="Path-40"></path>
            </g>
        </g>
    </g>
</svg>