<svg width="64" height="64" viewBox="0 0 64 64" fill="none" xmlns="http://www.w3.org/2000/svg">
<path d="M21.3732 5.48974C22.3098 4.83415 23.5563 4.83415 24.4929 5.48974L41.0628 17.0924L56.7334 6.12441C57.8522 5.34125 59.3555 5.51741 60.2669 6.48053L60.5215 6.7929C60.8416 7.25009 61.0132 7.79465 61.0132 8.35272V44.2193C61.0132 45.1069 60.5802 45.9387 59.853 46.4477L42.6263 58.5064C41.6897 59.1619 40.4432 59.1619 39.5067 58.5064L22.9331 46.9001L7.26616 57.8717C6.14737 58.6548 4.64401 58.4787 3.73268 57.5156L3.47802 57.2032C3.15799 56.746 2.98633 56.2014 2.98633 55.6434V19.7767C2.98633 18.8892 3.41938 18.0574 4.14652 17.5484L21.3732 5.48974ZM24.7464 10.0922V43.7473L39.2531 53.9029V20.2487L24.7464 10.0922ZM57.3865 10.0893L42.8798 20.2482V53.9024L57.3865 43.7448V10.0893ZM21.1197 10.0863L6.61301 20.244V53.8995L21.1197 43.7468V10.0863Z" fill="black"/>
</svg>
