<?xml version="1.0" encoding="UTF-8"?>
<svg width="10px" height="16px" viewBox="0 0 10 16" version="1.1" xmlns="http://www.w3.org/2000/svg" xmlns:xlink="http://www.w3.org/1999/xlink">
    <title>33-restaurant</title>
    <g id="1" stroke="none" stroke-width="1" fill="none" fill-rule="evenodd">
        <g id="icons" transform="translate(-147.000000, -288.000000)" fill="#000000" fill-rule="nonzero">
            <g id="33-restaurant" transform="translate(147.000000, 288.500000)">
                <path d="M0.5,4.06634211e-07 C0.745459889,4.06634211e-07 0.94960837,0.176875567 0.991944331,0.410124774 L1,0.500000407 L1,4.79289363 C1,5.0673033 1.09343613,5.33207946 1.26268992,5.54468735 L1.35355339,5.64644702 C1.72147589,6.01436952 1.94608658,6.49881424 1.99145781,7.01304418 L2,7.20710719 L2,14.5000004 C2,14.7761428 1.77614237,15.0000004 1.5,15.0000004 C1.25454011,15.0000004 1.05039163,14.8231252 1.00805567,14.589876 L1,14.5000004 L1,7.20710719 C1,6.93269751 0.906563869,6.66792135 0.737310077,6.45531347 L0.646446609,6.3535538 C0.278524109,5.9856313 0.0539134242,5.50118658 0.00854219168,4.98695663 L1.24344979e-14,4.79289363 L1.24344979e-14,0.500000407 C1.24344979e-14,0.223858032 0.223857625,4.06634211e-07 0.5,4.06634211e-07 Z M4.25,4.06634211e-07 C4.49545989,4.06634211e-07 4.69960837,0.176875567 4.74194433,0.410124774 L4.75,0.500000407 L4.75,4.79289363 L4.74145781,4.98695663 C4.70175798,5.43690783 4.52482795,5.86405472 4.23473642,6.21029029 L4.10355339,6.3535538 L4.01268992,6.45531347 C3.8716451,6.6324867 3.78325142,6.84588791 3.75770478,7.07090206 L3.75,7.20710719 L3.75,14.5000004 L3.74194433,14.589876 C3.69960837,14.8231252 3.49545989,15.0000004 3.25,15.0000004 C3.00454011,15.0000004 2.80039163,14.8231252 2.75805567,14.589876 L2.75,14.5000004 L2.75,7.20710719 L2.75854219,7.01304418 C2.79824202,6.56309298 2.97517205,6.13594609 3.26526358,5.78971052 L3.39644661,5.64644702 L3.48731008,5.54468735 C3.6283549,5.36751411 3.71674858,5.1541129 3.74229522,4.92909875 L3.75,4.79289363 L3.75,0.500000407 L3.75805567,0.410124774 C3.80039163,0.176875567 4.00454011,4.06634211e-07 4.25,4.06634211e-07 Z M7.59,4.06634191e-07 C8.40714067,4.06634191e-07 9.11942115,0.556132201 9.31760688,1.34887509 L9.31760688,1.34887509 L9.89316953,3.65112572 C10.0325045,4.20846572 10.0325045,4.7915351 9.89316953,5.34887509 L9.89316953,5.34887509 L9.16464375,8.26297822 C9.11506837,8.46127973 9.09,8.66491277 9.09,8.86931728 L9.09,8.86931728 L9.09,13.5000004 C9.09,14.3284275 8.41842712,15.0000004 7.59,15.0000004 C6.76157288,15.0000004 6.09,14.3284275 6.09,13.5000004 L6.09,13.5000004 L6.09,1.50000041 C6.09,0.671573282 6.76157288,4.06634191e-07 7.59,4.06634191e-07 Z M7.59,1.00000041 C7.31385763,1.00000041 7.09,1.22385803 7.09,1.50000041 L7.09,1.50000041 L7.09,13.5000004 C7.09,13.7761428 7.31385763,14.0000004 7.59,14.0000004 C7.86614237,14.0000004 8.09,13.7761428 8.09,13.5000004 L8.09,13.5000004 L8.09,8.86931728 C8.09,8.58315096 8.12509572,8.29806471 8.19450125,8.0204426 L8.19450125,8.0204426 L8.92302703,5.10633947 C9.02255203,4.70823947 9.02255203,4.29176134 8.92302703,3.89366134 L8.92302703,3.89366134 L8.34746437,1.59141072 C8.2605704,1.24383483 7.94827303,1.00000041 7.59,1.00000041 Z M2.374375,3.98110911e-07 C2.6198347,-0.000306027363 2.82420411,0.17631381 2.8668316,0.409509915 L2.87499999,0.499375407 L2.88000001,4.49937541 C2.88034479,4.77551757 2.65676716,4.99965484 2.380625,5.0000004 C2.1351653,5.00030684 1.93079589,4.823687 1.8881684,4.5904909 L1.88000039,4.50062541 L1.87499999,0.500625406 C1.87465521,0.224483247 2.09823284,0.000345974958 2.374375,3.98110911e-07 Z" id="Combined-Shape"></path>
            </g>
        </g>
    </g>
</svg>