<svg width="64" height="64" viewBox="0 0 64 64" fill="none" xmlns="http://www.w3.org/2000/svg">
<path d="M31.9926 3.2002C38.9364 3.2002 44.6093 8.64164 44.9798 15.493L44.9991 16.2066L44.9995 20.077C50.2719 20.9617 54.2894 25.5473 54.2894 31.0712V49.6518C54.2894 55.8089 49.2981 60.8002 43.141 60.8002H20.8442C14.6871 60.8002 9.6958 55.8089 9.6958 49.6518V31.0712C9.6958 25.5471 13.7135 20.9615 18.9862 20.0769L18.9861 16.2066C18.9861 9.02338 24.8093 3.2002 31.9926 3.2002ZM43.141 23.6389H20.8442C16.9261 23.6389 13.716 26.6708 13.4323 30.5165L13.4119 31.0712V49.6518C13.4119 53.5699 16.4438 56.78 20.2895 57.0637L20.8442 57.0841H43.141C47.0591 57.0841 50.2692 54.0522 50.5529 50.2065L50.5733 49.6518V31.0712C50.5733 27.153 47.5414 23.943 43.6957 23.6593L43.141 23.6389ZM31.9926 34.7873C33.0188 34.7873 33.8507 35.6192 33.8507 36.6454V44.0776C33.8507 45.1038 33.0188 45.9357 31.9926 45.9357C30.9664 45.9357 30.1345 45.1038 30.1345 44.0776V36.6454C30.1345 35.6192 30.9664 34.7873 31.9926 34.7873ZM31.9926 6.91632C27.0669 6.91632 23.0366 10.7496 22.722 15.5958L22.7023 16.2066V19.9228H41.2829V16.2066C41.2829 11.0757 37.1235 6.91632 31.9926 6.91632Z" fill="black"/>
</svg>
