<svg width="64" height="64" viewBox="0 0 64 64" fill="none" xmlns="http://www.w3.org/2000/svg">
<path d="M49.8108 4.2666C50.9153 4.2666 51.8107 5.16203 51.8107 6.2666V57.7333C51.8107 58.8378 50.9153 59.7333 49.8107 59.7333H14.1919C13.0873 59.7333 12.1919 58.8378 12.1919 57.7333V6.2666C12.1919 5.16203 13.0873 4.2666 14.1919 4.2666H49.8108ZM47.8489 10.2285C47.8489 9.12394 46.9534 8.22851 45.8489 8.22851H18.1538C17.0492 8.22851 16.1538 9.12394 16.1538 10.2285V53.7714C16.1538 54.8759 17.0492 55.7714 18.1538 55.7714H45.8489C46.9534 55.7714 47.8489 54.8759 47.8489 53.7714V10.2285Z" fill="black"/>
<path d="M32.0014 28.0381C38.5656 28.0381 43.887 33.3595 43.887 39.9238C43.887 46.4881 38.5656 51.8095 32.0014 51.8095C25.4371 51.8095 20.1157 46.4881 20.1157 39.9238C20.1157 33.3595 25.4371 28.0381 32.0014 28.0381ZM32.0014 32C27.6252 32 24.0776 35.5476 24.0776 39.9238C24.0776 44.3 27.6252 47.8476 32.0014 47.8476C36.3776 47.8476 39.9251 44.3 39.9251 39.9238C39.9251 35.5476 36.3776 32 32.0014 32Z" fill="black"/>
<path d="M32.0014 20.1142C34.1895 20.1142 35.9633 18.3404 35.9633 16.1523C35.9633 13.9642 34.1895 12.1904 32.0014 12.1904C29.8133 12.1904 28.0396 13.9642 28.0396 16.1523C28.0396 18.3404 29.8133 20.1142 32.0014 20.1142Z" fill="black"/>
</svg>
