<svg width="56" height="56" viewBox="0 0 56 56" fill="none" xmlns="http://www.w3.org/2000/svg">
<path d="M44.4873 7.19399C45.2607 7.73538 45.5138 8.74296 45.1328 9.57128L44.9599 9.87223L20.3337 45.0526C18.6728 47.4253 16.0397 48.9122 13.1766 49.1269L12.4565 49.1539H10.6923C6.44395 49.1539 3 45.7099 3 41.4616C3 37.4064 6.13798 34.0841 10.1182 33.7904L10.6923 33.7693H16.4615C17.5236 33.7693 18.3846 34.6303 18.3846 35.6924C18.3846 36.6365 17.7043 37.4217 16.8072 37.5845L16.4615 37.6155H10.6923C8.56812 37.6155 6.84614 39.3374 6.84614 41.4616C6.84614 43.434 8.33091 45.0597 10.2437 45.2819L10.6923 45.3077H12.4565C14.1299 45.3077 15.7097 44.582 16.7983 43.3375L17.1828 42.847L41.809 7.66662C42.4181 6.79653 43.6172 6.58492 44.4873 7.19399ZM45.3077 33.7693L45.8818 33.7904C49.862 34.0841 53 37.4064 53 41.4616C53 45.7099 49.556 49.1539 45.3077 49.1539H43.5435L42.8234 49.1269C39.9603 48.9122 37.3272 47.4253 35.6663 45.0526L30.2705 37.3442L30.0976 37.0433C29.7166 36.2149 29.9697 35.2074 30.7431 34.666C31.6132 34.0569 32.8123 34.2685 33.4214 35.1386L38.8172 42.847L39.2017 43.3375C40.2903 44.582 41.8701 45.3077 43.5435 45.3077H45.3077L45.7563 45.2819C47.6691 45.0597 49.1539 43.434 49.1539 41.4616C49.1539 39.3374 47.4319 37.6155 45.3077 37.6155H39.5385L39.1928 37.5845C38.2957 37.4217 37.6154 36.6365 37.6154 35.6924C37.6154 34.6303 38.4764 33.7693 39.5385 33.7693H45.3077ZM11.5125 7.19399C12.3826 6.58492 13.5817 6.79653 14.1908 7.66662L25.8106 24.2664L25.9835 24.5673C26.3645 25.3956 26.1114 26.4032 25.338 26.9446C24.4679 27.5537 23.2688 27.3421 22.6597 26.472L11.0399 9.87223L10.8671 9.57128C10.486 8.74296 10.7391 7.73538 11.5125 7.19399Z" fill="black"/>
</svg>
