<svg width="56" height="56" viewBox="0 0 56 56" fill="none" xmlns="http://www.w3.org/2000/svg">
<g clip-path="url(#clip0_231_25781)">
<path d="M43.7156 5.05474L43.8732 5.44626L48.8495 20.4349C49.1096 21.2185 49.0719 22.0655 48.7525 22.8168L48.5694 23.1838L32.464 51.0793C31.5992 52.5771 29.759 53.1607 28.209 52.4907L27.8571 52.3137L7.41219 40.5098C5.91435 39.645 5.33082 37.8048 6.00075 36.2548L6.17776 35.9028L22.2832 8.00736C22.696 7.29227 23.3541 6.75777 24.1278 6.49732L24.5238 6.39036L39.9924 3.20567C41.5273 2.88964 43.0565 3.67232 43.7156 5.05474ZM40.6724 6.50893L25.2039 9.69363L9.09845 37.5891L29.5433 49.393L45.6487 21.4975L40.6724 6.50893ZM36.1835 14.284C38.6031 15.6809 39.4321 18.7749 38.0352 21.1945C36.6382 23.6141 33.5443 24.4431 31.1247 23.0461C28.7052 21.6492 27.8761 18.5552 29.2731 16.1356C30.67 13.716 33.7639 12.887 36.1835 14.284ZM34.4973 17.2047C33.6907 16.739 32.6594 17.0154 32.1938 17.8219C31.7281 18.6284 32.0045 19.6598 32.811 20.1254C33.6175 20.5911 34.6488 20.3147 35.1145 19.5082C35.5801 18.7017 35.3038 17.6703 34.4973 17.2047Z" fill="black"/>
</g>
<defs>
<clipPath id="clip0_231_25781">
<rect width="56" height="56" fill="white"/>
</clipPath>
</defs>
</svg>
