<svg width="56" height="56" viewBox="0 0 56 56" fill="none" xmlns="http://www.w3.org/2000/svg">
<path d="M36.1917 44.064C33.2264 45.9646 29.7003 47.0667 25.9168 47.0667C22.1332 47.0667 18.6071 45.9646 15.6418 44.064L16.6363 49.0411L16.711 49.3386C16.9327 50.0196 17.5542 50.4941 18.2689 50.531L18.3587 50.5333L33.3734 50.5363L33.6798 50.5213C34.391 50.4376 34.9782 49.9212 35.1547 49.227L35.1746 49.1393L36.1917 44.064ZM25.9168 19.3333C26.7677 19.3333 27.4754 19.9465 27.6222 20.7551L27.6501 21.0667V27.2824L30.6091 30.241C31.2108 30.8427 31.2776 31.7767 30.8096 32.4523L30.6091 32.6923C30.0074 33.294 29.0734 33.3609 28.3978 32.8929L28.1578 32.6923L24.1834 28.718V21.0667C24.1834 20.1094 24.9595 19.3333 25.9168 19.3333ZM44.9817 28.205L44.9812 28.2479V28.2639L44.9812 28.2909L44.9797 28.3778C44.9784 28.4475 44.9766 28.5172 44.9745 28.5869C44.9735 28.6207 44.9724 28.6543 44.9712 28.688C44.9693 28.7412 44.9672 28.7945 44.9648 28.8478C44.9564 29.0409 44.9451 29.2332 44.931 29.4247C45.3814 29.1121 45.6767 28.5905 45.6767 28C45.6767 27.4096 45.3816 26.8881 44.9307 26.5752L44.9334 26.6087C44.9591 26.9647 44.975 27.3235 44.9808 27.6847L44.9834 28L44.9825 28.1031L44.9817 28.205ZM6.85096 27.8106V27.8687L6.8514 27.7946L6.85096 27.8007L6.85182 27.7419L6.85232 27.7063L6.85377 27.6222C6.85515 27.5523 6.85689 27.4826 6.859 27.4128C6.8602 27.3721 6.86156 27.3312 6.86306 27.2904C6.86482 27.2438 6.86669 27.1975 6.86873 27.1512C6.88087 26.8723 6.89908 26.5949 6.92317 26.3192C6.92755 26.2717 6.93191 26.2241 6.93643 26.1765C6.94284 26.1061 6.94988 26.0361 6.9573 25.9661C6.96032 25.9406 6.9631 25.915 6.96592 25.8894C6.97113 25.8391 6.97687 25.7888 6.9828 25.7386C6.9875 25.702 6.99191 25.6656 6.99643 25.6292C7.17012 24.2256 7.49681 22.8691 7.959 21.577L7.99312 21.4834C8.01109 21.433 8.0295 21.383 8.04812 21.3332C8.06635 21.2851 8.08455 21.2369 8.10293 21.1888C8.11013 21.1693 8.11766 21.1497 8.12522 21.1302L8.14877 21.0701L8.19712 20.9474C8.23609 20.8491 8.27607 20.7511 8.31683 20.6536C8.32545 20.6333 8.3341 20.6127 8.3428 20.5921C8.36293 20.5441 8.38325 20.4965 8.40377 20.449C8.4172 20.418 8.43075 20.3868 8.44439 20.3557C8.46258 20.314 8.48087 20.2727 8.4993 20.2314C8.56645 20.0811 8.63568 19.9313 8.70686 19.7824C8.71219 19.7714 8.71739 19.7606 8.72259 19.7498C8.88599 19.4095 9.05974 19.0739 9.24345 18.7437C9.25381 18.7255 9.26398 18.7073 9.27418 18.6891C9.50534 18.2763 9.75234 17.8718 10.0145 17.4765C10.0233 17.4636 10.0321 17.4504 10.0409 17.4373C10.352 16.9703 10.6844 16.5163 11.0374 16.0765C11.0684 16.0379 11.0997 15.9992 11.1311 15.9607C11.1616 15.9232 11.1924 15.8858 11.2233 15.8485C11.2455 15.8216 11.2679 15.7947 11.2904 15.7679L11.3404 15.7084L11.3542 15.6916L13.2597 6.1802C13.7047 3.95526 15.5306 2.30096 17.7377 2.03693L17.868 2.02301L18.3587 2H33.4748C35.9092 2 38.0113 3.68766 38.546 6.05006L38.5736 6.17958L40.4788 15.6914C40.6509 15.8949 40.8189 16.102 40.9825 16.3127C41.0238 16.3656 41.0648 16.419 41.1055 16.4725C41.1232 16.4959 41.141 16.5194 41.1587 16.543C41.3677 16.8204 41.5686 17.1028 41.7614 17.3902C41.7831 17.4229 41.8049 17.4556 41.8266 17.4884C42.0861 17.8799 42.3305 18.2804 42.5596 18.6891C42.5731 18.7138 42.5869 18.7385 42.6006 18.7632C42.6307 18.817 42.6603 18.871 42.6897 18.9251C42.6997 18.9441 42.7099 18.9629 42.72 18.9818C42.7907 19.1127 42.8597 19.2448 42.9271 19.3776C42.9514 19.4257 42.9757 19.474 42.9998 19.5224C43.1231 19.7704 43.2408 20.0207 43.3529 20.2736L43.3964 20.3723C43.4182 20.4224 43.4398 20.4724 43.4612 20.5225C43.4795 20.5651 43.4976 20.608 43.5156 20.651C43.5306 20.6873 43.5456 20.7234 43.5604 20.7595C43.5822 20.8123 43.6037 20.8653 43.625 20.9185C43.6375 20.9501 43.65 20.9816 43.6624 21.0131C43.6828 21.0644 43.7029 21.116 43.7227 21.1677L43.7591 21.264C43.9503 21.7694 44.1204 22.2852 44.2686 22.8103C46.989 22.9778 49.1434 25.2373 49.1434 28C49.1434 30.7029 47.0811 32.9242 44.4442 33.1762L44.2701 33.1845C44.1516 33.6046 44.0192 34.0187 43.8733 34.4264C43.8656 34.4468 43.8582 34.4673 43.8508 34.4878C43.8301 34.5461 43.8088 34.6041 43.7872 34.662C43.7782 34.6852 43.7695 34.7086 43.7606 34.732C43.7388 34.7906 43.7165 34.8488 43.6939 34.9068C43.6877 34.9223 43.6816 34.9379 43.6755 34.9535L43.6695 34.9671L43.6513 35.0135L43.6435 35.0334L43.6382 35.0484C43.6257 35.08 43.613 35.1115 43.6003 35.1429L43.6167 35.1006L43.5897 35.1687C43.5606 35.2403 43.5312 35.3116 43.5013 35.3828C43.4813 35.4305 43.4612 35.4778 43.4409 35.525C43.4223 35.5683 43.4034 35.6118 43.3843 35.6552C43.3707 35.6863 43.3571 35.7173 43.3433 35.7482C43.2839 35.8815 43.223 36.0143 43.1605 36.1463C43.1454 36.1782 43.1303 36.2099 43.1151 36.2415C42.9499 36.586 42.7742 36.9253 42.5884 37.2593C42.5824 37.2697 42.5766 37.28 42.5708 37.2904C42.0539 38.2157 41.4585 39.0991 40.7896 39.9316C40.7713 39.9543 40.753 39.977 40.7346 39.9997C40.7003 40.0421 40.6659 40.0841 40.6313 40.126C40.6039 40.1592 40.5763 40.1924 40.5486 40.2256L40.4963 40.2878L40.4772 40.3101L38.5738 49.8198C38.1717 51.8302 36.635 53.3914 34.6106 53.864L34.475 53.8939L33.9839 53.9731L33.4748 54H18.3587C16.146 54 14.1872 52.6014 13.4299 50.4442L13.3859 50.3138L13.2598 49.82L11.3547 40.3086C11.2258 40.1561 11.0991 40.0016 10.9749 39.8451C10.8892 39.7373 10.8048 39.6286 10.7216 39.5191L10.6706 39.4514C10.4573 39.1681 10.2525 38.8795 10.0561 38.5859L10.0126 38.5202C9.97635 38.466 9.94062 38.4114 9.90517 38.3568C9.89146 38.3352 9.87761 38.3137 9.86381 38.2922L9.85452 38.2782C9.65194 37.9623 9.45892 37.6408 9.27567 37.314C9.25714 37.2805 9.23849 37.247 9.21994 37.2135C9.19646 37.1715 9.17335 37.1293 9.15041 37.087L9.09517 36.9841C9.01396 36.8328 8.93499 36.6802 8.85811 36.5267C8.79463 36.3996 8.73245 36.2719 8.67165 36.1434C8.60618 36.005 8.54256 35.8662 8.48063 35.7265C8.46385 35.6888 8.44709 35.6507 8.43045 35.6126C8.41241 35.571 8.39458 35.5297 8.37691 35.4883C8.35793 35.4441 8.33911 35.3996 8.32045 35.3551C8.30089 35.308 8.28147 35.261 8.26225 35.214C8.24664 35.1762 8.23123 35.1382 8.21594 35.1001C8.19835 35.0558 8.18083 35.0116 8.16346 34.9674C8.14557 34.9224 8.12799 34.8772 8.11059 34.8318C8.09326 34.786 8.07587 34.7401 8.05866 34.6942C7.50942 33.2304 7.13529 31.6812 6.96138 30.072L6.94833 29.9445C6.94283 29.8931 6.93782 29.8415 6.93301 29.7899C6.92879 29.742 6.9245 29.694 6.92039 29.6461C6.91615 29.5991 6.9123 29.552 6.90861 29.5049C6.90566 29.4646 6.90263 29.4243 6.89973 29.3839C6.86677 28.9269 6.8501 28.4654 6.8501 28L6.85096 27.8687L6.85053 27.8964L6.85096 27.8106ZM13.6578 18.351L13.6339 18.3809L13.6318 18.3839L13.6131 18.4077L13.5621 18.474L13.5813 18.4488L13.5086 18.5432L13.4567 18.611L13.4948 18.5617L13.4211 18.6594L13.3986 18.689L13.3783 18.7163L13.374 18.722L13.3436 18.7631L13.3481 18.7577C12.5039 19.9038 11.8127 21.1696 11.3046 22.5249L11.1985 22.8167C11.0956 23.1091 11.0011 23.4055 10.9153 23.7056L10.9024 23.7502L10.8479 23.949C10.8261 24.0303 10.8049 24.112 10.7844 24.1939L10.7247 24.4404C10.6886 24.595 10.6548 24.7506 10.6234 24.907C10.5964 25.0411 10.5712 25.1757 10.5477 25.3108C10.5256 25.4378 10.5051 25.5651 10.4862 25.693L10.4797 25.7345L10.4793 25.7384L10.4706 25.8L10.4693 25.8091L10.468 25.819L10.4585 25.8886L10.4585 25.8892L10.4563 25.9044L10.4546 25.917L10.4533 25.9274L10.4437 26.0007L10.4394 26.0348L10.437 26.0535L10.4299 26.1094L10.4273 26.1319L10.4281 26.1271L10.4273 26.1336L10.4239 26.1619L10.4221 26.1761L10.4138 26.2476V26.2502L10.4121 26.2619V26.2636L10.4102 26.2824L10.406 26.3191L10.399 26.3888L10.3987 26.3906L10.3975 26.4033L10.3891 26.4868L10.3861 26.5184L10.3843 26.5385L10.3809 26.5748L10.3792 26.5951L10.3779 26.6086L10.3783 26.6073L10.3761 26.6298V26.632L10.3727 26.6697L10.3723 26.6741L10.3705 26.6939L10.3679 26.7286L10.3665 26.7459L10.3653 26.7594L10.3636 26.7789L10.3631 26.7849L10.3584 26.8499V26.8512L10.3566 26.8725V26.8746L10.356 26.8844L10.3557 26.8895L10.3545 26.9015L10.3514 26.9522L10.3506 26.9656L10.3501 26.9695L10.3497 26.9782L10.348 27.0038L10.3449 27.0555L10.3463 27.0334L10.3423 27.0995L10.3401 27.1403L10.3358 27.2204L10.3354 27.2265L10.3348 27.2426L10.3341 27.2538L10.3315 27.3153L10.3311 27.324L10.3302 27.3513V27.3522H10.3298L10.3293 27.3656L10.3276 27.4128L10.325 27.48L10.3251 27.4846L10.327 27.4303C10.3249 27.4882 10.3231 27.5461 10.3217 27.6041C10.3184 27.7359 10.3168 27.8678 10.3168 28L10.318 28.1981L10.3217 28.3958L10.3241 28.4828L10.3241 28.4992L10.325 28.5248L10.3254 28.5334L10.327 28.5696L10.3267 28.5716L10.3276 28.5867V28.5932L10.3289 28.6244L10.3302 28.6539L10.3315 28.6842L10.3319 28.6951L10.3328 28.7137L10.3354 28.7674L10.3393 28.8476L10.34 28.8583L10.3397 28.8593L10.3428 28.9091L10.3475 28.9872L10.348 28.9958L10.3497 29.0214L10.3506 29.0352L10.351 29.04L10.354 29.0877L10.3549 29.1024L10.3575 29.1366L10.3592 29.16L10.3629 29.2089L10.3631 29.2142L10.3639 29.221L10.3653 29.2402L10.3688 29.2835L10.3705 29.3056L10.3724 29.326L10.3727 29.3299L10.3736 29.3412L10.3757 29.3672L10.3774 29.3836L10.3792 29.4062L10.3809 29.4244L10.3826 29.4443L10.3883 29.5045L10.3904 29.5279L10.3942 29.5639L10.3952 29.5752L10.3956 29.5808L10.3962 29.5845L10.4026 29.6458L10.4069 29.6883L10.4082 29.7008L10.4086 29.703L10.4156 29.7667L10.4182 29.7897L10.4225 29.8265L10.424 29.8382L10.4241 29.8394L10.4242 29.8421L10.4273 29.8672L10.4294 29.8841L10.4366 29.9427L10.4368 29.9444L10.4394 29.9647L10.4437 30.0003L10.452 30.064L10.4544 30.0815L10.4589 30.1151L10.4667 30.1736L10.4679 30.18L10.4693 30.1905L10.5057 30.4352C10.519 30.5201 10.533 30.6047 10.5477 30.6891C10.5674 30.8025 10.5883 30.9155 10.6104 31.0281L10.6591 31.2656L10.7065 31.4813C10.7119 31.5049 10.7173 31.5284 10.7228 31.552C10.774 31.7714 10.8298 31.9892 10.8901 32.2051C10.9778 32.5191 11.075 32.8291 11.1816 33.1348C11.6877 34.5874 12.4025 35.9421 13.2902 37.1632L13.3631 37.2627L13.4212 37.3405L13.4008 37.3136L13.4208 37.3408L13.4554 37.3864L13.4368 37.3616L13.5088 37.4566L13.562 37.526L13.4946 37.4384C13.5393 37.4971 13.5844 37.5555 13.6299 37.6136L13.5814 37.551L13.6579 37.6489L13.7067 37.7106L13.7462 37.7604L13.7352 37.7461L13.8057 37.8336L13.8558 37.8947L13.8606 37.9008L13.9095 37.9602L13.9134 37.9645L13.928 37.9822L13.9511 38.0097L14.0096 38.0793L14.0408 38.1162L14.0928 38.1766L14.053 38.13L14.1678 38.263C17.0274 41.5339 21.2308 43.6 25.9168 43.6C30.8214 43.6 35.1974 41.3365 38.0572 37.7972C38.1579 37.6726 38.2567 37.5464 38.3536 37.4187C39.7524 35.5745 40.7505 33.4095 41.218 31.0536C41.2346 30.9702 41.2504 30.8866 41.2656 30.8029L41.3076 30.5606L41.3459 30.317L41.3641 30.1907L41.3742 30.1151L41.3833 30.0466L41.3893 30.0003L41.3954 29.953L41.3967 29.9426L41.4036 29.8841L41.4058 29.8672L41.4091 29.8425L41.4093 29.8391V29.8382L41.4106 29.8265L41.4149 29.7897L41.4175 29.7667L41.4227 29.7177L41.4248 29.7033L41.4249 29.7008L41.4253 29.6952L41.4264 29.6885L41.4305 29.6458L41.437 29.5843L41.4376 29.5809L41.4379 29.5752L41.4393 29.5638L41.4426 29.5279L41.4448 29.5045L41.4505 29.4471L41.4504 29.4447L41.4522 29.4244L41.4539 29.4062L41.4556 29.3836L41.4598 29.3412L41.4608 29.3302L41.4608 29.3256L41.4626 29.3056L41.4643 29.2835L41.4678 29.2402L41.4695 29.2207L41.4702 29.2146L41.4705 29.209L41.4738 29.16L41.4756 29.1366L41.4773 29.1158L41.4783 29.1027L41.4786 29.0987L41.4786 29.0981L41.4795 29.0877L41.4825 29.0352L41.4834 29.0214L41.4947 28.8358C41.4994 28.748 41.5033 28.66 41.5065 28.5719L41.5063 28.5694L41.5076 28.5334L41.5093 28.485L41.5098 28.4528L41.5148 28.2479C41.5161 28.1654 41.5167 28.0827 41.5167 28L41.5155 27.8007L41.5117 27.6019L41.5093 27.515L41.5081 27.4843V27.48L41.5063 27.4302L41.5076 27.4739L41.4992 27.254C41.4953 27.1705 41.4907 27.0872 41.4855 27.0041L41.4834 26.9747L41.4829 26.9695L41.4821 26.9524L41.4782 26.9015L41.4786 26.901L41.4773 26.8894L41.4769 26.8842L41.4764 26.8746V26.8725L41.4747 26.8512L41.473 26.8287L41.4701 26.7853L41.4695 26.7789L41.4678 26.7594L41.4671 26.7461L41.4626 26.6939L41.4608 26.674L41.4576 26.6322L41.4539 26.5951L41.4522 26.5748L41.4487 26.5384L41.4483 26.5332L41.4473 26.5186L41.4465 26.5141L41.4439 26.4868L41.4357 26.4032L41.4344 26.3906L41.4283 26.333L41.421 26.262L41.411 26.1761L41.4093 26.1618L41.4081 26.1492L41.4062 26.1336L41.4058 26.1319L41.4054 26.1274L41.3984 26.0708L41.385 25.9659L41.3824 25.9451L41.3813 25.9357L41.3798 25.9274L41.3785 25.917L41.3768 25.9044L41.3746 25.8892V25.8884L41.3651 25.819L41.3641 25.8093L41.3612 25.7922L41.359 25.7766L41.3534 25.7384L41.3529 25.7345L41.3469 25.6929L41.3456 25.6834L41.3458 25.683L41.3451 25.6812L41.3417 25.6565L41.3373 25.6288L41.3287 25.5716L41.3278 25.5652L41.3198 25.5141L41.3174 25.5014L41.3113 25.4637L41.2853 25.3078C41.2734 25.2392 41.261 25.1707 41.2481 25.1024C41.2228 24.9673 41.1957 24.8327 41.1668 24.6986C40.6453 22.2786 39.5624 20.0671 38.0611 18.2076C38.0599 18.2059 38.0586 18.2043 38.0574 18.2027L38.0587 18.2049L37.9238 18.0399C35.0623 14.5941 30.7457 12.4 25.9168 12.4C21.1897 12.4 16.9537 14.5025 14.0929 17.8233C14.0703 17.8495 14.048 17.8755 14.0258 17.9017L14.0101 17.9198L13.9509 17.9904L13.8796 18.0758L13.8767 18.0796L13.856 18.105L13.8055 18.1664L13.7844 18.1928L13.7743 18.2049L13.7722 18.2075L13.7098 18.2855L13.7351 18.2537L13.7068 18.2894L13.6578 18.351ZM33.4748 5.46667H18.3587C17.562 5.46667 16.8721 6.00895 16.6785 6.77435L16.659 6.86029L15.6435 11.9349C18.6084 10.0349 22.1339 8.93333 25.9168 8.93333C29.7001 8.93333 33.2261 10.0353 36.1913 11.9357L35.1744 6.86007C35.0124 6.04986 34.301 5.46667 33.4748 5.46667Z" fill="black"/>
</svg>
